<svg width="53" height="67" viewBox="0 0 53 67" fill="none" xmlns="http://www.w3.org/2000/svg">
<path d="M15.5803 1.25976C14.0881 1.64068 12.8616 3.1531 12.6432 5.07777C12.3744 7.44624 13.7302 9.54586 15.6713 9.76547C17.6118 9.98597 19.4034 8.24618 19.6726 5.87682C19.9414 3.5083 18.585 1.40962 16.6445 1.18912C16.2883 1.14764 15.9273 1.17193 15.5803 1.25976ZM25.5254 0.735433C24.1448 1.1082 22.8671 2.26378 22.2232 3.90083C21.2413 6.396 22.1019 9.06913 24.1456 9.87316C26.1896 10.6774 28.6401 9.30577 29.6218 6.8105C30.6037 4.31533 29.7431 1.6422 27.6993 0.838054C26.9966 0.561885 26.2477 0.541039 25.5254 0.735433ZM35.2571 3.18247C33.9524 3.51596 32.6908 4.44796 31.8602 5.83733C30.3836 8.30805 30.8271 11.2889 32.8508 12.4992C34.8748 13.7086 37.7131 12.6871 39.1899 10.2165C40.6669 7.74492 40.2236 4.76414 38.1995 3.55473C37.3139 3.02504 36.2722 2.92252 35.2571 3.18247ZM16.6581 12.5111C13.816 13.238 11.3075 14.8801 9.48048 17.6798C3.64843 26.6166 -1.17655 38.5067 0.580693 55.0301C2.63423 74.3299 24.539 64.8523 19.6213 55.5712C13.3396 43.7153 19.1402 36.6601 29.0089 36.2935C33.396 36.131 37.2157 33.4249 38.4617 28.2947C39.96 22.1258 33.9116 15.1058 25.8247 12.8539C22.6726 11.9758 19.5002 11.784 16.6581 12.5111ZM45.013 8.94516C43.6901 9.3038 42.3838 10.0328 41.2667 11.1166C38.2877 14.0068 37.7886 18.328 40.1563 20.7674C42.5235 23.2077 46.8589 22.8413 49.8372 19.9518C52.8161 17.0615 53.3113 12.7414 50.9442 10.3011C49.4643 8.77631 47.2181 8.34722 45.013 8.94516Z" fill="#FBD1E1"/>
</svg>
