<svg width="976" height="221" viewBox="0 0 976 221" fill="none" xmlns="http://www.w3.org/2000/svg">
<mask id="path-1-inside-1_458_1223" fill="white">
<path d="M976 20C976 8.95431 967.046 0 956 0H49C37.9543 0 29 8.95431 29 20V173C29 184.046 37.9543 193 49 193H956C967.046 193 976 184.046 976 173V20Z"/>
</mask>
<path d="M976 20C976 8.95431 967.046 0 956 0H49C37.9543 0 29 8.95431 29 20V173C29 184.046 37.9543 193 49 193H956C967.046 193 976 184.046 976 173V20Z" fill="#BACBFD"/>
<path d="M976 0H29H976ZM23 173C23 187.359 34.6406 199 49 199H950C964.359 199 976 187.359 976 173C976 180.732 967.046 187 956 187H49C41.268 187 35 180.732 35 173H23ZM976 193V0V193ZM49 0C34.6406 0 23 11.6406 23 26V173C23 187.359 34.6406 199 49 199V187C41.268 187 35 180.732 35 173V20C35 8.95431 41.268 0 49 0Z" fill="#8CABFF" mask="url(#path-1-inside-1_458_1223)"/>
<path d="M161.65 52.725C161.817 52.5083 161.992 52.3833 162.175 52.35C162.375 52.3167 162.542 52.35 162.675 52.45C162.825 52.55 162.908 52.7 162.925 52.9C162.942 53.1 162.858 53.3167 162.675 53.55C162.392 53.9 162.192 54.2667 162.075 54.65C161.975 55.0167 161.925 55.35 161.925 55.65L161.825 55.075C162.292 55.075 162.667 55.2167 162.95 55.5C163.25 55.7667 163.4 56.125 163.4 56.575C163.4 56.9917 163.267 57.3417 163 57.625C162.733 57.8917 162.375 58.025 161.925 58.025C161.475 58.025 161.108 57.8667 160.825 57.55C160.558 57.2333 160.425 56.7833 160.425 56.2C160.425 55.85 160.458 55.4833 160.525 55.1C160.608 54.7 160.733 54.3 160.9 53.9C161.083 53.5 161.333 53.1083 161.65 52.725ZM165.95 52.725C166.117 52.5083 166.292 52.3833 166.475 52.35C166.675 52.3167 166.842 52.35 166.975 52.45C167.125 52.55 167.208 52.7 167.225 52.9C167.242 53.1 167.158 53.3167 166.975 53.55C166.692 53.9 166.492 54.2667 166.375 54.65C166.275 55.0167 166.225 55.35 166.225 55.65L166.125 55.075C166.592 55.075 166.967 55.2167 167.25 55.5C167.55 55.7667 167.7 56.125 167.7 56.575C167.7 56.9917 167.567 57.3417 167.3 57.625C167.033 57.8917 166.675 58.025 166.225 58.025C165.775 58.025 165.408 57.8667 165.125 57.55C164.858 57.2333 164.725 56.7833 164.725 56.2C164.725 55.85 164.758 55.4833 164.825 55.1C164.908 54.7 165.033 54.3 165.2 53.9C165.383 53.5 165.633 53.1083 165.95 52.725ZM172.432 70C172.065 70 171.774 69.8917 171.557 69.675C171.357 69.4583 171.257 69.1667 171.257 68.8V53.45C171.257 53.0667 171.357 52.775 171.557 52.575C171.757 52.375 172.04 52.275 172.407 52.275C172.79 52.275 173.082 52.375 173.282 52.575C173.482 52.775 173.582 53.0667 173.582 53.45V68H181.532C181.882 68 182.14 68.0833 182.307 68.25C182.49 68.4167 182.582 68.6583 182.582 68.975C182.582 69.3083 182.49 69.5667 182.307 69.75C182.14 69.9167 181.882 70 181.532 70H172.432ZM190.156 70.225C188.839 70.225 187.706 69.975 186.756 69.475C185.823 68.9583 185.098 68.2333 184.581 67.3C184.064 66.35 183.806 65.2333 183.806 63.95C183.806 62.6833 184.056 61.575 184.556 60.625C185.073 59.675 185.773 58.9333 186.656 58.4C187.556 57.8667 188.581 57.6 189.731 57.6C190.548 57.6 191.281 57.7417 191.931 58.025C192.598 58.2917 193.164 58.6833 193.631 59.2C194.098 59.7167 194.448 60.35 194.681 61.1C194.931 61.8333 195.056 62.6667 195.056 63.6C195.056 63.8667 194.973 64.075 194.806 64.225C194.656 64.3583 194.431 64.425 194.131 64.425H185.581V62.975H193.556L193.131 63.325C193.131 62.4583 192.998 61.725 192.731 61.125C192.481 60.5083 192.106 60.0417 191.606 59.725C191.123 59.4083 190.514 59.25 189.781 59.25C188.981 59.25 188.298 59.4417 187.731 59.825C187.164 60.1917 186.731 60.7167 186.431 61.4C186.131 62.0667 185.981 62.8417 185.981 63.725V63.875C185.981 65.375 186.339 66.5083 187.056 67.275C187.773 68.0417 188.806 68.425 190.156 68.425C190.689 68.425 191.231 68.3583 191.781 68.225C192.348 68.0917 192.889 67.85 193.406 67.5C193.656 67.35 193.881 67.2833 194.081 67.3C194.298 67.3 194.473 67.3667 194.606 67.5C194.739 67.6167 194.823 67.7667 194.856 67.95C194.889 68.1167 194.864 68.3 194.781 68.5C194.698 68.7 194.539 68.875 194.306 69.025C193.756 69.4083 193.098 69.7083 192.331 69.925C191.581 70.125 190.856 70.225 190.156 70.225ZM201.761 70.225C200.927 70.225 200.169 70.0583 199.486 69.725C198.819 69.3917 198.294 68.9417 197.911 68.375C197.544 67.8083 197.361 67.175 197.361 66.475C197.361 65.575 197.586 64.8667 198.036 64.35C198.486 63.8333 199.244 63.4667 200.311 63.25C201.377 63.0167 202.811 62.9 204.611 62.9H205.786V64.35H204.661C203.377 64.35 202.361 64.4083 201.611 64.525C200.877 64.6417 200.361 64.85 200.061 65.15C199.761 65.4333 199.611 65.8333 199.611 66.35C199.611 67 199.836 67.5333 200.286 67.95C200.752 68.3667 201.386 68.575 202.186 68.575C202.819 68.575 203.377 68.425 203.861 68.125C204.344 67.8083 204.727 67.3917 205.011 66.875C205.294 66.3417 205.436 65.7333 205.436 65.05V62.175C205.436 61.1917 205.236 60.4833 204.836 60.05C204.436 59.6 203.761 59.375 202.811 59.375C202.261 59.375 201.694 59.45 201.111 59.6C200.527 59.75 199.919 59.9833 199.286 60.3C199.036 60.4167 198.819 60.4583 198.636 60.425C198.452 60.375 198.302 60.275 198.186 60.125C198.086 59.9583 198.027 59.7833 198.011 59.6C198.011 59.4 198.052 59.2083 198.136 59.025C198.236 58.8417 198.402 58.7083 198.636 58.625C199.369 58.2583 200.094 58 200.811 57.85C201.544 57.6833 202.227 57.6 202.861 57.6C203.944 57.6 204.836 57.775 205.536 58.125C206.236 58.4583 206.761 58.9833 207.111 59.7C207.461 60.4 207.636 61.3 207.636 62.4V69C207.636 69.3833 207.544 69.675 207.361 69.875C207.177 70.075 206.911 70.175 206.561 70.175C206.227 70.175 205.961 70.075 205.761 69.875C205.577 69.675 205.486 69.3833 205.486 69V67.225H205.711C205.577 67.8417 205.327 68.375 204.961 68.825C204.594 69.275 204.136 69.625 203.586 69.875C203.052 70.1083 202.444 70.225 201.761 70.225ZM215.719 70.175C215.402 70.175 215.127 70.0917 214.894 69.925C214.66 69.7583 214.46 69.4917 214.294 69.125L210.044 59.225C209.927 58.9417 209.885 58.6833 209.919 58.45C209.952 58.2167 210.06 58.025 210.244 57.875C210.444 57.725 210.71 57.65 211.044 57.65C211.327 57.65 211.552 57.7167 211.719 57.85C211.885 57.9833 212.044 58.2167 212.194 58.55L216.119 68.225H215.419L219.444 58.55C219.577 58.2167 219.727 57.9833 219.894 57.85C220.077 57.7167 220.327 57.65 220.644 57.65C220.927 57.65 221.144 57.725 221.294 57.875C221.46 58.025 221.56 58.2167 221.594 58.45C221.627 58.6833 221.577 58.9333 221.444 59.2L217.169 69.125C217.019 69.4917 216.819 69.7583 216.569 69.925C216.335 70.0917 216.052 70.175 215.719 70.175ZM225.158 70.125C224.808 70.125 224.533 70.0167 224.333 69.8C224.133 69.5833 224.033 69.2833 224.033 68.9V58.925C224.033 58.525 224.133 58.225 224.333 58.025C224.533 57.8083 224.808 57.7 225.158 57.7C225.525 57.7 225.808 57.8083 226.008 58.025C226.208 58.225 226.308 58.525 226.308 58.925V68.9C226.308 69.2833 226.208 69.5833 226.008 69.8C225.825 70.0167 225.541 70.125 225.158 70.125ZM225.158 55C224.708 55 224.35 54.8833 224.083 54.65C223.833 54.4 223.708 54.075 223.708 53.675C223.708 53.2417 223.833 52.9167 224.083 52.7C224.35 52.4667 224.708 52.35 225.158 52.35C225.641 52.35 226 52.4667 226.233 52.7C226.483 52.9167 226.608 53.2417 226.608 53.675C226.608 54.075 226.483 54.4 226.233 54.65C226 54.8833 225.641 55 225.158 55ZM231.091 70.175C230.741 70.175 230.466 70.075 230.266 69.875C230.066 69.675 229.966 69.3833 229.966 69V58.8C229.966 58.4167 230.066 58.1333 230.266 57.95C230.466 57.75 230.741 57.65 231.091 57.65C231.441 57.65 231.707 57.75 231.891 57.95C232.091 58.1333 232.191 58.4167 232.191 58.8V60.85L231.916 60.475C232.266 59.525 232.832 58.8083 233.616 58.325C234.416 57.8417 235.324 57.6 236.341 57.6C237.324 57.6 238.132 57.775 238.766 58.125C239.399 58.475 239.874 59.0083 240.191 59.725C240.507 60.4417 240.666 61.35 240.666 62.45V69C240.666 69.3833 240.566 69.675 240.366 69.875C240.182 70.075 239.907 70.175 239.541 70.175C239.174 70.175 238.891 70.075 238.691 69.875C238.491 69.675 238.391 69.3833 238.391 69V62.575C238.391 61.4917 238.182 60.7 237.766 60.2C237.349 59.7 236.682 59.45 235.766 59.45C234.699 59.45 233.841 59.7833 233.191 60.45C232.557 61.1 232.241 61.9833 232.241 63.1V69C232.241 69.7833 231.857 70.175 231.091 70.175ZM249.747 74.725C248.847 74.725 247.972 74.625 247.122 74.425C246.289 74.225 245.531 73.9167 244.847 73.5C244.631 73.3667 244.481 73.2083 244.397 73.025C244.331 72.8583 244.314 72.6833 244.347 72.5C244.397 72.3167 244.481 72.15 244.597 72C244.731 71.8667 244.881 71.775 245.047 71.725C245.231 71.6917 245.414 71.7333 245.597 71.85C246.331 72.2667 247.031 72.55 247.697 72.7C248.364 72.85 248.997 72.925 249.597 72.925C250.781 72.925 251.664 72.6167 252.247 72C252.847 71.4 253.147 70.5167 253.147 69.35V66.65H253.372C253.139 67.5833 252.614 68.325 251.797 68.875C250.997 69.425 250.064 69.7 248.997 69.7C247.897 69.7 246.939 69.45 246.122 68.95C245.306 68.4333 244.672 67.725 244.222 66.825C243.772 65.9083 243.547 64.85 243.547 63.65C243.547 62.7333 243.672 61.9083 243.922 61.175C244.189 60.425 244.556 59.7917 245.022 59.275C245.506 58.7417 246.081 58.3333 246.747 58.05C247.414 57.75 248.164 57.6 248.997 57.6C250.081 57.6 251.022 57.875 251.822 58.425C252.622 58.975 253.139 59.7167 253.372 60.65L253.097 61V58.8C253.097 58.4167 253.197 58.1333 253.397 57.95C253.597 57.75 253.881 57.65 254.247 57.65C254.597 57.65 254.872 57.75 255.072 57.95C255.272 58.1333 255.372 58.4167 255.372 58.8V69.05C255.372 70.9333 254.889 72.35 253.922 73.3C252.972 74.25 251.581 74.725 249.747 74.725ZM249.497 67.9C250.247 67.9 250.889 67.7333 251.422 67.4C251.972 67.05 252.389 66.5583 252.672 65.925C252.972 65.275 253.122 64.5167 253.122 63.65C253.122 62.3333 252.797 61.3 252.147 60.55C251.497 59.7833 250.614 59.4 249.497 59.4C248.747 59.4 248.097 59.575 247.547 59.925C247.014 60.2583 246.597 60.7417 246.297 61.375C245.997 62.0083 245.847 62.7667 245.847 63.65C245.847 64.95 246.172 65.9833 246.822 66.75C247.489 67.5167 248.381 67.9 249.497 67.9ZM270.587 70.225C269.604 70.225 268.779 70.05 268.112 69.7C267.462 69.35 266.97 68.8417 266.637 68.175C266.32 67.5083 266.162 66.6917 266.162 65.725V59.575H264.562C264.262 59.575 264.029 59.5 263.862 59.35C263.695 59.1833 263.612 58.9667 263.612 58.7C263.612 58.4167 263.695 58.2 263.862 58.05C264.029 57.9 264.262 57.825 264.562 57.825H266.162V55.1C266.162 54.7167 266.262 54.4333 266.462 54.25C266.662 54.05 266.945 53.95 267.312 53.95C267.679 53.95 267.954 54.05 268.137 54.25C268.337 54.4333 268.437 54.7167 268.437 55.1V57.825H271.462C271.779 57.825 272.02 57.9 272.187 58.05C272.354 58.2 272.437 58.4167 272.437 58.7C272.437 58.9667 272.354 59.1833 272.187 59.35C272.02 59.5 271.779 59.575 271.462 59.575H268.437V65.525C268.437 66.4417 268.629 67.1333 269.012 67.6C269.395 68.0667 270.029 68.3 270.912 68.3C271.229 68.3 271.495 68.275 271.712 68.225C271.929 68.1583 272.12 68.125 272.287 68.125C272.437 68.1083 272.562 68.1583 272.662 68.275C272.779 68.3917 272.837 68.6083 272.837 68.925C272.837 69.1583 272.795 69.375 272.712 69.575C272.645 69.7583 272.504 69.8833 272.287 69.95C272.087 70.0167 271.82 70.075 271.487 70.125C271.154 70.1917 270.854 70.225 270.587 70.225ZM275.817 70.175C275.467 70.175 275.192 70.075 274.992 69.875C274.792 69.675 274.692 69.3833 274.692 69V53.35C274.692 52.9667 274.792 52.6833 274.992 52.5C275.192 52.3 275.467 52.2 275.817 52.2C276.184 52.2 276.467 52.3 276.667 52.5C276.867 52.6833 276.967 52.9667 276.967 53.35V60.475H276.642C276.992 59.525 277.559 58.8083 278.342 58.325C279.142 57.8417 280.051 57.6 281.067 57.6C282.051 57.6 282.859 57.7833 283.492 58.15C284.126 58.5 284.601 59.0333 284.917 59.75C285.234 60.4667 285.392 61.3667 285.392 62.45V69C285.392 69.3833 285.292 69.675 285.092 69.875C284.909 70.075 284.634 70.175 284.267 70.175C283.901 70.175 283.617 70.075 283.417 69.875C283.217 69.675 283.117 69.3833 283.117 69V62.575C283.117 61.4917 282.909 60.7 282.492 60.2C282.076 59.7 281.409 59.45 280.492 59.45C279.426 59.45 278.567 59.7833 277.917 60.45C277.284 61.1 276.967 61.9833 276.967 63.1V69C276.967 69.7833 276.584 70.175 275.817 70.175ZM294.624 70.225C293.307 70.225 292.174 69.975 291.224 69.475C290.29 68.9583 289.565 68.2333 289.049 67.3C288.532 66.35 288.274 65.2333 288.274 63.95C288.274 62.6833 288.524 61.575 289.024 60.625C289.54 59.675 290.24 58.9333 291.124 58.4C292.024 57.8667 293.049 57.6 294.199 57.6C295.015 57.6 295.749 57.7417 296.399 58.025C297.065 58.2917 297.632 58.6833 298.099 59.2C298.565 59.7167 298.915 60.35 299.149 61.1C299.399 61.8333 299.524 62.6667 299.524 63.6C299.524 63.8667 299.44 64.075 299.274 64.225C299.124 64.3583 298.899 64.425 298.599 64.425H290.049V62.975H298.024L297.599 63.325C297.599 62.4583 297.465 61.725 297.199 61.125C296.949 60.5083 296.574 60.0417 296.074 59.725C295.59 59.4083 294.982 59.25 294.249 59.25C293.449 59.25 292.765 59.4417 292.199 59.825C291.632 60.1917 291.199 60.7167 290.899 61.4C290.599 62.0667 290.449 62.8417 290.449 63.725V63.875C290.449 65.375 290.807 66.5083 291.524 67.275C292.24 68.0417 293.274 68.425 294.624 68.425C295.157 68.425 295.699 68.3583 296.249 68.225C296.815 68.0917 297.357 67.85 297.874 67.5C298.124 67.35 298.349 67.2833 298.549 67.3C298.765 67.3 298.94 67.3667 299.074 67.5C299.207 67.6167 299.29 67.7667 299.324 67.95C299.357 68.1167 299.332 68.3 299.249 68.5C299.165 68.7 299.007 68.875 298.774 69.025C298.224 69.4083 297.565 69.7083 296.799 69.925C296.049 70.125 295.324 70.225 294.624 70.225ZM309.997 70.175C309.647 70.175 309.372 70.075 309.172 69.875C308.972 69.675 308.872 69.3833 308.872 69V53.35C308.872 52.9667 308.972 52.6833 309.172 52.5C309.372 52.3 309.647 52.2 309.997 52.2C310.364 52.2 310.647 52.3 310.847 52.5C311.047 52.6833 311.147 52.9667 311.147 53.35V60.475H310.822C311.172 59.525 311.739 58.8083 312.522 58.325C313.322 57.8417 314.23 57.6 315.247 57.6C316.23 57.6 317.039 57.7833 317.672 58.15C318.305 58.5 318.78 59.0333 319.097 59.75C319.414 60.4667 319.572 61.3667 319.572 62.45V69C319.572 69.3833 319.472 69.675 319.272 69.875C319.089 70.075 318.814 70.175 318.447 70.175C318.08 70.175 317.797 70.075 317.597 69.875C317.397 69.675 317.297 69.3833 317.297 69V62.575C317.297 61.4917 317.089 60.7 316.672 60.2C316.255 59.7 315.589 59.45 314.672 59.45C313.605 59.45 312.747 59.7833 312.097 60.45C311.464 61.1 311.147 61.9833 311.147 63.1V69C311.147 69.7833 310.764 70.175 309.997 70.175ZM328.354 70.225C327.154 70.225 326.112 69.9667 325.229 69.45C324.345 68.9333 323.662 68.2 323.179 67.25C322.695 66.3 322.454 65.1833 322.454 63.9C322.454 62.9333 322.587 62.0667 322.854 61.3C323.137 60.5167 323.537 59.85 324.054 59.3C324.57 58.75 325.187 58.3333 325.904 58.05C326.637 57.75 327.454 57.6 328.354 57.6C329.554 57.6 330.595 57.8583 331.479 58.375C332.362 58.8917 333.045 59.625 333.529 60.575C334.012 61.5083 334.254 62.6167 334.254 63.9C334.254 64.8667 334.112 65.7417 333.829 66.525C333.562 67.3083 333.17 67.975 332.654 68.525C332.137 69.075 331.512 69.5 330.779 69.8C330.062 70.0833 329.254 70.225 328.354 70.225ZM328.354 68.425C329.087 68.425 329.72 68.25 330.254 67.9C330.804 67.55 331.22 67.0417 331.504 66.375C331.804 65.7083 331.954 64.8833 331.954 63.9C331.954 62.4333 331.629 61.3167 330.979 60.55C330.329 59.7833 329.454 59.4 328.354 59.4C327.637 59.4 327.004 59.575 326.454 59.925C325.92 60.2583 325.504 60.7583 325.204 61.425C324.904 62.0917 324.754 62.9167 324.754 63.9C324.754 65.3667 325.079 66.4917 325.729 67.275C326.395 68.0417 327.27 68.425 328.354 68.425ZM341.368 70.225C340.618 70.225 339.859 70.1417 339.093 69.975C338.343 69.7917 337.634 69.4833 336.968 69.05C336.784 68.9333 336.651 68.7917 336.568 68.625C336.501 68.4417 336.476 68.2667 336.493 68.1C336.526 67.9167 336.601 67.7583 336.718 67.625C336.834 67.4917 336.976 67.4167 337.143 67.4C337.326 67.3667 337.518 67.4083 337.718 67.525C338.368 67.8917 338.993 68.15 339.593 68.3C340.209 68.45 340.818 68.525 341.418 68.525C342.334 68.525 343.026 68.3583 343.493 68.025C343.959 67.6917 344.193 67.25 344.193 66.7C344.193 66.2333 344.034 65.875 343.718 65.625C343.418 65.3583 342.943 65.1583 342.293 65.025L339.968 64.55C338.934 64.3167 338.151 63.9333 337.618 63.4C337.101 62.85 336.843 62.15 336.843 61.3C336.843 60.55 337.043 59.9 337.443 59.35C337.859 58.7833 338.434 58.35 339.168 58.05C339.901 57.75 340.743 57.6 341.693 57.6C342.426 57.6 343.118 57.7 343.768 57.9C344.434 58.0833 345.034 58.3667 345.568 58.75C345.768 58.8667 345.893 59.0167 345.943 59.2C346.009 59.3667 346.018 59.5417 345.968 59.725C345.934 59.8917 345.859 60.0333 345.743 60.15C345.626 60.2667 345.476 60.3417 345.293 60.375C345.109 60.3917 344.909 60.3417 344.693 60.225C344.209 59.8917 343.709 59.6583 343.193 59.525C342.693 59.375 342.193 59.3 341.693 59.3C340.793 59.3 340.109 59.475 339.643 59.825C339.193 60.175 338.968 60.6333 338.968 61.2C338.968 61.6333 339.101 61.9917 339.368 62.275C339.651 62.5583 340.093 62.7667 340.693 62.9L343.018 63.375C344.101 63.6083 344.918 63.9833 345.468 64.5C346.018 65 346.293 65.6833 346.293 66.55C346.293 67.6833 345.843 68.5833 344.943 69.25C344.059 69.9 342.868 70.225 341.368 70.225ZM350.378 74.675C350.028 74.675 349.753 74.575 349.553 74.375C349.353 74.175 349.253 73.8917 349.253 73.525V58.8C349.253 58.4167 349.353 58.1333 349.553 57.95C349.753 57.75 350.028 57.65 350.378 57.65C350.744 57.65 351.019 57.75 351.203 57.95C351.403 58.1333 351.503 58.4167 351.503 58.8V61.075L351.228 60.625C351.494 59.7083 352.019 58.975 352.803 58.425C353.586 57.875 354.528 57.6 355.628 57.6C356.711 57.6 357.653 57.8583 358.453 58.375C359.253 58.875 359.878 59.6 360.328 60.55C360.778 61.4833 361.003 62.6 361.003 63.9C361.003 65.1833 360.778 66.3083 360.328 67.275C359.894 68.225 359.269 68.9583 358.453 69.475C357.653 69.975 356.711 70.225 355.628 70.225C354.544 70.225 353.611 69.95 352.828 69.4C352.044 68.85 351.519 68.125 351.253 67.225H351.528V73.525C351.528 73.8917 351.428 74.175 351.228 74.375C351.028 74.575 350.744 74.675 350.378 74.675ZM355.103 68.425C355.819 68.425 356.444 68.25 356.978 67.9C357.528 67.55 357.953 67.0417 358.253 66.375C358.553 65.7083 358.703 64.8833 358.703 63.9C358.703 62.4333 358.378 61.3167 357.728 60.55C357.078 59.7833 356.203 59.4 355.103 59.4C354.369 59.4 353.728 59.575 353.178 59.925C352.644 60.2583 352.228 60.7583 351.928 61.425C351.644 62.0917 351.503 62.9167 351.503 63.9C351.503 65.3667 351.828 66.4917 352.478 67.275C353.128 68.0417 354.003 68.425 355.103 68.425ZM365.051 70.125C364.701 70.125 364.426 70.0167 364.226 69.8C364.026 69.5833 363.926 69.2833 363.926 68.9V58.925C363.926 58.525 364.026 58.225 364.226 58.025C364.426 57.8083 364.701 57.7 365.051 57.7C365.417 57.7 365.701 57.8083 365.901 58.025C366.101 58.225 366.201 58.525 366.201 58.925V68.9C366.201 69.2833 366.101 69.5833 365.901 69.8C365.717 70.0167 365.434 70.125 365.051 70.125ZM365.051 55C364.601 55 364.242 54.8833 363.976 54.65C363.726 54.4 363.601 54.075 363.601 53.675C363.601 53.2417 363.726 52.9167 363.976 52.7C364.242 52.4667 364.601 52.35 365.051 52.35C365.534 52.35 365.892 52.4667 366.126 52.7C366.376 52.9167 366.501 53.2417 366.501 53.675C366.501 54.075 366.376 54.4 366.126 54.65C365.892 54.8833 365.534 55 365.051 55ZM374.908 70.225C373.925 70.225 373.1 70.05 372.433 69.7C371.783 69.35 371.292 68.8417 370.958 68.175C370.642 67.5083 370.483 66.6917 370.483 65.725V59.575H368.883C368.583 59.575 368.35 59.5 368.183 59.35C368.017 59.1833 367.933 58.9667 367.933 58.7C367.933 58.4167 368.017 58.2 368.183 58.05C368.35 57.9 368.583 57.825 368.883 57.825H370.483V55.1C370.483 54.7167 370.583 54.4333 370.783 54.25C370.983 54.05 371.267 53.95 371.633 53.95C372 53.95 372.275 54.05 372.458 54.25C372.658 54.4333 372.758 54.7167 372.758 55.1V57.825H375.783C376.1 57.825 376.342 57.9 376.508 58.05C376.675 58.2 376.758 58.4167 376.758 58.7C376.758 58.9667 376.675 59.1833 376.508 59.35C376.342 59.5 376.1 59.575 375.783 59.575H372.758V65.525C372.758 66.4417 372.95 67.1333 373.333 67.6C373.717 68.0667 374.35 68.3 375.233 68.3C375.55 68.3 375.817 68.275 376.033 68.225C376.25 68.1583 376.442 68.125 376.608 68.125C376.758 68.1083 376.883 68.1583 376.983 68.275C377.1 68.3917 377.158 68.6083 377.158 68.925C377.158 69.1583 377.117 69.375 377.033 69.575C376.967 69.7583 376.825 69.8833 376.608 69.95C376.408 70.0167 376.142 70.075 375.808 70.125C375.475 70.1917 375.175 70.225 374.908 70.225ZM382.693 70.225C381.86 70.225 381.101 70.0583 380.418 69.725C379.751 69.3917 379.226 68.9417 378.843 68.375C378.476 67.8083 378.293 67.175 378.293 66.475C378.293 65.575 378.518 64.8667 378.968 64.35C379.418 63.8333 380.176 63.4667 381.243 63.25C382.31 63.0167 383.743 62.9 385.543 62.9H386.718V64.35H385.593C384.31 64.35 383.293 64.4083 382.543 64.525C381.81 64.6417 381.293 64.85 380.993 65.15C380.693 65.4333 380.543 65.8333 380.543 66.35C380.543 67 380.768 67.5333 381.218 67.95C381.685 68.3667 382.318 68.575 383.118 68.575C383.751 68.575 384.31 68.425 384.793 68.125C385.276 67.8083 385.66 67.3917 385.943 66.875C386.226 66.3417 386.368 65.7333 386.368 65.05V62.175C386.368 61.1917 386.168 60.4833 385.768 60.05C385.368 59.6 384.693 59.375 383.743 59.375C383.193 59.375 382.626 59.45 382.043 59.6C381.46 59.75 380.851 59.9833 380.218 60.3C379.968 60.4167 379.751 60.4583 379.568 60.425C379.385 60.375 379.235 60.275 379.118 60.125C379.018 59.9583 378.96 59.7833 378.943 59.6C378.943 59.4 378.985 59.2083 379.068 59.025C379.168 58.8417 379.335 58.7083 379.568 58.625C380.301 58.2583 381.026 58 381.743 57.85C382.476 57.6833 383.16 57.6 383.793 57.6C384.876 57.6 385.768 57.775 386.468 58.125C387.168 58.4583 387.693 58.9833 388.043 59.7C388.393 60.4 388.568 61.3 388.568 62.4V69C388.568 69.3833 388.476 69.675 388.293 69.875C388.11 70.075 387.843 70.175 387.493 70.175C387.16 70.175 386.893 70.075 386.693 69.875C386.51 69.675 386.418 69.3833 386.418 69V67.225H386.643C386.51 67.8417 386.26 68.375 385.893 68.825C385.526 69.275 385.068 69.625 384.518 69.875C383.985 70.1083 383.376 70.225 382.693 70.225ZM395.973 70.225C394.723 70.225 393.773 69.8583 393.123 69.125C392.473 68.375 392.148 67.3 392.148 65.9V53.35C392.148 52.9667 392.248 52.6833 392.448 52.5C392.648 52.3 392.923 52.2 393.273 52.2C393.64 52.2 393.923 52.3 394.123 52.5C394.323 52.6833 394.423 52.9667 394.423 53.35V65.725C394.423 66.5917 394.598 67.2417 394.948 67.675C395.315 68.0917 395.832 68.3 396.498 68.3C396.648 68.3 396.782 68.3 396.898 68.3C397.015 68.2833 397.132 68.2667 397.248 68.25C397.432 68.2333 397.565 68.2833 397.648 68.4C397.732 68.5167 397.773 68.75 397.773 69.1C397.773 69.4167 397.698 69.6667 397.548 69.85C397.415 70.0167 397.19 70.125 396.873 70.175C396.723 70.1917 396.573 70.2 396.423 70.2C396.273 70.2167 396.123 70.225 395.973 70.225ZM407.311 70.125C406.961 70.125 406.686 70.0167 406.486 69.8C406.286 69.5833 406.186 69.2833 406.186 68.9V58.925C406.186 58.525 406.286 58.225 406.486 58.025C406.686 57.8083 406.961 57.7 407.311 57.7C407.678 57.7 407.961 57.8083 408.161 58.025C408.361 58.225 408.461 58.525 408.461 58.925V68.9C408.461 69.2833 408.361 69.5833 408.161 69.8C407.978 70.0167 407.695 70.125 407.311 70.125ZM407.311 55C406.861 55 406.503 54.8833 406.236 54.65C405.986 54.4 405.861 54.075 405.861 53.675C405.861 53.2417 405.986 52.9167 406.236 52.7C406.503 52.4667 406.861 52.35 407.311 52.35C407.795 52.35 408.153 52.4667 408.386 52.7C408.636 52.9167 408.761 53.2417 408.761 53.675C408.761 54.075 408.636 54.4 408.386 54.65C408.153 54.8833 407.795 55 407.311 55ZM416.319 70.225C415.569 70.225 414.811 70.1417 414.044 69.975C413.294 69.7917 412.586 69.4833 411.919 69.05C411.736 68.9333 411.602 68.7917 411.519 68.625C411.452 68.4417 411.427 68.2667 411.444 68.1C411.477 67.9167 411.552 67.7583 411.669 67.625C411.786 67.4917 411.927 67.4167 412.094 67.4C412.277 67.3667 412.469 67.4083 412.669 67.525C413.319 67.8917 413.944 68.15 414.544 68.3C415.161 68.45 415.769 68.525 416.369 68.525C417.286 68.525 417.977 68.3583 418.444 68.025C418.911 67.6917 419.144 67.25 419.144 66.7C419.144 66.2333 418.986 65.875 418.669 65.625C418.369 65.3583 417.894 65.1583 417.244 65.025L414.919 64.55C413.886 64.3167 413.102 63.9333 412.569 63.4C412.052 62.85 411.794 62.15 411.794 61.3C411.794 60.55 411.994 59.9 412.394 59.35C412.811 58.7833 413.386 58.35 414.119 58.05C414.852 57.75 415.694 57.6 416.644 57.6C417.377 57.6 418.069 57.7 418.719 57.9C419.386 58.0833 419.986 58.3667 420.519 58.75C420.719 58.8667 420.844 59.0167 420.894 59.2C420.961 59.3667 420.969 59.5417 420.919 59.725C420.886 59.8917 420.811 60.0333 420.694 60.15C420.577 60.2667 420.427 60.3417 420.244 60.375C420.061 60.3917 419.861 60.3417 419.644 60.225C419.161 59.8917 418.661 59.6583 418.144 59.525C417.644 59.375 417.144 59.3 416.644 59.3C415.744 59.3 415.061 59.475 414.594 59.825C414.144 60.175 413.919 60.6333 413.919 61.2C413.919 61.6333 414.052 61.9917 414.319 62.275C414.602 62.5583 415.044 62.7667 415.644 62.9L417.969 63.375C419.052 63.6083 419.869 63.9833 420.419 64.5C420.969 65 421.244 65.6833 421.244 66.55C421.244 67.6833 420.794 68.5833 419.894 69.25C419.011 69.9 417.819 70.225 416.319 70.225ZM434.922 70.225C434.172 70.225 433.414 70.1417 432.647 69.975C431.897 69.7917 431.189 69.4833 430.522 69.05C430.339 68.9333 430.206 68.7917 430.122 68.625C430.056 68.4417 430.031 68.2667 430.047 68.1C430.081 67.9167 430.156 67.7583 430.272 67.625C430.389 67.4917 430.531 67.4167 430.697 67.4C430.881 67.3667 431.072 67.4083 431.272 67.525C431.922 67.8917 432.547 68.15 433.147 68.3C433.764 68.45 434.372 68.525 434.972 68.525C435.889 68.525 436.581 68.3583 437.047 68.025C437.514 67.6917 437.747 67.25 437.747 66.7C437.747 66.2333 437.589 65.875 437.272 65.625C436.972 65.3583 436.497 65.1583 435.847 65.025L433.522 64.55C432.489 64.3167 431.706 63.9333 431.172 63.4C430.656 62.85 430.397 62.15 430.397 61.3C430.397 60.55 430.597 59.9 430.997 59.35C431.414 58.7833 431.989 58.35 432.722 58.05C433.456 57.75 434.297 57.6 435.247 57.6C435.981 57.6 436.672 57.7 437.322 57.9C437.989 58.0833 438.589 58.3667 439.122 58.75C439.322 58.8667 439.447 59.0167 439.497 59.2C439.564 59.3667 439.572 59.5417 439.522 59.725C439.489 59.8917 439.414 60.0333 439.297 60.15C439.181 60.2667 439.031 60.3417 438.847 60.375C438.664 60.3917 438.464 60.3417 438.247 60.225C437.764 59.8917 437.264 59.6583 436.747 59.525C436.247 59.375 435.747 59.3 435.247 59.3C434.347 59.3 433.664 59.475 433.197 59.825C432.747 60.175 432.522 60.6333 432.522 61.2C432.522 61.6333 432.656 61.9917 432.922 62.275C433.206 62.5583 433.647 62.7667 434.247 62.9L436.572 63.375C437.656 63.6083 438.472 63.9833 439.022 64.5C439.572 65 439.847 65.6833 439.847 66.55C439.847 67.6833 439.397 68.5833 438.497 69.25C437.614 69.9 436.422 70.225 434.922 70.225ZM448.082 70.225C446.849 70.225 445.782 69.9667 444.882 69.45C443.982 68.9167 443.291 68.175 442.807 67.225C442.324 66.2583 442.082 65.125 442.082 63.825C442.082 62.8583 442.216 61.9917 442.482 61.225C442.766 60.4583 443.166 59.8083 443.682 59.275C444.199 58.725 444.824 58.3083 445.557 58.025C446.307 57.7417 447.149 57.6 448.082 57.6C448.666 57.6 449.282 57.6917 449.932 57.875C450.582 58.0583 451.182 58.3583 451.732 58.775C451.916 58.9083 452.032 59.0667 452.082 59.25C452.132 59.4167 452.132 59.5917 452.082 59.775C452.049 59.9583 451.966 60.1167 451.832 60.25C451.716 60.3667 451.557 60.4333 451.357 60.45C451.174 60.4667 450.974 60.4083 450.757 60.275C450.357 59.975 449.932 59.7583 449.482 59.625C449.049 59.4917 448.632 59.425 448.232 59.425C447.616 59.425 447.066 59.525 446.582 59.725C446.116 59.925 445.716 60.2167 445.382 60.6C445.066 60.9667 444.824 61.425 444.657 61.975C444.491 62.5083 444.407 63.1333 444.407 63.85C444.407 65.2667 444.741 66.3833 445.407 67.2C446.074 68 447.016 68.4 448.232 68.4C448.632 68.4 449.049 68.3417 449.482 68.225C449.916 68.0917 450.341 67.875 450.757 67.575C450.974 67.4417 451.174 67.3917 451.357 67.425C451.541 67.4417 451.691 67.5167 451.807 67.65C451.941 67.7667 452.024 67.9167 452.057 68.1C452.091 68.2667 452.074 68.4417 452.007 68.625C451.957 68.8083 451.841 68.9583 451.657 69.075C451.124 69.475 450.541 69.7667 449.907 69.95C449.274 70.1333 448.666 70.225 448.082 70.225ZM458.206 70.225C457.373 70.225 456.614 70.0583 455.931 69.725C455.264 69.3917 454.739 68.9417 454.356 68.375C453.989 67.8083 453.806 67.175 453.806 66.475C453.806 65.575 454.031 64.8667 454.481 64.35C454.931 63.8333 455.689 63.4667 456.756 63.25C457.823 63.0167 459.256 62.9 461.056 62.9H462.231V64.35H461.106C459.823 64.35 458.806 64.4083 458.056 64.525C457.323 64.6417 456.806 64.85 456.506 65.15C456.206 65.4333 456.056 65.8333 456.056 66.35C456.056 67 456.281 67.5333 456.731 67.95C457.198 68.3667 457.831 68.575 458.631 68.575C459.264 68.575 459.823 68.425 460.306 68.125C460.789 67.8083 461.173 67.3917 461.456 66.875C461.739 66.3417 461.881 65.7333 461.881 65.05V62.175C461.881 61.1917 461.681 60.4833 461.281 60.05C460.881 59.6 460.206 59.375 459.256 59.375C458.706 59.375 458.139 59.45 457.556 59.6C456.973 59.75 456.364 59.9833 455.731 60.3C455.481 60.4167 455.264 60.4583 455.081 60.425C454.898 60.375 454.748 60.275 454.631 60.125C454.531 59.9583 454.473 59.7833 454.456 59.6C454.456 59.4 454.498 59.2083 454.581 59.025C454.681 58.8417 454.848 58.7083 455.081 58.625C455.814 58.2583 456.539 58 457.256 57.85C457.989 57.6833 458.673 57.6 459.306 57.6C460.389 57.6 461.281 57.775 461.981 58.125C462.681 58.4583 463.206 58.9833 463.556 59.7C463.906 60.4 464.081 61.3 464.081 62.4V69C464.081 69.3833 463.989 69.675 463.806 69.875C463.623 70.075 463.356 70.175 463.006 70.175C462.673 70.175 462.406 70.075 462.206 69.875C462.023 69.675 461.931 69.3833 461.931 69V67.225H462.156C462.023 67.8417 461.773 68.375 461.406 68.825C461.039 69.275 460.581 69.625 460.031 69.875C459.498 70.1083 458.889 70.225 458.206 70.225ZM468.836 70.175C468.453 70.175 468.161 70.075 467.961 69.875C467.761 69.675 467.661 69.3833 467.661 69V58.8C467.661 58.4167 467.761 58.1333 467.961 57.95C468.161 57.75 468.436 57.65 468.786 57.65C469.136 57.65 469.403 57.75 469.586 57.95C469.786 58.1333 469.886 58.4167 469.886 58.8V60.725H469.636C469.903 59.725 470.403 58.9667 471.136 58.45C471.869 57.9333 472.794 57.6417 473.911 57.575C474.178 57.5583 474.394 57.625 474.561 57.775C474.728 57.9083 474.819 58.1417 474.836 58.475C474.853 58.7917 474.778 59.05 474.611 59.25C474.444 59.4333 474.186 59.5417 473.836 59.575L473.386 59.6C472.286 59.7167 471.436 60.075 470.836 60.675C470.253 61.275 469.961 62.1 469.961 63.15V69C469.961 69.3833 469.861 69.675 469.661 69.875C469.478 70.075 469.203 70.175 468.836 70.175ZM480.349 74.675C480.082 74.675 479.857 74.6 479.674 74.45C479.507 74.3167 479.407 74.125 479.374 73.875C479.357 73.6417 479.407 73.3917 479.524 73.125L481.224 69.275V70.225L476.499 59.225C476.382 58.9417 476.34 58.6833 476.374 58.45C476.407 58.2167 476.515 58.025 476.699 57.875C476.899 57.725 477.165 57.65 477.499 57.65C477.782 57.65 478.007 57.7167 478.174 57.85C478.34 57.9833 478.499 58.2167 478.649 58.55L482.574 68.225H481.874L485.874 58.55C486.007 58.2167 486.165 57.9833 486.349 57.85C486.532 57.7167 486.782 57.65 487.099 57.65C487.382 57.65 487.599 57.725 487.749 57.875C487.915 58.025 488.015 58.2167 488.049 58.45C488.082 58.6833 488.032 58.9333 487.899 59.2L481.599 73.775C481.432 74.125 481.257 74.3583 481.074 74.475C480.907 74.6083 480.665 74.675 480.349 74.675ZM490.343 70.1C489.91 70.1 489.551 69.9583 489.268 69.675C488.985 69.3917 488.843 69.0333 488.843 68.6C488.843 68.1667 488.985 67.8167 489.268 67.55C489.551 67.2833 489.91 67.15 490.343 67.15C490.81 67.15 491.168 67.2833 491.418 67.55C491.685 67.8167 491.818 68.1667 491.818 68.6C491.818 69.0333 491.685 69.3917 491.418 69.675C491.168 69.9583 490.81 70.1 490.343 70.1ZM495.11 57.575C494.943 57.7917 494.76 57.9167 494.56 57.95C494.376 57.9833 494.21 57.95 494.06 57.85C493.926 57.75 493.851 57.6 493.835 57.4C493.818 57.2 493.901 56.9833 494.085 56.75C494.368 56.4 494.56 56.0417 494.66 55.675C494.776 55.2917 494.835 54.95 494.835 54.65L494.935 55.225C494.468 55.225 494.085 55.0917 493.785 54.825C493.501 54.5583 493.36 54.2 493.36 53.75C493.36 53.3167 493.493 52.9667 493.76 52.7C494.026 52.4167 494.385 52.275 494.835 52.275C495.285 52.275 495.643 52.4333 495.91 52.75C496.193 53.05 496.335 53.5 496.335 54.1C496.335 54.45 496.293 54.825 496.21 55.225C496.143 55.6083 496.026 56 495.86 56.4C495.693 56.8 495.443 57.1917 495.11 57.575ZM499.41 57.575C499.243 57.7917 499.06 57.9167 498.86 57.95C498.676 57.9833 498.51 57.95 498.36 57.85C498.226 57.75 498.151 57.6 498.135 57.4C498.118 57.2 498.201 56.9833 498.385 56.75C498.668 56.4 498.86 56.0417 498.96 55.675C499.076 55.2917 499.135 54.95 499.135 54.65L499.235 55.225C498.768 55.225 498.385 55.0917 498.085 54.825C497.801 54.5583 497.66 54.2 497.66 53.75C497.66 53.3167 497.793 52.9667 498.06 52.7C498.326 52.4167 498.685 52.275 499.135 52.275C499.585 52.275 499.943 52.4333 500.21 52.75C500.493 53.05 500.635 53.5 500.635 54.1C500.635 54.45 500.593 54.825 500.51 55.225C500.443 55.6083 500.326 56 500.16 56.4C499.993 56.8 499.743 57.1917 499.41 57.575Z" fill="black"/>
<path d="M205.65 120.725C205.817 120.508 205.992 120.383 206.175 120.35C206.375 120.317 206.542 120.35 206.675 120.45C206.825 120.55 206.908 120.7 206.925 120.9C206.942 121.1 206.858 121.317 206.675 121.55C206.392 121.9 206.192 122.267 206.075 122.65C205.975 123.017 205.925 123.35 205.925 123.65L205.825 123.075C206.292 123.075 206.667 123.217 206.95 123.5C207.25 123.767 207.4 124.125 207.4 124.575C207.4 124.992 207.267 125.342 207 125.625C206.733 125.892 206.375 126.025 205.925 126.025C205.475 126.025 205.108 125.867 204.825 125.55C204.558 125.233 204.425 124.783 204.425 124.2C204.425 123.85 204.458 123.483 204.525 123.1C204.608 122.7 204.733 122.3 204.9 121.9C205.083 121.5 205.333 121.108 205.65 120.725ZM209.95 120.725C210.117 120.508 210.292 120.383 210.475 120.35C210.675 120.317 210.842 120.35 210.975 120.45C211.125 120.55 211.208 120.7 211.225 120.9C211.242 121.1 211.158 121.317 210.975 121.55C210.692 121.9 210.492 122.267 210.375 122.65C210.275 123.017 210.225 123.35 210.225 123.65L210.125 123.075C210.592 123.075 210.967 123.217 211.25 123.5C211.55 123.767 211.7 124.125 211.7 124.575C211.7 124.992 211.567 125.342 211.3 125.625C211.033 125.892 210.675 126.025 210.225 126.025C209.775 126.025 209.408 125.867 209.125 125.55C208.858 125.233 208.725 124.783 208.725 124.2C208.725 123.85 208.758 123.483 208.825 123.1C208.908 122.7 209.033 122.3 209.2 121.9C209.383 121.5 209.633 121.108 209.95 120.725ZM223.557 138.175C223.19 138.175 222.907 138.075 222.707 137.875C222.507 137.675 222.407 137.383 222.407 137V134.325H215.457C215.09 134.325 214.79 134.242 214.557 134.075C214.34 133.908 214.232 133.65 214.232 133.3C214.232 133.1 214.282 132.892 214.382 132.675C214.482 132.458 214.657 132.167 214.907 131.8L222.332 120.975C222.515 120.725 222.707 120.533 222.907 120.4C223.124 120.267 223.365 120.2 223.632 120.2C223.932 120.2 224.182 120.3 224.382 120.5C224.599 120.683 224.707 120.975 224.707 121.375V132.35H226.407C226.774 132.35 227.049 132.433 227.232 132.6C227.415 132.767 227.507 133.008 227.507 133.325C227.507 133.658 227.415 133.908 227.232 134.075C227.049 134.242 226.774 134.325 226.407 134.325H224.707V137C224.707 137.383 224.607 137.675 224.407 137.875C224.207 138.075 223.924 138.175 223.557 138.175ZM222.407 132.35V123.1H223.032L216.282 132.975V132.35H222.407ZM235.622 138.225C234.289 138.225 233.147 138.033 232.197 137.65C231.264 137.267 230.539 136.708 230.022 135.975C229.522 135.242 229.272 134.35 229.272 133.3C229.272 132.483 229.439 131.758 229.772 131.125C230.122 130.475 230.597 129.95 231.197 129.55C231.797 129.15 232.489 128.9 233.272 128.8V129.2C232.172 128.967 231.297 128.458 230.647 127.675C230.014 126.875 229.697 125.933 229.697 124.85C229.697 123.867 229.939 123.025 230.422 122.325C230.922 121.608 231.614 121.067 232.497 120.7C233.38 120.333 234.422 120.15 235.622 120.15C236.839 120.15 237.889 120.333 238.772 120.7C239.655 121.067 240.339 121.608 240.822 122.325C241.305 123.025 241.547 123.867 241.547 124.85C241.547 125.567 241.397 126.233 241.097 126.85C240.814 127.467 240.405 127.975 239.872 128.375C239.355 128.775 238.739 129.05 238.022 129.2V128.8C239.189 128.967 240.139 129.458 240.872 130.275C241.605 131.075 241.972 132.083 241.972 133.3C241.972 134.35 241.714 135.242 241.197 135.975C240.697 136.708 239.972 137.267 239.022 137.65C238.089 138.033 236.955 138.225 235.622 138.225ZM235.622 136.35C236.989 136.35 238.022 136.083 238.722 135.55C239.422 135.017 239.772 134.225 239.772 133.175C239.772 132.108 239.422 131.317 238.722 130.8C238.022 130.283 236.989 130.025 235.622 130.025C234.272 130.025 233.239 130.283 232.522 130.8C231.822 131.317 231.472 132.108 231.472 133.175C231.472 134.225 231.822 135.017 232.522 135.55C233.239 136.083 234.272 136.35 235.622 136.35ZM235.622 128.125C236.405 128.125 237.072 128.008 237.622 127.775C238.172 127.525 238.597 127.167 238.897 126.7C239.197 126.233 239.347 125.683 239.347 125.05C239.347 124.1 239.014 123.358 238.347 122.825C237.697 122.292 236.789 122.025 235.622 122.025C234.455 122.025 233.547 122.292 232.897 122.825C232.247 123.358 231.922 124.1 231.922 125.05C231.922 126.017 232.247 126.775 232.897 127.325C233.547 127.858 234.455 128.125 235.622 128.125ZM250.787 137.975C250.654 138.208 250.487 138.358 250.287 138.425C250.104 138.508 249.921 138.525 249.737 138.475C249.554 138.442 249.396 138.35 249.262 138.2C249.146 138.067 249.079 137.9 249.062 137.7C249.046 137.5 249.096 137.283 249.212 137.05L258.762 120.45C258.896 120.217 259.054 120.058 259.237 119.975C259.421 119.892 259.604 119.875 259.787 119.925C259.971 119.958 260.121 120.05 260.237 120.2C260.371 120.333 260.454 120.5 260.487 120.7C260.521 120.9 260.471 121.117 260.337 121.35L250.787 137.975ZM248.737 130.925C247.387 130.925 246.329 130.45 245.562 129.5C244.812 128.55 244.437 127.225 244.437 125.525C244.437 124.392 244.604 123.425 244.937 122.625C245.287 121.825 245.779 121.217 246.412 120.8C247.062 120.367 247.837 120.15 248.737 120.15C250.071 120.15 251.121 120.625 251.887 121.575C252.654 122.525 253.037 123.842 253.037 125.525C253.037 126.658 252.862 127.633 252.512 128.45C252.179 129.25 251.687 129.867 251.037 130.3C250.404 130.717 249.637 130.925 248.737 130.925ZM248.737 129.3C249.237 129.3 249.662 129.167 250.012 128.9C250.362 128.617 250.629 128.2 250.812 127.65C250.996 127.083 251.087 126.375 251.087 125.525C251.087 124.275 250.879 123.342 250.462 122.725C250.046 122.092 249.471 121.775 248.737 121.775C248.254 121.775 247.829 121.917 247.462 122.2C247.112 122.467 246.837 122.883 246.637 123.45C246.454 124 246.362 124.692 246.362 125.525C246.362 126.792 246.571 127.742 246.987 128.375C247.421 128.992 248.004 129.3 248.737 129.3ZM260.837 138.225C259.487 138.225 258.429 137.75 257.662 136.8C256.912 135.85 256.537 134.525 256.537 132.825C256.537 131.692 256.704 130.725 257.037 129.925C257.387 129.125 257.879 128.517 258.512 128.1C259.162 127.667 259.937 127.45 260.837 127.45C262.171 127.45 263.221 127.925 263.987 128.875C264.754 129.825 265.137 131.142 265.137 132.825C265.137 133.958 264.962 134.933 264.612 135.75C264.279 136.55 263.787 137.167 263.137 137.6C262.504 138.017 261.737 138.225 260.837 138.225ZM260.837 136.6C261.337 136.6 261.762 136.467 262.112 136.2C262.462 135.917 262.729 135.5 262.912 134.95C263.096 134.383 263.187 133.675 263.187 132.825C263.187 131.575 262.979 130.642 262.562 130.025C262.146 129.392 261.571 129.075 260.837 129.075C260.354 129.075 259.929 129.217 259.562 129.5C259.212 129.767 258.937 130.183 258.737 130.75C258.554 131.3 258.462 131.992 258.462 132.825C258.462 134.092 258.671 135.042 259.087 135.675C259.521 136.292 260.104 136.6 260.837 136.6ZM279.946 138.225C278.746 138.225 277.705 137.967 276.821 137.45C275.938 136.933 275.255 136.2 274.771 135.25C274.288 134.3 274.046 133.183 274.046 131.9C274.046 130.933 274.18 130.067 274.446 129.3C274.73 128.517 275.13 127.85 275.646 127.3C276.163 126.75 276.78 126.333 277.496 126.05C278.23 125.75 279.046 125.6 279.946 125.6C281.146 125.6 282.188 125.858 283.071 126.375C283.955 126.892 284.638 127.625 285.121 128.575C285.605 129.508 285.846 130.617 285.846 131.9C285.846 132.867 285.705 133.742 285.421 134.525C285.155 135.308 284.763 135.975 284.246 136.525C283.73 137.075 283.105 137.5 282.371 137.8C281.655 138.083 280.846 138.225 279.946 138.225ZM279.946 136.425C280.68 136.425 281.313 136.25 281.846 135.9C282.396 135.55 282.813 135.042 283.096 134.375C283.396 133.708 283.546 132.883 283.546 131.9C283.546 130.433 283.221 129.317 282.571 128.55C281.921 127.783 281.046 127.4 279.946 127.4C279.23 127.4 278.596 127.575 278.046 127.925C277.513 128.258 277.096 128.758 276.796 129.425C276.496 130.092 276.346 130.917 276.346 131.9C276.346 133.367 276.671 134.492 277.321 135.275C277.988 136.042 278.863 136.425 279.946 136.425ZM290.488 138.175C290.122 138.175 289.838 138.075 289.638 137.875C289.438 137.675 289.338 137.383 289.338 137V127.575H287.838C287.538 127.575 287.305 127.5 287.138 127.35C286.972 127.183 286.888 126.967 286.888 126.7C286.888 126.417 286.972 126.2 287.138 126.05C287.305 125.9 287.538 125.825 287.838 125.825H289.963L289.338 126.425V125.5C289.338 123.883 289.73 122.658 290.513 121.825C291.313 120.975 292.48 120.483 294.013 120.35L294.788 120.3C295.038 120.267 295.238 120.308 295.388 120.425C295.538 120.525 295.638 120.658 295.688 120.825C295.738 120.992 295.738 121.167 295.688 121.35C295.655 121.517 295.58 121.667 295.463 121.8C295.347 121.933 295.197 122.008 295.013 122.025L294.463 122.05C293.463 122.133 292.738 122.433 292.288 122.95C291.838 123.45 291.613 124.2 291.613 125.2V126.2L291.288 125.825H294.163C294.48 125.825 294.722 125.9 294.888 126.05C295.055 126.2 295.138 126.417 295.138 126.7C295.138 126.967 295.055 127.183 294.888 127.35C294.722 127.5 294.48 127.575 294.163 127.575H291.613V137C291.613 137.783 291.238 138.175 290.488 138.175ZM304.778 142.675C304.428 142.675 304.153 142.575 303.953 142.375C303.753 142.175 303.653 141.892 303.653 141.525V126.8C303.653 126.417 303.753 126.133 303.953 125.95C304.153 125.75 304.428 125.65 304.778 125.65C305.145 125.65 305.42 125.75 305.603 125.95C305.803 126.133 305.903 126.417 305.903 126.8V129.075L305.628 128.625C305.895 127.708 306.42 126.975 307.203 126.425C307.986 125.875 308.928 125.6 310.028 125.6C311.111 125.6 312.053 125.858 312.853 126.375C313.653 126.875 314.278 127.6 314.728 128.55C315.178 129.483 315.403 130.6 315.403 131.9C315.403 133.183 315.178 134.308 314.728 135.275C314.295 136.225 313.67 136.958 312.853 137.475C312.053 137.975 311.111 138.225 310.028 138.225C308.945 138.225 308.011 137.95 307.228 137.4C306.445 136.85 305.92 136.125 305.653 135.225H305.928V141.525C305.928 141.892 305.828 142.175 305.628 142.375C305.428 142.575 305.145 142.675 304.778 142.675ZM309.503 136.425C310.22 136.425 310.845 136.25 311.378 135.9C311.928 135.55 312.353 135.042 312.653 134.375C312.953 133.708 313.103 132.883 313.103 131.9C313.103 130.433 312.778 129.317 312.128 128.55C311.478 127.783 310.603 127.4 309.503 127.4C308.77 127.4 308.128 127.575 307.578 127.925C307.045 128.258 306.628 128.758 306.328 129.425C306.045 130.092 305.903 130.917 305.903 131.9C305.903 133.367 306.228 134.492 306.878 135.275C307.528 136.042 308.403 136.425 309.503 136.425ZM322.201 138.225C321.368 138.225 320.609 138.058 319.926 137.725C319.259 137.392 318.734 136.942 318.351 136.375C317.984 135.808 317.801 135.175 317.801 134.475C317.801 133.575 318.026 132.867 318.476 132.35C318.926 131.833 319.684 131.467 320.751 131.25C321.818 131.017 323.251 130.9 325.051 130.9H326.226V132.35H325.101C323.818 132.35 322.801 132.408 322.051 132.525C321.318 132.642 320.801 132.85 320.501 133.15C320.201 133.433 320.051 133.833 320.051 134.35C320.051 135 320.276 135.533 320.726 135.95C321.193 136.367 321.826 136.575 322.626 136.575C323.259 136.575 323.818 136.425 324.301 136.125C324.784 135.808 325.168 135.392 325.451 134.875C325.734 134.342 325.876 133.733 325.876 133.05V130.175C325.876 129.192 325.676 128.483 325.276 128.05C324.876 127.6 324.201 127.375 323.251 127.375C322.701 127.375 322.134 127.45 321.551 127.6C320.968 127.75 320.359 127.983 319.726 128.3C319.476 128.417 319.259 128.458 319.076 128.425C318.893 128.375 318.743 128.275 318.626 128.125C318.526 127.958 318.468 127.783 318.451 127.6C318.451 127.4 318.493 127.208 318.576 127.025C318.676 126.842 318.843 126.708 319.076 126.625C319.809 126.258 320.534 126 321.251 125.85C321.984 125.683 322.668 125.6 323.301 125.6C324.384 125.6 325.276 125.775 325.976 126.125C326.676 126.458 327.201 126.983 327.551 127.7C327.901 128.4 328.076 129.3 328.076 130.4V137C328.076 137.383 327.984 137.675 327.801 137.875C327.618 138.075 327.351 138.175 327.001 138.175C326.668 138.175 326.401 138.075 326.201 137.875C326.018 137.675 325.926 137.383 325.926 137V135.225H326.151C326.018 135.842 325.768 136.375 325.401 136.825C325.034 137.275 324.576 137.625 324.026 137.875C323.493 138.108 322.884 138.225 322.201 138.225ZM332.831 138.175C332.448 138.175 332.156 138.075 331.956 137.875C331.756 137.675 331.656 137.383 331.656 137V126.8C331.656 126.417 331.756 126.133 331.956 125.95C332.156 125.75 332.431 125.65 332.781 125.65C333.131 125.65 333.398 125.75 333.581 125.95C333.781 126.133 333.881 126.417 333.881 126.8V128.725H333.631C333.898 127.725 334.398 126.967 335.131 126.45C335.864 125.933 336.789 125.642 337.906 125.575C338.173 125.558 338.389 125.625 338.556 125.775C338.723 125.908 338.814 126.142 338.831 126.475C338.848 126.792 338.773 127.05 338.606 127.25C338.439 127.433 338.181 127.542 337.831 127.575L337.381 127.6C336.281 127.717 335.431 128.075 334.831 128.675C334.248 129.275 333.956 130.1 333.956 131.15V137C333.956 137.383 333.856 137.675 333.656 137.875C333.473 138.075 333.198 138.175 332.831 138.175ZM346.241 138.225C344.924 138.225 343.791 137.975 342.841 137.475C341.908 136.958 341.183 136.233 340.666 135.3C340.149 134.35 339.891 133.233 339.891 131.95C339.891 130.683 340.141 129.575 340.641 128.625C341.158 127.675 341.858 126.933 342.741 126.4C343.641 125.867 344.666 125.6 345.816 125.6C346.633 125.6 347.366 125.742 348.016 126.025C348.683 126.292 349.249 126.683 349.716 127.2C350.183 127.717 350.533 128.35 350.766 129.1C351.016 129.833 351.141 130.667 351.141 131.6C351.141 131.867 351.058 132.075 350.891 132.225C350.741 132.358 350.516 132.425 350.216 132.425H341.666V130.975H349.641L349.216 131.325C349.216 130.458 349.083 129.725 348.816 129.125C348.566 128.508 348.191 128.042 347.691 127.725C347.208 127.408 346.599 127.25 345.866 127.25C345.066 127.25 344.383 127.442 343.816 127.825C343.249 128.192 342.816 128.717 342.516 129.4C342.216 130.067 342.066 130.842 342.066 131.725V131.875C342.066 133.375 342.424 134.508 343.141 135.275C343.858 136.042 344.891 136.425 346.241 136.425C346.774 136.425 347.316 136.358 347.866 136.225C348.433 136.092 348.974 135.85 349.491 135.5C349.741 135.35 349.966 135.283 350.166 135.3C350.383 135.3 350.558 135.367 350.691 135.5C350.824 135.617 350.908 135.767 350.941 135.95C350.974 136.117 350.949 136.3 350.866 136.5C350.783 136.7 350.624 136.875 350.391 137.025C349.841 137.408 349.183 137.708 348.416 137.925C347.666 138.125 346.941 138.225 346.241 138.225ZM355.096 138.175C354.746 138.175 354.471 138.075 354.271 137.875C354.071 137.675 353.971 137.383 353.971 137V126.8C353.971 126.417 354.071 126.133 354.271 125.95C354.471 125.75 354.746 125.65 355.096 125.65C355.446 125.65 355.712 125.75 355.896 125.95C356.096 126.133 356.196 126.417 356.196 126.8V128.85L355.921 128.475C356.271 127.525 356.837 126.808 357.621 126.325C358.421 125.842 359.329 125.6 360.346 125.6C361.329 125.6 362.137 125.775 362.771 126.125C363.404 126.475 363.879 127.008 364.196 127.725C364.512 128.442 364.671 129.35 364.671 130.45V137C364.671 137.383 364.571 137.675 364.371 137.875C364.187 138.075 363.912 138.175 363.546 138.175C363.179 138.175 362.896 138.075 362.696 137.875C362.496 137.675 362.396 137.383 362.396 137V130.575C362.396 129.492 362.187 128.7 361.771 128.2C361.354 127.7 360.687 127.45 359.771 127.45C358.704 127.45 357.846 127.783 357.196 128.45C356.562 129.1 356.246 129.983 356.246 131.1V137C356.246 137.783 355.862 138.175 355.096 138.175ZM373.327 138.225C372.344 138.225 371.519 138.05 370.852 137.7C370.202 137.35 369.71 136.842 369.377 136.175C369.06 135.508 368.902 134.692 368.902 133.725V127.575H367.302C367.002 127.575 366.769 127.5 366.602 127.35C366.435 127.183 366.352 126.967 366.352 126.7C366.352 126.417 366.435 126.2 366.602 126.05C366.769 125.9 367.002 125.825 367.302 125.825H368.902V123.1C368.902 122.717 369.002 122.433 369.202 122.25C369.402 122.05 369.685 121.95 370.052 121.95C370.419 121.95 370.694 122.05 370.877 122.25C371.077 122.433 371.177 122.717 371.177 123.1V125.825H374.202C374.519 125.825 374.76 125.9 374.927 126.05C375.094 126.2 375.177 126.417 375.177 126.7C375.177 126.967 375.094 127.183 374.927 127.35C374.76 127.5 374.519 127.575 374.202 127.575H371.177V133.525C371.177 134.442 371.369 135.133 371.752 135.6C372.135 136.067 372.769 136.3 373.652 136.3C373.969 136.3 374.235 136.275 374.452 136.225C374.669 136.158 374.86 136.125 375.027 136.125C375.177 136.108 375.302 136.158 375.402 136.275C375.519 136.392 375.577 136.608 375.577 136.925C375.577 137.158 375.535 137.375 375.452 137.575C375.385 137.758 375.244 137.883 375.027 137.95C374.827 138.017 374.56 138.075 374.227 138.125C373.894 138.192 373.594 138.225 373.327 138.225ZM381.437 138.225C380.687 138.225 379.929 138.142 379.162 137.975C378.412 137.792 377.704 137.483 377.037 137.05C376.854 136.933 376.72 136.792 376.637 136.625C376.57 136.442 376.545 136.267 376.562 136.1C376.595 135.917 376.67 135.758 376.787 135.625C376.904 135.492 377.045 135.417 377.212 135.4C377.395 135.367 377.587 135.408 377.787 135.525C378.437 135.892 379.062 136.15 379.662 136.3C380.279 136.45 380.887 136.525 381.487 136.525C382.404 136.525 383.095 136.358 383.562 136.025C384.029 135.692 384.262 135.25 384.262 134.7C384.262 134.233 384.104 133.875 383.787 133.625C383.487 133.358 383.012 133.158 382.362 133.025L380.037 132.55C379.004 132.317 378.22 131.933 377.687 131.4C377.17 130.85 376.912 130.15 376.912 129.3C376.912 128.55 377.112 127.9 377.512 127.35C377.929 126.783 378.504 126.35 379.237 126.05C379.97 125.75 380.812 125.6 381.762 125.6C382.495 125.6 383.187 125.7 383.837 125.9C384.504 126.083 385.104 126.367 385.637 126.75C385.837 126.867 385.962 127.017 386.012 127.2C386.079 127.367 386.087 127.542 386.037 127.725C386.004 127.892 385.929 128.033 385.812 128.15C385.695 128.267 385.545 128.342 385.362 128.375C385.179 128.392 384.979 128.342 384.762 128.225C384.279 127.892 383.779 127.658 383.262 127.525C382.762 127.375 382.262 127.3 381.762 127.3C380.862 127.3 380.179 127.475 379.712 127.825C379.262 128.175 379.037 128.633 379.037 129.2C379.037 129.633 379.17 129.992 379.437 130.275C379.72 130.558 380.162 130.767 380.762 130.9L383.087 131.375C384.17 131.608 384.987 131.983 385.537 132.5C386.087 133 386.362 133.683 386.362 134.55C386.362 135.683 385.912 136.583 385.012 137.25C384.129 137.9 382.937 138.225 381.437 138.225ZM397.691 138.175C397.324 138.175 397.041 138.075 396.841 137.875C396.641 137.675 396.541 137.383 396.541 137V127.575H395.041C394.741 127.575 394.507 127.5 394.341 127.35C394.174 127.183 394.091 126.967 394.091 126.7C394.091 126.417 394.174 126.2 394.341 126.05C394.507 125.9 394.741 125.825 395.041 125.825H397.166L396.541 126.425V125.5C396.541 123.883 396.932 122.658 397.716 121.825C398.516 120.975 399.682 120.483 401.216 120.35L401.991 120.3C402.241 120.267 402.441 120.308 402.591 120.425C402.741 120.525 402.841 120.658 402.891 120.825C402.941 120.992 402.941 121.167 402.891 121.35C402.857 121.517 402.782 121.667 402.666 121.8C402.549 121.933 402.399 122.008 402.216 122.025L401.666 122.05C400.666 122.133 399.941 122.433 399.491 122.95C399.041 123.45 398.816 124.2 398.816 125.2V126.2L398.491 125.825H401.366C401.682 125.825 401.924 125.9 402.091 126.05C402.257 126.2 402.341 126.417 402.341 126.7C402.341 126.967 402.257 127.183 402.091 127.35C401.924 127.5 401.682 127.575 401.366 127.575H398.816V137C398.816 137.783 398.441 138.175 397.691 138.175ZM409.62 138.225C408.303 138.225 407.17 137.975 406.22 137.475C405.287 136.958 404.562 136.233 404.045 135.3C403.528 134.35 403.27 133.233 403.27 131.95C403.27 130.683 403.52 129.575 404.02 128.625C404.537 127.675 405.237 126.933 406.12 126.4C407.02 125.867 408.045 125.6 409.195 125.6C410.012 125.6 410.745 125.742 411.395 126.025C412.062 126.292 412.628 126.683 413.095 127.2C413.562 127.717 413.912 128.35 414.145 129.1C414.395 129.833 414.52 130.667 414.52 131.6C414.52 131.867 414.437 132.075 414.27 132.225C414.12 132.358 413.895 132.425 413.595 132.425H405.045V130.975H413.02L412.595 131.325C412.595 130.458 412.462 129.725 412.195 129.125C411.945 128.508 411.57 128.042 411.07 127.725C410.587 127.408 409.978 127.25 409.245 127.25C408.445 127.25 407.762 127.442 407.195 127.825C406.628 128.192 406.195 128.717 405.895 129.4C405.595 130.067 405.445 130.842 405.445 131.725V131.875C405.445 133.375 405.803 134.508 406.52 135.275C407.237 136.042 408.27 136.425 409.62 136.425C410.153 136.425 410.695 136.358 411.245 136.225C411.812 136.092 412.353 135.85 412.87 135.5C413.12 135.35 413.345 135.283 413.545 135.3C413.762 135.3 413.937 135.367 414.07 135.5C414.203 135.617 414.287 135.767 414.32 135.95C414.353 136.117 414.328 136.3 414.245 136.5C414.162 136.7 414.003 136.875 413.77 137.025C413.22 137.408 412.562 137.708 411.795 137.925C411.045 138.125 410.32 138.225 409.62 138.225ZM422.974 138.225C421.658 138.225 420.524 137.975 419.574 137.475C418.641 136.958 417.916 136.233 417.399 135.3C416.883 134.35 416.624 133.233 416.624 131.95C416.624 130.683 416.874 129.575 417.374 128.625C417.891 127.675 418.591 126.933 419.474 126.4C420.374 125.867 421.399 125.6 422.549 125.6C423.366 125.6 424.099 125.742 424.749 126.025C425.416 126.292 425.983 126.683 426.449 127.2C426.916 127.717 427.266 128.35 427.499 129.1C427.749 129.833 427.874 130.667 427.874 131.6C427.874 131.867 427.791 132.075 427.624 132.225C427.474 132.358 427.249 132.425 426.949 132.425H418.399V130.975H426.374L425.949 131.325C425.949 130.458 425.816 129.725 425.549 129.125C425.299 128.508 424.924 128.042 424.424 127.725C423.941 127.408 423.333 127.25 422.599 127.25C421.799 127.25 421.116 127.442 420.549 127.825C419.983 128.192 419.549 128.717 419.249 129.4C418.949 130.067 418.799 130.842 418.799 131.725V131.875C418.799 133.375 419.158 134.508 419.874 135.275C420.591 136.042 421.624 136.425 422.974 136.425C423.508 136.425 424.049 136.358 424.599 136.225C425.166 136.092 425.708 135.85 426.224 135.5C426.474 135.35 426.699 135.283 426.899 135.3C427.116 135.3 427.291 135.367 427.424 135.5C427.558 135.617 427.641 135.767 427.674 135.95C427.708 136.117 427.683 136.3 427.599 136.5C427.516 136.7 427.358 136.875 427.124 137.025C426.574 137.408 425.916 137.708 425.149 137.925C424.399 138.125 423.674 138.225 422.974 138.225ZM434.529 138.225C433.279 138.225 432.329 137.858 431.679 137.125C431.029 136.375 430.704 135.3 430.704 133.9V121.35C430.704 120.967 430.804 120.683 431.004 120.5C431.204 120.3 431.479 120.2 431.829 120.2C432.196 120.2 432.479 120.3 432.679 120.5C432.879 120.683 432.979 120.967 432.979 121.35V133.725C432.979 134.592 433.154 135.242 433.504 135.675C433.871 136.092 434.387 136.3 435.054 136.3C435.204 136.3 435.337 136.3 435.454 136.3C435.571 136.283 435.687 136.267 435.804 136.25C435.987 136.233 436.121 136.283 436.204 136.4C436.287 136.517 436.329 136.75 436.329 137.1C436.329 137.417 436.254 137.667 436.104 137.85C435.971 138.017 435.746 138.125 435.429 138.175C435.279 138.192 435.129 138.2 434.979 138.2C434.829 138.217 434.679 138.225 434.529 138.225ZM449.092 138.225C448.109 138.225 447.284 138.042 446.617 137.675C445.967 137.308 445.484 136.767 445.167 136.05C444.85 135.333 444.692 134.433 444.692 133.35V126.8C444.692 126.417 444.784 126.133 444.967 125.95C445.167 125.75 445.45 125.65 445.817 125.65C446.184 125.65 446.467 125.75 446.667 125.95C446.867 126.133 446.967 126.417 446.967 126.8V133.35C446.967 134.383 447.175 135.15 447.592 135.65C448.009 136.133 448.667 136.375 449.567 136.375C450.567 136.375 451.375 136.042 451.992 135.375C452.625 134.708 452.942 133.825 452.942 132.725V126.8C452.942 126.417 453.034 126.133 453.217 125.95C453.417 125.75 453.7 125.65 454.067 125.65C454.434 125.65 454.717 125.75 454.917 125.95C455.117 126.133 455.217 126.417 455.217 126.8V137C455.217 137.783 454.85 138.175 454.117 138.175C453.75 138.175 453.467 138.075 453.267 137.875C453.084 137.675 452.992 137.383 452.992 137V134.825L453.317 135.25C452.984 136.217 452.442 136.958 451.692 137.475C450.959 137.975 450.092 138.225 449.092 138.225ZM460.003 138.175C459.653 138.175 459.378 138.075 459.178 137.875C458.978 137.675 458.878 137.383 458.878 137V126.8C458.878 126.417 458.978 126.133 459.178 125.95C459.378 125.75 459.653 125.65 460.003 125.65C460.353 125.65 460.619 125.75 460.803 125.95C461.003 126.133 461.103 126.417 461.103 126.8V128.85L460.828 128.475C461.178 127.525 461.744 126.808 462.528 126.325C463.328 125.842 464.236 125.6 465.253 125.6C466.236 125.6 467.044 125.775 467.678 126.125C468.311 126.475 468.786 127.008 469.103 127.725C469.419 128.442 469.578 129.35 469.578 130.45V137C469.578 137.383 469.478 137.675 469.278 137.875C469.094 138.075 468.819 138.175 468.453 138.175C468.086 138.175 467.803 138.075 467.603 137.875C467.403 137.675 467.303 137.383 467.303 137V130.575C467.303 129.492 467.094 128.7 466.678 128.2C466.261 127.7 465.594 127.45 464.678 127.45C463.611 127.45 462.753 127.783 462.103 128.45C461.469 129.1 461.153 129.983 461.153 131.1V137C461.153 137.783 460.769 138.175 460.003 138.175ZM477.384 138.225C476.634 138.225 475.876 138.142 475.109 137.975C474.359 137.792 473.651 137.483 472.984 137.05C472.801 136.933 472.668 136.792 472.584 136.625C472.518 136.442 472.493 136.267 472.509 136.1C472.543 135.917 472.618 135.758 472.734 135.625C472.851 135.492 472.993 135.417 473.159 135.4C473.343 135.367 473.534 135.408 473.734 135.525C474.384 135.892 475.009 136.15 475.609 136.3C476.226 136.45 476.834 136.525 477.434 136.525C478.351 136.525 479.043 136.358 479.509 136.025C479.976 135.692 480.209 135.25 480.209 134.7C480.209 134.233 480.051 133.875 479.734 133.625C479.434 133.358 478.959 133.158 478.309 133.025L475.984 132.55C474.951 132.317 474.168 131.933 473.634 131.4C473.118 130.85 472.859 130.15 472.859 129.3C472.859 128.55 473.059 127.9 473.459 127.35C473.876 126.783 474.451 126.35 475.184 126.05C475.918 125.75 476.759 125.6 477.709 125.6C478.443 125.6 479.134 125.7 479.784 125.9C480.451 126.083 481.051 126.367 481.584 126.75C481.784 126.867 481.909 127.017 481.959 127.2C482.026 127.367 482.034 127.542 481.984 127.725C481.951 127.892 481.876 128.033 481.759 128.15C481.643 128.267 481.493 128.342 481.309 128.375C481.126 128.392 480.926 128.342 480.709 128.225C480.226 127.892 479.726 127.658 479.209 127.525C478.709 127.375 478.209 127.3 477.709 127.3C476.809 127.3 476.126 127.475 475.659 127.825C475.209 128.175 474.984 128.633 474.984 129.2C474.984 129.633 475.118 129.992 475.384 130.275C475.668 130.558 476.109 130.767 476.709 130.9L479.034 131.375C480.118 131.608 480.934 131.983 481.484 132.5C482.034 133 482.309 133.683 482.309 134.55C482.309 135.683 481.859 136.583 480.959 137.25C480.076 137.9 478.884 138.225 477.384 138.225ZM489.619 138.225C488.636 138.225 487.811 138.042 487.144 137.675C486.494 137.308 486.011 136.767 485.694 136.05C485.378 135.333 485.219 134.433 485.219 133.35V126.8C485.219 126.417 485.311 126.133 485.494 125.95C485.694 125.75 485.978 125.65 486.344 125.65C486.711 125.65 486.994 125.75 487.194 125.95C487.394 126.133 487.494 126.417 487.494 126.8V133.35C487.494 134.383 487.703 135.15 488.119 135.65C488.536 136.133 489.194 136.375 490.094 136.375C491.094 136.375 491.903 136.042 492.519 135.375C493.153 134.708 493.469 133.825 493.469 132.725V126.8C493.469 126.417 493.561 126.133 493.744 125.95C493.944 125.75 494.228 125.65 494.594 125.65C494.961 125.65 495.244 125.75 495.444 125.95C495.644 126.133 495.744 126.417 495.744 126.8V137C495.744 137.783 495.378 138.175 494.644 138.175C494.278 138.175 493.994 138.075 493.794 137.875C493.611 137.675 493.519 137.383 493.519 137V134.825L493.844 135.25C493.511 136.217 492.969 136.958 492.219 137.475C491.486 137.975 490.619 138.225 489.619 138.225ZM500.53 142.675C500.18 142.675 499.905 142.575 499.705 142.375C499.505 142.175 499.405 141.892 499.405 141.525V126.8C499.405 126.417 499.505 126.133 499.705 125.95C499.905 125.75 500.18 125.65 500.53 125.65C500.897 125.65 501.172 125.75 501.355 125.95C501.555 126.133 501.655 126.417 501.655 126.8V129.075L501.38 128.625C501.647 127.708 502.172 126.975 502.955 126.425C503.738 125.875 504.68 125.6 505.78 125.6C506.863 125.6 507.805 125.858 508.605 126.375C509.405 126.875 510.03 127.6 510.48 128.55C510.93 129.483 511.155 130.6 511.155 131.9C511.155 133.183 510.93 134.308 510.48 135.275C510.047 136.225 509.422 136.958 508.605 137.475C507.805 137.975 506.863 138.225 505.78 138.225C504.697 138.225 503.763 137.95 502.98 137.4C502.197 136.85 501.672 136.125 501.405 135.225H501.68V141.525C501.68 141.892 501.58 142.175 501.38 142.375C501.18 142.575 500.897 142.675 500.53 142.675ZM505.255 136.425C505.972 136.425 506.597 136.25 507.13 135.9C507.68 135.55 508.105 135.042 508.405 134.375C508.705 133.708 508.855 132.883 508.855 131.9C508.855 130.433 508.53 129.317 507.88 128.55C507.23 127.783 506.355 127.4 505.255 127.4C504.522 127.4 503.88 127.575 503.33 127.925C502.797 128.258 502.38 128.758 502.08 129.425C501.797 130.092 501.655 130.917 501.655 131.9C501.655 133.367 501.98 134.492 502.63 135.275C503.28 136.042 504.155 136.425 505.255 136.425ZM515.203 142.675C514.853 142.675 514.578 142.575 514.378 142.375C514.178 142.175 514.078 141.892 514.078 141.525V126.8C514.078 126.417 514.178 126.133 514.378 125.95C514.578 125.75 514.853 125.65 515.203 125.65C515.57 125.65 515.845 125.75 516.028 125.95C516.228 126.133 516.328 126.417 516.328 126.8V129.075L516.053 128.625C516.32 127.708 516.845 126.975 517.628 126.425C518.411 125.875 519.353 125.6 520.453 125.6C521.536 125.6 522.478 125.858 523.278 126.375C524.078 126.875 524.703 127.6 525.153 128.55C525.603 129.483 525.828 130.6 525.828 131.9C525.828 133.183 525.603 134.308 525.153 135.275C524.72 136.225 524.095 136.958 523.278 137.475C522.478 137.975 521.536 138.225 520.453 138.225C519.37 138.225 518.436 137.95 517.653 137.4C516.87 136.85 516.345 136.125 516.078 135.225H516.353V141.525C516.353 141.892 516.253 142.175 516.053 142.375C515.853 142.575 515.57 142.675 515.203 142.675ZM519.928 136.425C520.645 136.425 521.27 136.25 521.803 135.9C522.353 135.55 522.778 135.042 523.078 134.375C523.378 133.708 523.528 132.883 523.528 131.9C523.528 130.433 523.203 129.317 522.553 128.55C521.903 127.783 521.028 127.4 519.928 127.4C519.195 127.4 518.553 127.575 518.003 127.925C517.47 128.258 517.053 128.758 516.753 129.425C516.47 130.092 516.328 130.917 516.328 131.9C516.328 133.367 516.653 134.492 517.303 135.275C517.953 136.042 518.828 136.425 519.928 136.425ZM533.926 138.225C532.726 138.225 531.684 137.967 530.801 137.45C529.917 136.933 529.234 136.2 528.751 135.25C528.267 134.3 528.026 133.183 528.026 131.9C528.026 130.933 528.159 130.067 528.426 129.3C528.709 128.517 529.109 127.85 529.626 127.3C530.142 126.75 530.759 126.333 531.476 126.05C532.209 125.75 533.026 125.6 533.926 125.6C535.126 125.6 536.167 125.858 537.051 126.375C537.934 126.892 538.617 127.625 539.101 128.575C539.584 129.508 539.826 130.617 539.826 131.9C539.826 132.867 539.684 133.742 539.401 134.525C539.134 135.308 538.742 135.975 538.226 136.525C537.709 137.075 537.084 137.5 536.351 137.8C535.634 138.083 534.826 138.225 533.926 138.225ZM533.926 136.425C534.659 136.425 535.292 136.25 535.826 135.9C536.376 135.55 536.792 135.042 537.076 134.375C537.376 133.708 537.526 132.883 537.526 131.9C537.526 130.433 537.201 129.317 536.551 128.55C535.901 127.783 535.026 127.4 533.926 127.4C533.209 127.4 532.576 127.575 532.026 127.925C531.492 128.258 531.076 128.758 530.776 129.425C530.476 130.092 530.326 130.917 530.326 131.9C530.326 133.367 530.651 134.492 531.301 135.275C531.967 136.042 532.842 136.425 533.926 136.425ZM543.915 138.175C543.532 138.175 543.24 138.075 543.04 137.875C542.84 137.675 542.74 137.383 542.74 137V126.8C542.74 126.417 542.84 126.133 543.04 125.95C543.24 125.75 543.515 125.65 543.865 125.65C544.215 125.65 544.482 125.75 544.665 125.95C544.865 126.133 544.965 126.417 544.965 126.8V128.725H544.715C544.982 127.725 545.482 126.967 546.215 126.45C546.948 125.933 547.873 125.642 548.99 125.575C549.257 125.558 549.473 125.625 549.64 125.775C549.807 125.908 549.898 126.142 549.915 126.475C549.932 126.792 549.857 127.05 549.69 127.25C549.523 127.433 549.265 127.542 548.915 127.575L548.465 127.6C547.365 127.717 546.515 128.075 545.915 128.675C545.332 129.275 545.04 130.1 545.04 131.15V137C545.04 137.383 544.94 137.675 544.74 137.875C544.557 138.075 544.282 138.175 543.915 138.175ZM557.604 138.225C556.621 138.225 555.796 138.05 555.129 137.7C554.479 137.35 553.988 136.842 553.654 136.175C553.338 135.508 553.179 134.692 553.179 133.725V127.575H551.579C551.279 127.575 551.046 127.5 550.879 127.35C550.713 127.183 550.629 126.967 550.629 126.7C550.629 126.417 550.713 126.2 550.879 126.05C551.046 125.9 551.279 125.825 551.579 125.825H553.179V123.1C553.179 122.717 553.279 122.433 553.479 122.25C553.679 122.05 553.963 121.95 554.329 121.95C554.696 121.95 554.971 122.05 555.154 122.25C555.354 122.433 555.454 122.717 555.454 123.1V125.825H558.479C558.796 125.825 559.038 125.9 559.204 126.05C559.371 126.2 559.454 126.417 559.454 126.7C559.454 126.967 559.371 127.183 559.204 127.35C559.038 127.5 558.796 127.575 558.479 127.575H555.454V133.525C555.454 134.442 555.646 135.133 556.029 135.6C556.413 136.067 557.046 136.3 557.929 136.3C558.246 136.3 558.513 136.275 558.729 136.225C558.946 136.158 559.138 136.125 559.304 136.125C559.454 136.108 559.579 136.158 559.679 136.275C559.796 136.392 559.854 136.608 559.854 136.925C559.854 137.158 559.813 137.375 559.729 137.575C559.663 137.758 559.521 137.883 559.304 137.95C559.104 138.017 558.838 138.075 558.504 138.125C558.171 138.192 557.871 138.225 557.604 138.225ZM567.017 138.225C565.701 138.225 564.567 137.975 563.617 137.475C562.684 136.958 561.959 136.233 561.442 135.3C560.926 134.35 560.667 133.233 560.667 131.95C560.667 130.683 560.917 129.575 561.417 128.625C561.934 127.675 562.634 126.933 563.517 126.4C564.417 125.867 565.442 125.6 566.592 125.6C567.409 125.6 568.142 125.742 568.792 126.025C569.459 126.292 570.026 126.683 570.492 127.2C570.959 127.717 571.309 128.35 571.542 129.1C571.792 129.833 571.917 130.667 571.917 131.6C571.917 131.867 571.834 132.075 571.667 132.225C571.517 132.358 571.292 132.425 570.992 132.425H562.442V130.975H570.417L569.992 131.325C569.992 130.458 569.859 129.725 569.592 129.125C569.342 128.508 568.967 128.042 568.467 127.725C567.984 127.408 567.376 127.25 566.642 127.25C565.842 127.25 565.159 127.442 564.592 127.825C564.026 128.192 563.592 128.717 563.292 129.4C562.992 130.067 562.842 130.842 562.842 131.725V131.875C562.842 133.375 563.201 134.508 563.917 135.275C564.634 136.042 565.667 136.425 567.017 136.425C567.551 136.425 568.092 136.358 568.642 136.225C569.209 136.092 569.751 135.85 570.267 135.5C570.517 135.35 570.742 135.283 570.942 135.3C571.159 135.3 571.334 135.367 571.467 135.5C571.601 135.617 571.684 135.767 571.717 135.95C571.751 136.117 571.726 136.3 571.642 136.5C571.559 136.7 571.401 136.875 571.167 137.025C570.617 137.408 569.959 137.708 569.192 137.925C568.442 138.125 567.717 138.225 567.017 138.225ZM579.397 138.225C578.33 138.225 577.389 137.975 576.572 137.475C575.772 136.958 575.147 136.225 574.697 135.275C574.247 134.308 574.022 133.183 574.022 131.9C574.022 130.6 574.239 129.483 574.672 128.55C575.122 127.6 575.747 126.875 576.547 126.375C577.364 125.858 578.314 125.6 579.397 125.6C580.48 125.6 581.414 125.875 582.197 126.425C582.98 126.958 583.505 127.675 583.772 128.575H583.497V121.35C583.497 120.967 583.589 120.683 583.772 120.5C583.972 120.3 584.255 120.2 584.622 120.2C584.989 120.2 585.272 120.3 585.472 120.5C585.672 120.683 585.772 120.967 585.772 121.35V137C585.772 137.383 585.672 137.675 585.472 137.875C585.272 138.075 584.989 138.175 584.622 138.175C584.272 138.175 583.997 138.075 583.797 137.875C583.597 137.675 583.497 137.383 583.497 137V134.725L583.772 135.175C583.522 136.108 582.997 136.85 582.197 137.4C581.414 137.95 580.48 138.225 579.397 138.225ZM579.922 136.425C580.655 136.425 581.289 136.25 581.822 135.9C582.372 135.55 582.789 135.042 583.072 134.375C583.372 133.708 583.522 132.883 583.522 131.9C583.522 130.433 583.197 129.317 582.547 128.55C581.897 127.783 581.022 127.4 579.922 127.4C579.205 127.4 578.572 127.575 578.022 127.925C577.489 128.258 577.072 128.758 576.772 129.425C576.472 130.092 576.322 130.917 576.322 131.9C576.322 133.367 576.647 134.492 577.297 135.275C577.964 136.042 578.839 136.425 579.922 136.425ZM597.063 138.125C596.713 138.125 596.438 138.017 596.238 137.8C596.038 137.583 595.938 137.283 595.938 136.9V126.925C595.938 126.525 596.038 126.225 596.238 126.025C596.438 125.808 596.713 125.7 597.063 125.7C597.43 125.7 597.713 125.808 597.913 126.025C598.113 126.225 598.213 126.525 598.213 126.925V136.9C598.213 137.283 598.113 137.583 597.913 137.8C597.73 138.017 597.447 138.125 597.063 138.125ZM597.063 123C596.613 123 596.255 122.883 595.988 122.65C595.738 122.4 595.613 122.075 595.613 121.675C595.613 121.242 595.738 120.917 595.988 120.7C596.255 120.467 596.613 120.35 597.063 120.35C597.547 120.35 597.905 120.467 598.138 120.7C598.388 120.917 598.513 121.242 598.513 121.675C598.513 122.075 598.388 122.4 598.138 122.65C597.905 122.883 597.547 123 597.063 123ZM602.996 138.175C602.646 138.175 602.371 138.075 602.171 137.875C601.971 137.675 601.871 137.383 601.871 137V126.8C601.871 126.417 601.971 126.133 602.171 125.95C602.371 125.75 602.646 125.65 602.996 125.65C603.346 125.65 603.613 125.75 603.796 125.95C603.996 126.133 604.096 126.417 604.096 126.8V128.85L603.821 128.475C604.171 127.525 604.738 126.808 605.521 126.325C606.321 125.842 607.229 125.6 608.246 125.6C609.229 125.6 610.038 125.775 610.671 126.125C611.304 126.475 611.779 127.008 612.096 127.725C612.413 128.442 612.571 129.35 612.571 130.45V137C612.571 137.383 612.471 137.675 612.271 137.875C612.088 138.075 611.813 138.175 611.446 138.175C611.079 138.175 610.796 138.075 610.596 137.875C610.396 137.675 610.296 137.383 610.296 137V130.575C610.296 129.492 610.088 128.7 609.671 128.2C609.254 127.7 608.588 127.45 607.671 127.45C606.604 127.45 605.746 127.783 605.096 128.45C604.463 129.1 604.146 129.983 604.146 131.1V137C604.146 137.783 603.763 138.175 602.996 138.175ZM627.746 138.225C626.763 138.225 625.938 138.05 625.271 137.7C624.621 137.35 624.129 136.842 623.796 136.175C623.479 135.508 623.321 134.692 623.321 133.725V127.575H621.721C621.421 127.575 621.188 127.5 621.021 127.35C620.854 127.183 620.771 126.967 620.771 126.7C620.771 126.417 620.854 126.2 621.021 126.05C621.188 125.9 621.421 125.825 621.721 125.825H623.321V123.1C623.321 122.717 623.421 122.433 623.621 122.25C623.821 122.05 624.104 121.95 624.471 121.95C624.838 121.95 625.113 122.05 625.296 122.25C625.496 122.433 625.596 122.717 625.596 123.1V125.825H628.621C628.938 125.825 629.179 125.9 629.346 126.05C629.513 126.2 629.596 126.417 629.596 126.7C629.596 126.967 629.513 127.183 629.346 127.35C629.179 127.5 628.938 127.575 628.621 127.575H625.596V133.525C625.596 134.442 625.788 135.133 626.171 135.6C626.554 136.067 627.188 136.3 628.071 136.3C628.388 136.3 628.654 136.275 628.871 136.225C629.088 136.158 629.279 136.125 629.446 136.125C629.596 136.108 629.721 136.158 629.821 136.275C629.938 136.392 629.996 136.608 629.996 136.925C629.996 137.158 629.954 137.375 629.871 137.575C629.804 137.758 629.663 137.883 629.446 137.95C629.246 138.017 628.979 138.075 628.646 138.125C628.313 138.192 628.013 138.225 627.746 138.225ZM632.976 138.125C632.626 138.125 632.351 138.017 632.151 137.8C631.951 137.583 631.851 137.283 631.851 136.9V126.925C631.851 126.525 631.951 126.225 632.151 126.025C632.351 125.808 632.626 125.7 632.976 125.7C633.343 125.7 633.626 125.808 633.826 126.025C634.026 126.225 634.126 126.525 634.126 126.925V136.9C634.126 137.283 634.026 137.583 633.826 137.8C633.643 138.017 633.36 138.125 632.976 138.125ZM632.976 123C632.526 123 632.168 122.883 631.901 122.65C631.651 122.4 631.526 122.075 631.526 121.675C631.526 121.242 631.651 120.917 631.901 120.7C632.168 120.467 632.526 120.35 632.976 120.35C633.46 120.35 633.818 120.467 634.051 120.7C634.301 120.917 634.426 121.242 634.426 121.675C634.426 122.075 634.301 122.4 634.051 122.65C633.818 122.883 633.46 123 632.976 123ZM638.959 138.175C638.609 138.175 638.334 138.075 638.134 137.875C637.934 137.675 637.834 137.383 637.834 137V126.8C637.834 126.417 637.934 126.133 638.134 125.95C638.334 125.75 638.609 125.65 638.959 125.65C639.309 125.65 639.576 125.75 639.759 125.95C639.959 126.133 640.059 126.417 640.059 126.8V128.925L639.784 128.475C640.101 127.558 640.609 126.85 641.309 126.35C642.026 125.85 642.876 125.6 643.859 125.6C644.892 125.6 645.726 125.85 646.359 126.35C646.992 126.833 647.417 127.575 647.634 128.575H647.284C647.584 127.658 648.117 126.933 648.884 126.4C649.667 125.867 650.576 125.6 651.609 125.6C652.526 125.6 653.276 125.783 653.859 126.15C654.459 126.5 654.909 127.033 655.209 127.75C655.509 128.45 655.659 129.35 655.659 130.45V137C655.659 137.383 655.559 137.675 655.359 137.875C655.159 138.075 654.884 138.175 654.534 138.175C654.167 138.175 653.884 138.075 653.684 137.875C653.484 137.675 653.384 137.383 653.384 137V130.55C653.384 129.483 653.201 128.7 652.834 128.2C652.467 127.7 651.851 127.45 650.984 127.45C650.034 127.45 649.276 127.783 648.709 128.45C648.159 129.1 647.884 130 647.884 131.15V137C647.884 137.383 647.784 137.675 647.584 137.875C647.401 138.075 647.126 138.175 646.759 138.175C646.392 138.175 646.109 138.075 645.909 137.875C645.709 137.675 645.609 137.383 645.609 137V130.55C645.609 129.483 645.426 128.7 645.059 128.2C644.692 127.7 644.076 127.45 643.209 127.45C642.259 127.45 641.501 127.783 640.934 128.45C640.384 129.1 640.109 130 640.109 131.15V137C640.109 137.783 639.726 138.175 638.959 138.175ZM664.942 138.225C663.626 138.225 662.492 137.975 661.542 137.475C660.609 136.958 659.884 136.233 659.367 135.3C658.851 134.35 658.592 133.233 658.592 131.95C658.592 130.683 658.842 129.575 659.342 128.625C659.859 127.675 660.559 126.933 661.442 126.4C662.342 125.867 663.367 125.6 664.517 125.6C665.334 125.6 666.067 125.742 666.717 126.025C667.384 126.292 667.951 126.683 668.417 127.2C668.884 127.717 669.234 128.35 669.467 129.1C669.717 129.833 669.842 130.667 669.842 131.6C669.842 131.867 669.759 132.075 669.592 132.225C669.442 132.358 669.217 132.425 668.917 132.425H660.367V130.975H668.342L667.917 131.325C667.917 130.458 667.784 129.725 667.517 129.125C667.267 128.508 666.892 128.042 666.392 127.725C665.909 127.408 665.301 127.25 664.567 127.25C663.767 127.25 663.084 127.442 662.517 127.825C661.951 128.192 661.517 128.717 661.217 129.4C660.917 130.067 660.767 130.842 660.767 131.725V131.875C660.767 133.375 661.126 134.508 661.842 135.275C662.559 136.042 663.592 136.425 664.942 136.425C665.476 136.425 666.017 136.358 666.567 136.225C667.134 136.092 667.676 135.85 668.192 135.5C668.442 135.35 668.667 135.283 668.867 135.3C669.084 135.3 669.259 135.367 669.392 135.5C669.526 135.617 669.609 135.767 669.642 135.95C669.676 136.117 669.651 136.3 669.567 136.5C669.484 136.7 669.326 136.875 669.092 137.025C668.542 137.408 667.884 137.708 667.117 137.925C666.367 138.125 665.642 138.225 664.942 138.225ZM676.872 138.225C676.122 138.225 675.363 138.142 674.597 137.975C673.847 137.792 673.138 137.483 672.472 137.05C672.288 136.933 672.155 136.792 672.072 136.625C672.005 136.442 671.98 136.267 671.997 136.1C672.03 135.917 672.105 135.758 672.222 135.625C672.338 135.492 672.48 135.417 672.647 135.4C672.83 135.367 673.022 135.408 673.222 135.525C673.872 135.892 674.497 136.15 675.097 136.3C675.713 136.45 676.322 136.525 676.922 136.525C677.838 136.525 678.53 136.358 678.997 136.025C679.463 135.692 679.697 135.25 679.697 134.7C679.697 134.233 679.538 133.875 679.222 133.625C678.922 133.358 678.447 133.158 677.797 133.025L675.472 132.55C674.438 132.317 673.655 131.933 673.122 131.4C672.605 130.85 672.347 130.15 672.347 129.3C672.347 128.55 672.547 127.9 672.947 127.35C673.363 126.783 673.938 126.35 674.672 126.05C675.405 125.75 676.247 125.6 677.197 125.6C677.93 125.6 678.622 125.7 679.272 125.9C679.938 126.083 680.538 126.367 681.072 126.75C681.272 126.867 681.397 127.017 681.447 127.2C681.513 127.367 681.522 127.542 681.472 127.725C681.438 127.892 681.363 128.033 681.247 128.15C681.13 128.267 680.98 128.342 680.797 128.375C680.613 128.392 680.413 128.342 680.197 128.225C679.713 127.892 679.213 127.658 678.697 127.525C678.197 127.375 677.697 127.3 677.197 127.3C676.297 127.3 675.613 127.475 675.147 127.825C674.697 128.175 674.472 128.633 674.472 129.2C674.472 129.633 674.605 129.992 674.872 130.275C675.155 130.558 675.597 130.767 676.197 130.9L678.522 131.375C679.605 131.608 680.422 131.983 680.972 132.5C681.522 133 681.797 133.683 681.797 134.55C681.797 135.683 681.347 136.583 680.447 137.25C679.563 137.9 678.372 138.225 676.872 138.225ZM696.45 138.225C695.25 138.225 694.209 137.967 693.325 137.45C692.442 136.933 691.759 136.2 691.275 135.25C690.792 134.3 690.55 133.183 690.55 131.9C690.55 130.933 690.684 130.067 690.95 129.3C691.234 128.517 691.634 127.85 692.15 127.3C692.667 126.75 693.284 126.333 694 126.05C694.734 125.75 695.55 125.6 696.45 125.6C697.65 125.6 698.692 125.858 699.575 126.375C700.459 126.892 701.142 127.625 701.625 128.575C702.109 129.508 702.35 130.617 702.35 131.9C702.35 132.867 702.209 133.742 701.925 134.525C701.659 135.308 701.267 135.975 700.75 136.525C700.234 137.075 699.609 137.5 698.875 137.8C698.159 138.083 697.35 138.225 696.45 138.225ZM696.45 136.425C697.184 136.425 697.817 136.25 698.35 135.9C698.9 135.55 699.317 135.042 699.6 134.375C699.9 133.708 700.05 132.883 700.05 131.9C700.05 130.433 699.725 129.317 699.075 128.55C698.425 127.783 697.55 127.4 696.45 127.4C695.734 127.4 695.1 127.575 694.55 127.925C694.017 128.258 693.6 128.758 693.3 129.425C693 130.092 692.85 130.917 692.85 131.9C692.85 133.367 693.175 134.492 693.825 135.275C694.492 136.042 695.367 136.425 696.45 136.425ZM706.992 138.175C706.626 138.175 706.342 138.075 706.142 137.875C705.942 137.675 705.842 137.383 705.842 137V127.575H704.342C704.042 127.575 703.809 127.5 703.642 127.35C703.476 127.183 703.392 126.967 703.392 126.7C703.392 126.417 703.476 126.2 703.642 126.05C703.809 125.9 704.042 125.825 704.342 125.825H706.467L705.842 126.425V125.5C705.842 123.883 706.234 122.658 707.017 121.825C707.817 120.975 708.984 120.483 710.517 120.35L711.292 120.3C711.542 120.267 711.742 120.308 711.892 120.425C712.042 120.525 712.142 120.658 712.192 120.825C712.242 120.992 712.242 121.167 712.192 121.35C712.159 121.517 712.084 121.667 711.967 121.8C711.851 121.933 711.701 122.008 711.517 122.025L710.967 122.05C709.967 122.133 709.242 122.433 708.792 122.95C708.342 123.45 708.117 124.2 708.117 125.2V126.2L707.792 125.825H710.667C710.984 125.825 711.226 125.9 711.392 126.05C711.559 126.2 711.642 126.417 711.642 126.7C711.642 126.967 711.559 127.183 711.392 127.35C711.226 127.5 710.984 127.575 710.667 127.575H708.117V137C708.117 137.783 707.742 138.175 706.992 138.175ZM724.357 138.225C723.607 138.225 722.849 138.142 722.082 137.975C721.332 137.792 720.624 137.483 719.957 137.05C719.774 136.933 719.64 136.792 719.557 136.625C719.49 136.442 719.465 136.267 719.482 136.1C719.515 135.917 719.59 135.758 719.707 135.625C719.824 135.492 719.965 135.417 720.132 135.4C720.315 135.367 720.507 135.408 720.707 135.525C721.357 135.892 721.982 136.15 722.582 136.3C723.199 136.45 723.807 136.525 724.407 136.525C725.324 136.525 726.015 136.358 726.482 136.025C726.949 135.692 727.182 135.25 727.182 134.7C727.182 134.233 727.024 133.875 726.707 133.625C726.407 133.358 725.932 133.158 725.282 133.025L722.957 132.55C721.924 132.317 721.14 131.933 720.607 131.4C720.09 130.85 719.832 130.15 719.832 129.3C719.832 128.55 720.032 127.9 720.432 127.35C720.849 126.783 721.424 126.35 722.157 126.05C722.89 125.75 723.732 125.6 724.682 125.6C725.415 125.6 726.107 125.7 726.757 125.9C727.424 126.083 728.024 126.367 728.557 126.75C728.757 126.867 728.882 127.017 728.932 127.2C728.999 127.367 729.007 127.542 728.957 127.725C728.924 127.892 728.849 128.033 728.732 128.15C728.615 128.267 728.465 128.342 728.282 128.375C728.099 128.392 727.899 128.342 727.682 128.225C727.199 127.892 726.699 127.658 726.182 127.525C725.682 127.375 725.182 127.3 724.682 127.3C723.782 127.3 723.099 127.475 722.632 127.825C722.182 128.175 721.957 128.633 721.957 129.2C721.957 129.633 722.09 129.992 722.357 130.275C722.64 130.558 723.082 130.767 723.682 130.9L726.007 131.375C727.09 131.608 727.907 131.983 728.457 132.5C729.007 133 729.282 133.683 729.282 134.55C729.282 135.683 728.832 136.583 727.932 137.25C727.049 137.9 725.857 138.225 724.357 138.225ZM737.17 138.225C736.187 138.225 735.362 138.05 734.695 137.7C734.045 137.35 733.553 136.842 733.22 136.175C732.903 135.508 732.745 134.692 732.745 133.725V127.575H731.145C730.845 127.575 730.612 127.5 730.445 127.35C730.278 127.183 730.195 126.967 730.195 126.7C730.195 126.417 730.278 126.2 730.445 126.05C730.612 125.9 730.845 125.825 731.145 125.825H732.745V123.1C732.745 122.717 732.845 122.433 733.045 122.25C733.245 122.05 733.528 121.95 733.895 121.95C734.262 121.95 734.537 122.05 734.72 122.25C734.92 122.433 735.02 122.717 735.02 123.1V125.825H738.045C738.362 125.825 738.603 125.9 738.77 126.05C738.937 126.2 739.02 126.417 739.02 126.7C739.02 126.967 738.937 127.183 738.77 127.35C738.603 127.5 738.362 127.575 738.045 127.575H735.02V133.525C735.02 134.442 735.212 135.133 735.595 135.6C735.978 136.067 736.612 136.3 737.495 136.3C737.812 136.3 738.078 136.275 738.295 136.225C738.512 136.158 738.703 136.125 738.87 136.125C739.02 136.108 739.145 136.158 739.245 136.275C739.362 136.392 739.42 136.608 739.42 136.925C739.42 137.158 739.378 137.375 739.295 137.575C739.228 137.758 739.087 137.883 738.87 137.95C738.67 138.017 738.403 138.075 738.07 138.125C737.737 138.192 737.437 138.225 737.17 138.225ZM742.255 138.175C741.872 138.175 741.58 138.075 741.38 137.875C741.18 137.675 741.08 137.383 741.08 137V126.8C741.08 126.417 741.18 126.133 741.38 125.95C741.58 125.75 741.855 125.65 742.205 125.65C742.555 125.65 742.822 125.75 743.005 125.95C743.205 126.133 743.305 126.417 743.305 126.8V128.725H743.055C743.322 127.725 743.822 126.967 744.555 126.45C745.288 125.933 746.213 125.642 747.33 125.575C747.597 125.558 747.813 125.625 747.98 125.775C748.147 125.908 748.238 126.142 748.255 126.475C748.272 126.792 748.197 127.05 748.03 127.25C747.863 127.433 747.605 127.542 747.255 127.575L746.805 127.6C745.705 127.717 744.855 128.075 744.255 128.675C743.672 129.275 743.38 130.1 743.38 131.15V137C743.38 137.383 743.28 137.675 743.08 137.875C742.897 138.075 742.622 138.175 742.255 138.175ZM755.665 138.225C754.348 138.225 753.215 137.975 752.265 137.475C751.332 136.958 750.607 136.233 750.09 135.3C749.573 134.35 749.315 133.233 749.315 131.95C749.315 130.683 749.565 129.575 750.065 128.625C750.582 127.675 751.282 126.933 752.165 126.4C753.065 125.867 754.09 125.6 755.24 125.6C756.057 125.6 756.79 125.742 757.44 126.025C758.107 126.292 758.673 126.683 759.14 127.2C759.607 127.717 759.957 128.35 760.19 129.1C760.44 129.833 760.565 130.667 760.565 131.6C760.565 131.867 760.482 132.075 760.315 132.225C760.165 132.358 759.94 132.425 759.64 132.425H751.09V130.975H759.065L758.64 131.325C758.64 130.458 758.507 129.725 758.24 129.125C757.99 128.508 757.615 128.042 757.115 127.725C756.632 127.408 756.023 127.25 755.29 127.25C754.49 127.25 753.807 127.442 753.24 127.825C752.673 128.192 752.24 128.717 751.94 129.4C751.64 130.067 751.49 130.842 751.49 131.725V131.875C751.49 133.375 751.848 134.508 752.565 135.275C753.282 136.042 754.315 136.425 755.665 136.425C756.198 136.425 756.74 136.358 757.29 136.225C757.857 136.092 758.398 135.85 758.915 135.5C759.165 135.35 759.39 135.283 759.59 135.3C759.807 135.3 759.982 135.367 760.115 135.5C760.248 135.617 760.332 135.767 760.365 135.95C760.398 136.117 760.373 136.3 760.29 136.5C760.207 136.7 760.048 136.875 759.815 137.025C759.265 137.408 758.607 137.708 757.84 137.925C757.09 138.125 756.365 138.225 755.665 138.225ZM767.594 138.225C766.844 138.225 766.086 138.142 765.319 137.975C764.569 137.792 763.861 137.483 763.194 137.05C763.011 136.933 762.878 136.792 762.794 136.625C762.728 136.442 762.703 136.267 762.719 136.1C762.753 135.917 762.828 135.758 762.944 135.625C763.061 135.492 763.203 135.417 763.369 135.4C763.553 135.367 763.744 135.408 763.944 135.525C764.594 135.892 765.219 136.15 765.819 136.3C766.436 136.45 767.044 136.525 767.644 136.525C768.561 136.525 769.253 136.358 769.719 136.025C770.186 135.692 770.419 135.25 770.419 134.7C770.419 134.233 770.261 133.875 769.944 133.625C769.644 133.358 769.169 133.158 768.519 133.025L766.194 132.55C765.161 132.317 764.378 131.933 763.844 131.4C763.328 130.85 763.069 130.15 763.069 129.3C763.069 128.55 763.269 127.9 763.669 127.35C764.086 126.783 764.661 126.35 765.394 126.05C766.128 125.75 766.969 125.6 767.919 125.6C768.653 125.6 769.344 125.7 769.994 125.9C770.661 126.083 771.261 126.367 771.794 126.75C771.994 126.867 772.119 127.017 772.169 127.2C772.236 127.367 772.244 127.542 772.194 127.725C772.161 127.892 772.086 128.033 771.969 128.15C771.853 128.267 771.703 128.342 771.519 128.375C771.336 128.392 771.136 128.342 770.919 128.225C770.436 127.892 769.936 127.658 769.419 127.525C768.919 127.375 768.419 127.3 767.919 127.3C767.019 127.3 766.336 127.475 765.869 127.825C765.419 128.175 765.194 128.633 765.194 129.2C765.194 129.633 765.328 129.992 765.594 130.275C765.878 130.558 766.319 130.767 766.919 130.9L769.244 131.375C770.328 131.608 771.144 131.983 771.694 132.5C772.244 133 772.519 133.683 772.519 134.55C772.519 135.683 772.069 136.583 771.169 137.25C770.286 137.9 769.094 138.225 767.594 138.225ZM779.679 138.225C778.929 138.225 778.171 138.142 777.404 137.975C776.654 137.792 775.946 137.483 775.279 137.05C775.096 136.933 774.963 136.792 774.879 136.625C774.813 136.442 774.788 136.267 774.804 136.1C774.838 135.917 774.913 135.758 775.029 135.625C775.146 135.492 775.288 135.417 775.454 135.4C775.638 135.367 775.829 135.408 776.029 135.525C776.679 135.892 777.304 136.15 777.904 136.3C778.521 136.45 779.129 136.525 779.729 136.525C780.646 136.525 781.338 136.358 781.804 136.025C782.271 135.692 782.504 135.25 782.504 134.7C782.504 134.233 782.346 133.875 782.029 133.625C781.729 133.358 781.254 133.158 780.604 133.025L778.279 132.55C777.246 132.317 776.463 131.933 775.929 131.4C775.413 130.85 775.154 130.15 775.154 129.3C775.154 128.55 775.354 127.9 775.754 127.35C776.171 126.783 776.746 126.35 777.479 126.05C778.213 125.75 779.054 125.6 780.004 125.6C780.738 125.6 781.429 125.7 782.079 125.9C782.746 126.083 783.346 126.367 783.879 126.75C784.079 126.867 784.204 127.017 784.254 127.2C784.321 127.367 784.329 127.542 784.279 127.725C784.246 127.892 784.171 128.033 784.054 128.15C783.938 128.267 783.788 128.342 783.604 128.375C783.421 128.392 783.221 128.342 783.004 128.225C782.521 127.892 782.021 127.658 781.504 127.525C781.004 127.375 780.504 127.3 780.004 127.3C779.104 127.3 778.421 127.475 777.954 127.825C777.504 128.175 777.279 128.633 777.279 129.2C777.279 129.633 777.413 129.992 777.679 130.275C777.963 130.558 778.404 130.767 779.004 130.9L781.329 131.375C782.413 131.608 783.229 131.983 783.779 132.5C784.329 133 784.604 133.683 784.604 134.55C784.604 135.683 784.154 136.583 783.254 137.25C782.371 137.9 781.179 138.225 779.679 138.225ZM788.542 138.1C788.109 138.1 787.751 137.958 787.467 137.675C787.184 137.392 787.042 137.033 787.042 136.6C787.042 136.167 787.184 135.817 787.467 135.55C787.751 135.283 788.109 135.15 788.542 135.15C789.009 135.15 789.367 135.283 789.617 135.55C789.884 135.817 790.017 136.167 790.017 136.6C790.017 137.033 789.884 137.392 789.617 137.675C789.367 137.958 789.009 138.1 788.542 138.1ZM793.309 125.575C793.142 125.792 792.959 125.917 792.759 125.95C792.575 125.983 792.409 125.95 792.259 125.85C792.125 125.75 792.05 125.6 792.034 125.4C792.017 125.2 792.1 124.983 792.284 124.75C792.567 124.4 792.759 124.042 792.859 123.675C792.975 123.292 793.034 122.95 793.034 122.65L793.134 123.225C792.667 123.225 792.284 123.092 791.984 122.825C791.7 122.558 791.559 122.2 791.559 121.75C791.559 121.317 791.692 120.967 791.959 120.7C792.225 120.417 792.584 120.275 793.034 120.275C793.484 120.275 793.842 120.433 794.109 120.75C794.392 121.05 794.534 121.5 794.534 122.1C794.534 122.45 794.492 122.825 794.409 123.225C794.342 123.608 794.225 124 794.059 124.4C793.892 124.8 793.642 125.192 793.309 125.575ZM797.609 125.575C797.442 125.792 797.259 125.917 797.059 125.95C796.875 125.983 796.709 125.95 796.559 125.85C796.425 125.75 796.35 125.6 796.334 125.4C796.317 125.2 796.4 124.983 796.584 124.75C796.867 124.4 797.059 124.042 797.159 123.675C797.275 123.292 797.334 122.95 797.334 122.65L797.434 123.225C796.967 123.225 796.584 123.092 796.284 122.825C796 122.558 795.859 122.2 795.859 121.75C795.859 121.317 795.992 120.967 796.259 120.7C796.525 120.417 796.884 120.275 797.334 120.275C797.784 120.275 798.142 120.433 798.409 120.75C798.692 121.05 798.834 121.5 798.834 122.1C798.834 122.45 798.792 122.825 798.709 123.225C798.642 123.608 798.525 124 798.359 124.4C798.192 124.8 797.942 125.192 797.609 125.575Z" fill="black"/>
<circle cx="60" cy="111" r="47" fill="#456EDE" stroke="#456EDE" stroke-width="4"/>
<path d="M2.52244 218.323C-2.47761 182.979 29.3084 166.266 59.5224 166.004C90.0253 165.74 117.522 177.479 117.522 218.323H2.52244Z" fill="#456EDE" stroke="#456EDE" stroke-width="4"/>
</svg>
