<svg width="1014" height="186" viewBox="0 0 1014 186" fill="none" xmlns="http://www.w3.org/2000/svg">
<path d="M255.65 11.725C255.817 11.5083 255.992 11.3833 256.175 11.35C256.375 11.3167 256.542 11.35 256.675 11.45C256.825 11.55 256.908 11.7 256.925 11.9C256.942 12.1 256.858 12.3167 256.675 12.55C256.392 12.9 256.192 13.2667 256.075 13.65C255.975 14.0167 255.925 14.35 255.925 14.65L255.825 14.075C256.292 14.075 256.667 14.2167 256.95 14.5C257.25 14.7667 257.4 15.125 257.4 15.575C257.4 15.9917 257.267 16.3417 257 16.625C256.733 16.8917 256.375 17.025 255.925 17.025C255.475 17.025 255.108 16.8667 254.825 16.55C254.558 16.2333 254.425 15.7833 254.425 15.2C254.425 14.85 254.458 14.4833 254.525 14.1C254.608 13.7 254.733 13.3 254.9 12.9C255.083 12.5 255.333 12.1083 255.65 11.725ZM259.95 11.725C260.117 11.5083 260.292 11.3833 260.475 11.35C260.675 11.3167 260.842 11.35 260.975 11.45C261.125 11.55 261.208 11.7 261.225 11.9C261.242 12.1 261.158 12.3167 260.975 12.55C260.692 12.9 260.492 13.2667 260.375 13.65C260.275 14.0167 260.225 14.35 260.225 14.65L260.125 14.075C260.592 14.075 260.967 14.2167 261.25 14.5C261.55 14.7667 261.7 15.125 261.7 15.575C261.7 15.9917 261.567 16.3417 261.3 16.625C261.033 16.8917 260.675 17.025 260.225 17.025C259.775 17.025 259.408 16.8667 259.125 16.55C258.858 16.2333 258.725 15.7833 258.725 15.2C258.725 14.85 258.758 14.4833 258.825 14.1C258.908 13.7 259.033 13.3 259.2 12.9C259.383 12.5 259.633 12.1083 259.95 11.725ZM266.432 29C266.065 29 265.774 28.8917 265.557 28.675C265.357 28.4583 265.257 28.1667 265.257 27.8V12.45C265.257 12.0667 265.357 11.775 265.557 11.575C265.757 11.375 266.04 11.275 266.407 11.275C266.79 11.275 267.082 11.375 267.282 11.575C267.482 11.775 267.582 12.0667 267.582 12.45V27H275.532C275.882 27 276.14 27.0833 276.307 27.25C276.49 27.4167 276.582 27.6583 276.582 27.975C276.582 28.3083 276.49 28.5667 276.307 28.75C276.14 28.9167 275.882 29 275.532 29H266.432ZM284.156 29.225C282.839 29.225 281.706 28.975 280.756 28.475C279.823 27.9583 279.098 27.2333 278.581 26.3C278.064 25.35 277.806 24.2333 277.806 22.95C277.806 21.6833 278.056 20.575 278.556 19.625C279.073 18.675 279.773 17.9333 280.656 17.4C281.556 16.8667 282.581 16.6 283.731 16.6C284.548 16.6 285.281 16.7417 285.931 17.025C286.598 17.2917 287.164 17.6833 287.631 18.2C288.098 18.7167 288.448 19.35 288.681 20.1C288.931 20.8333 289.056 21.6667 289.056 22.6C289.056 22.8667 288.973 23.075 288.806 23.225C288.656 23.3583 288.431 23.425 288.131 23.425H279.581V21.975H287.556L287.131 22.325C287.131 21.4583 286.998 20.725 286.731 20.125C286.481 19.5083 286.106 19.0417 285.606 18.725C285.123 18.4083 284.514 18.25 283.781 18.25C282.981 18.25 282.298 18.4417 281.731 18.825C281.164 19.1917 280.731 19.7167 280.431 20.4C280.131 21.0667 279.981 21.8417 279.981 22.725V22.875C279.981 24.375 280.339 25.5083 281.056 26.275C281.773 27.0417 282.806 27.425 284.156 27.425C284.689 27.425 285.231 27.3583 285.781 27.225C286.348 27.0917 286.889 26.85 287.406 26.5C287.656 26.35 287.881 26.2833 288.081 26.3C288.298 26.3 288.473 26.3667 288.606 26.5C288.739 26.6167 288.823 26.7667 288.856 26.95C288.889 27.1167 288.864 27.3 288.781 27.5C288.698 27.7 288.539 27.875 288.306 28.025C287.756 28.4083 287.098 28.7083 286.331 28.925C285.581 29.125 284.856 29.225 284.156 29.225ZM295.761 29.225C294.927 29.225 294.169 29.0583 293.486 28.725C292.819 28.3917 292.294 27.9417 291.911 27.375C291.544 26.8083 291.361 26.175 291.361 25.475C291.361 24.575 291.586 23.8667 292.036 23.35C292.486 22.8333 293.244 22.4667 294.311 22.25C295.377 22.0167 296.811 21.9 298.611 21.9H299.786V23.35H298.661C297.377 23.35 296.361 23.4083 295.611 23.525C294.877 23.6417 294.361 23.85 294.061 24.15C293.761 24.4333 293.611 24.8333 293.611 25.35C293.611 26 293.836 26.5333 294.286 26.95C294.752 27.3667 295.386 27.575 296.186 27.575C296.819 27.575 297.377 27.425 297.861 27.125C298.344 26.8083 298.727 26.3917 299.011 25.875C299.294 25.3417 299.436 24.7333 299.436 24.05V21.175C299.436 20.1917 299.236 19.4833 298.836 19.05C298.436 18.6 297.761 18.375 296.811 18.375C296.261 18.375 295.694 18.45 295.111 18.6C294.527 18.75 293.919 18.9833 293.286 19.3C293.036 19.4167 292.819 19.4583 292.636 19.425C292.452 19.375 292.302 19.275 292.186 19.125C292.086 18.9583 292.027 18.7833 292.011 18.6C292.011 18.4 292.052 18.2083 292.136 18.025C292.236 17.8417 292.402 17.7083 292.636 17.625C293.369 17.2583 294.094 17 294.811 16.85C295.544 16.6833 296.227 16.6 296.861 16.6C297.944 16.6 298.836 16.775 299.536 17.125C300.236 17.4583 300.761 17.9833 301.111 18.7C301.461 19.4 301.636 20.3 301.636 21.4V28C301.636 28.3833 301.544 28.675 301.361 28.875C301.177 29.075 300.911 29.175 300.561 29.175C300.227 29.175 299.961 29.075 299.761 28.875C299.577 28.675 299.486 28.3833 299.486 28V26.225H299.711C299.577 26.8417 299.327 27.375 298.961 27.825C298.594 28.275 298.136 28.625 297.586 28.875C297.052 29.1083 296.444 29.225 295.761 29.225ZM309.719 29.175C309.402 29.175 309.127 29.0917 308.894 28.925C308.66 28.7583 308.46 28.4917 308.294 28.125L304.044 18.225C303.927 17.9417 303.885 17.6833 303.919 17.45C303.952 17.2167 304.06 17.025 304.244 16.875C304.444 16.725 304.71 16.65 305.044 16.65C305.327 16.65 305.552 16.7167 305.719 16.85C305.885 16.9833 306.044 17.2167 306.194 17.55L310.119 27.225H309.419L313.444 17.55C313.577 17.2167 313.727 16.9833 313.894 16.85C314.077 16.7167 314.327 16.65 314.644 16.65C314.927 16.65 315.144 16.725 315.294 16.875C315.46 17.025 315.56 17.2167 315.594 17.45C315.627 17.6833 315.577 17.9333 315.444 18.2L311.169 28.125C311.019 28.4917 310.819 28.7583 310.569 28.925C310.335 29.0917 310.052 29.175 309.719 29.175ZM319.158 29.125C318.808 29.125 318.533 29.0167 318.333 28.8C318.133 28.5833 318.033 28.2833 318.033 27.9V17.925C318.033 17.525 318.133 17.225 318.333 17.025C318.533 16.8083 318.808 16.7 319.158 16.7C319.525 16.7 319.808 16.8083 320.008 17.025C320.208 17.225 320.308 17.525 320.308 17.925V27.9C320.308 28.2833 320.208 28.5833 320.008 28.8C319.825 29.0167 319.541 29.125 319.158 29.125ZM319.158 14C318.708 14 318.35 13.8833 318.083 13.65C317.833 13.4 317.708 13.075 317.708 12.675C317.708 12.2417 317.833 11.9167 318.083 11.7C318.35 11.4667 318.708 11.35 319.158 11.35C319.641 11.35 320 11.4667 320.233 11.7C320.483 11.9167 320.608 12.2417 320.608 12.675C320.608 13.075 320.483 13.4 320.233 13.65C320 13.8833 319.641 14 319.158 14ZM325.091 29.175C324.741 29.175 324.466 29.075 324.266 28.875C324.066 28.675 323.966 28.3833 323.966 28V17.8C323.966 17.4167 324.066 17.1333 324.266 16.95C324.466 16.75 324.741 16.65 325.091 16.65C325.441 16.65 325.707 16.75 325.891 16.95C326.091 17.1333 326.191 17.4167 326.191 17.8V19.85L325.916 19.475C326.266 18.525 326.832 17.8083 327.616 17.325C328.416 16.8417 329.324 16.6 330.341 16.6C331.324 16.6 332.132 16.775 332.766 17.125C333.399 17.475 333.874 18.0083 334.191 18.725C334.507 19.4417 334.666 20.35 334.666 21.45V28C334.666 28.3833 334.566 28.675 334.366 28.875C334.182 29.075 333.907 29.175 333.541 29.175C333.174 29.175 332.891 29.075 332.691 28.875C332.491 28.675 332.391 28.3833 332.391 28V21.575C332.391 20.4917 332.182 19.7 331.766 19.2C331.349 18.7 330.682 18.45 329.766 18.45C328.699 18.45 327.841 18.7833 327.191 19.45C326.557 20.1 326.241 20.9833 326.241 22.1V28C326.241 28.7833 325.857 29.175 325.091 29.175ZM343.747 33.725C342.847 33.725 341.972 33.625 341.122 33.425C340.289 33.225 339.531 32.9167 338.847 32.5C338.631 32.3667 338.481 32.2083 338.397 32.025C338.331 31.8583 338.314 31.6833 338.347 31.5C338.397 31.3167 338.481 31.15 338.597 31C338.731 30.8667 338.881 30.775 339.047 30.725C339.231 30.6917 339.414 30.7333 339.597 30.85C340.331 31.2667 341.031 31.55 341.697 31.7C342.364 31.85 342.997 31.925 343.597 31.925C344.781 31.925 345.664 31.6167 346.247 31C346.847 30.4 347.147 29.5167 347.147 28.35V25.65H347.372C347.139 26.5833 346.614 27.325 345.797 27.875C344.997 28.425 344.064 28.7 342.997 28.7C341.897 28.7 340.939 28.45 340.122 27.95C339.306 27.4333 338.672 26.725 338.222 25.825C337.772 24.9083 337.547 23.85 337.547 22.65C337.547 21.7333 337.672 20.9083 337.922 20.175C338.189 19.425 338.556 18.7917 339.022 18.275C339.506 17.7417 340.081 17.3333 340.747 17.05C341.414 16.75 342.164 16.6 342.997 16.6C344.081 16.6 345.022 16.875 345.822 17.425C346.622 17.975 347.139 18.7167 347.372 19.65L347.097 20V17.8C347.097 17.4167 347.197 17.1333 347.397 16.95C347.597 16.75 347.881 16.65 348.247 16.65C348.597 16.65 348.872 16.75 349.072 16.95C349.272 17.1333 349.372 17.4167 349.372 17.8V28.05C349.372 29.9333 348.889 31.35 347.922 32.3C346.972 33.25 345.581 33.725 343.747 33.725ZM343.497 26.9C344.247 26.9 344.889 26.7333 345.422 26.4C345.972 26.05 346.389 25.5583 346.672 24.925C346.972 24.275 347.122 23.5167 347.122 22.65C347.122 21.3333 346.797 20.3 346.147 19.55C345.497 18.7833 344.614 18.4 343.497 18.4C342.747 18.4 342.097 18.575 341.547 18.925C341.014 19.2583 340.597 19.7417 340.297 20.375C339.997 21.0083 339.847 21.7667 339.847 22.65C339.847 23.95 340.172 24.9833 340.822 25.75C341.489 26.5167 342.381 26.9 343.497 26.9ZM364.587 29.225C363.604 29.225 362.779 29.05 362.112 28.7C361.462 28.35 360.97 27.8417 360.637 27.175C360.32 26.5083 360.162 25.6917 360.162 24.725V18.575H358.562C358.262 18.575 358.029 18.5 357.862 18.35C357.695 18.1833 357.612 17.9667 357.612 17.7C357.612 17.4167 357.695 17.2 357.862 17.05C358.029 16.9 358.262 16.825 358.562 16.825H360.162V14.1C360.162 13.7167 360.262 13.4333 360.462 13.25C360.662 13.05 360.945 12.95 361.312 12.95C361.679 12.95 361.954 13.05 362.137 13.25C362.337 13.4333 362.437 13.7167 362.437 14.1V16.825H365.462C365.779 16.825 366.02 16.9 366.187 17.05C366.354 17.2 366.437 17.4167 366.437 17.7C366.437 17.9667 366.354 18.1833 366.187 18.35C366.02 18.5 365.779 18.575 365.462 18.575H362.437V24.525C362.437 25.4417 362.629 26.1333 363.012 26.6C363.395 27.0667 364.029 27.3 364.912 27.3C365.229 27.3 365.495 27.275 365.712 27.225C365.929 27.1583 366.12 27.125 366.287 27.125C366.437 27.1083 366.562 27.1583 366.662 27.275C366.779 27.3917 366.837 27.6083 366.837 27.925C366.837 28.1583 366.795 28.375 366.712 28.575C366.645 28.7583 366.504 28.8833 366.287 28.95C366.087 29.0167 365.82 29.075 365.487 29.125C365.154 29.1917 364.854 29.225 364.587 29.225ZM369.817 29.175C369.467 29.175 369.192 29.075 368.992 28.875C368.792 28.675 368.692 28.3833 368.692 28V12.35C368.692 11.9667 368.792 11.6833 368.992 11.5C369.192 11.3 369.467 11.2 369.817 11.2C370.184 11.2 370.467 11.3 370.667 11.5C370.867 11.6833 370.967 11.9667 370.967 12.35V19.475H370.642C370.992 18.525 371.559 17.8083 372.342 17.325C373.142 16.8417 374.051 16.6 375.067 16.6C376.051 16.6 376.859 16.7833 377.492 17.15C378.126 17.5 378.601 18.0333 378.917 18.75C379.234 19.4667 379.392 20.3667 379.392 21.45V28C379.392 28.3833 379.292 28.675 379.092 28.875C378.909 29.075 378.634 29.175 378.267 29.175C377.901 29.175 377.617 29.075 377.417 28.875C377.217 28.675 377.117 28.3833 377.117 28V21.575C377.117 20.4917 376.909 19.7 376.492 19.2C376.076 18.7 375.409 18.45 374.492 18.45C373.426 18.45 372.567 18.7833 371.917 19.45C371.284 20.1 370.967 20.9833 370.967 22.1V28C370.967 28.7833 370.584 29.175 369.817 29.175ZM388.624 29.225C387.307 29.225 386.174 28.975 385.224 28.475C384.29 27.9583 383.565 27.2333 383.049 26.3C382.532 25.35 382.274 24.2333 382.274 22.95C382.274 21.6833 382.524 20.575 383.024 19.625C383.54 18.675 384.24 17.9333 385.124 17.4C386.024 16.8667 387.049 16.6 388.199 16.6C389.015 16.6 389.749 16.7417 390.399 17.025C391.065 17.2917 391.632 17.6833 392.099 18.2C392.565 18.7167 392.915 19.35 393.149 20.1C393.399 20.8333 393.524 21.6667 393.524 22.6C393.524 22.8667 393.44 23.075 393.274 23.225C393.124 23.3583 392.899 23.425 392.599 23.425H384.049V21.975H392.024L391.599 22.325C391.599 21.4583 391.465 20.725 391.199 20.125C390.949 19.5083 390.574 19.0417 390.074 18.725C389.59 18.4083 388.982 18.25 388.249 18.25C387.449 18.25 386.765 18.4417 386.199 18.825C385.632 19.1917 385.199 19.7167 384.899 20.4C384.599 21.0667 384.449 21.8417 384.449 22.725V22.875C384.449 24.375 384.807 25.5083 385.524 26.275C386.24 27.0417 387.274 27.425 388.624 27.425C389.157 27.425 389.699 27.3583 390.249 27.225C390.815 27.0917 391.357 26.85 391.874 26.5C392.124 26.35 392.349 26.2833 392.549 26.3C392.765 26.3 392.94 26.3667 393.074 26.5C393.207 26.6167 393.29 26.7667 393.324 26.95C393.357 27.1167 393.332 27.3 393.249 27.5C393.165 27.7 393.007 27.875 392.774 28.025C392.224 28.4083 391.565 28.7083 390.799 28.925C390.049 29.125 389.324 29.225 388.624 29.225ZM403.997 29.175C403.647 29.175 403.372 29.075 403.172 28.875C402.972 28.675 402.872 28.3833 402.872 28V12.35C402.872 11.9667 402.972 11.6833 403.172 11.5C403.372 11.3 403.647 11.2 403.997 11.2C404.364 11.2 404.647 11.3 404.847 11.5C405.047 11.6833 405.147 11.9667 405.147 12.35V19.475H404.822C405.172 18.525 405.739 17.8083 406.522 17.325C407.322 16.8417 408.23 16.6 409.247 16.6C410.23 16.6 411.039 16.7833 411.672 17.15C412.305 17.5 412.78 18.0333 413.097 18.75C413.414 19.4667 413.572 20.3667 413.572 21.45V28C413.572 28.3833 413.472 28.675 413.272 28.875C413.089 29.075 412.814 29.175 412.447 29.175C412.08 29.175 411.797 29.075 411.597 28.875C411.397 28.675 411.297 28.3833 411.297 28V21.575C411.297 20.4917 411.089 19.7 410.672 19.2C410.255 18.7 409.589 18.45 408.672 18.45C407.605 18.45 406.747 18.7833 406.097 19.45C405.464 20.1 405.147 20.9833 405.147 22.1V28C405.147 28.7833 404.764 29.175 403.997 29.175ZM422.354 29.225C421.154 29.225 420.112 28.9667 419.229 28.45C418.345 27.9333 417.662 27.2 417.179 26.25C416.695 25.3 416.454 24.1833 416.454 22.9C416.454 21.9333 416.587 21.0667 416.854 20.3C417.137 19.5167 417.537 18.85 418.054 18.3C418.57 17.75 419.187 17.3333 419.904 17.05C420.637 16.75 421.454 16.6 422.354 16.6C423.554 16.6 424.595 16.8583 425.479 17.375C426.362 17.8917 427.045 18.625 427.529 19.575C428.012 20.5083 428.254 21.6167 428.254 22.9C428.254 23.8667 428.112 24.7417 427.829 25.525C427.562 26.3083 427.17 26.975 426.654 27.525C426.137 28.075 425.512 28.5 424.779 28.8C424.062 29.0833 423.254 29.225 422.354 29.225ZM422.354 27.425C423.087 27.425 423.72 27.25 424.254 26.9C424.804 26.55 425.22 26.0417 425.504 25.375C425.804 24.7083 425.954 23.8833 425.954 22.9C425.954 21.4333 425.629 20.3167 424.979 19.55C424.329 18.7833 423.454 18.4 422.354 18.4C421.637 18.4 421.004 18.575 420.454 18.925C419.92 19.2583 419.504 19.7583 419.204 20.425C418.904 21.0917 418.754 21.9167 418.754 22.9C418.754 24.3667 419.079 25.4917 419.729 26.275C420.395 27.0417 421.27 27.425 422.354 27.425ZM435.368 29.225C434.618 29.225 433.859 29.1417 433.093 28.975C432.343 28.7917 431.634 28.4833 430.968 28.05C430.784 27.9333 430.651 27.7917 430.568 27.625C430.501 27.4417 430.476 27.2667 430.493 27.1C430.526 26.9167 430.601 26.7583 430.718 26.625C430.834 26.4917 430.976 26.4167 431.143 26.4C431.326 26.3667 431.518 26.4083 431.718 26.525C432.368 26.8917 432.993 27.15 433.593 27.3C434.209 27.45 434.818 27.525 435.418 27.525C436.334 27.525 437.026 27.3583 437.493 27.025C437.959 26.6917 438.193 26.25 438.193 25.7C438.193 25.2333 438.034 24.875 437.718 24.625C437.418 24.3583 436.943 24.1583 436.293 24.025L433.968 23.55C432.934 23.3167 432.151 22.9333 431.618 22.4C431.101 21.85 430.843 21.15 430.843 20.3C430.843 19.55 431.043 18.9 431.443 18.35C431.859 17.7833 432.434 17.35 433.168 17.05C433.901 16.75 434.743 16.6 435.693 16.6C436.426 16.6 437.118 16.7 437.768 16.9C438.434 17.0833 439.034 17.3667 439.568 17.75C439.768 17.8667 439.893 18.0167 439.943 18.2C440.009 18.3667 440.018 18.5417 439.968 18.725C439.934 18.8917 439.859 19.0333 439.743 19.15C439.626 19.2667 439.476 19.3417 439.293 19.375C439.109 19.3917 438.909 19.3417 438.693 19.225C438.209 18.8917 437.709 18.6583 437.193 18.525C436.693 18.375 436.193 18.3 435.693 18.3C434.793 18.3 434.109 18.475 433.643 18.825C433.193 19.175 432.968 19.6333 432.968 20.2C432.968 20.6333 433.101 20.9917 433.368 21.275C433.651 21.5583 434.093 21.7667 434.693 21.9L437.018 22.375C438.101 22.6083 438.918 22.9833 439.468 23.5C440.018 24 440.293 24.6833 440.293 25.55C440.293 26.6833 439.843 27.5833 438.943 28.25C438.059 28.9 436.868 29.225 435.368 29.225ZM444.378 33.675C444.028 33.675 443.753 33.575 443.553 33.375C443.353 33.175 443.253 32.8917 443.253 32.525V17.8C443.253 17.4167 443.353 17.1333 443.553 16.95C443.753 16.75 444.028 16.65 444.378 16.65C444.744 16.65 445.019 16.75 445.203 16.95C445.403 17.1333 445.503 17.4167 445.503 17.8V20.075L445.228 19.625C445.494 18.7083 446.019 17.975 446.803 17.425C447.586 16.875 448.528 16.6 449.628 16.6C450.711 16.6 451.653 16.8583 452.453 17.375C453.253 17.875 453.878 18.6 454.328 19.55C454.778 20.4833 455.003 21.6 455.003 22.9C455.003 24.1833 454.778 25.3083 454.328 26.275C453.894 27.225 453.269 27.9583 452.453 28.475C451.653 28.975 450.711 29.225 449.628 29.225C448.544 29.225 447.611 28.95 446.828 28.4C446.044 27.85 445.519 27.125 445.253 26.225H445.528V32.525C445.528 32.8917 445.428 33.175 445.228 33.375C445.028 33.575 444.744 33.675 444.378 33.675ZM449.103 27.425C449.819 27.425 450.444 27.25 450.978 26.9C451.528 26.55 451.953 26.0417 452.253 25.375C452.553 24.7083 452.703 23.8833 452.703 22.9C452.703 21.4333 452.378 20.3167 451.728 19.55C451.078 18.7833 450.203 18.4 449.103 18.4C448.369 18.4 447.728 18.575 447.178 18.925C446.644 19.2583 446.228 19.7583 445.928 20.425C445.644 21.0917 445.503 21.9167 445.503 22.9C445.503 24.3667 445.828 25.4917 446.478 26.275C447.128 27.0417 448.003 27.425 449.103 27.425ZM459.051 29.125C458.701 29.125 458.426 29.0167 458.226 28.8C458.026 28.5833 457.926 28.2833 457.926 27.9V17.925C457.926 17.525 458.026 17.225 458.226 17.025C458.426 16.8083 458.701 16.7 459.051 16.7C459.417 16.7 459.701 16.8083 459.901 17.025C460.101 17.225 460.201 17.525 460.201 17.925V27.9C460.201 28.2833 460.101 28.5833 459.901 28.8C459.717 29.0167 459.434 29.125 459.051 29.125ZM459.051 14C458.601 14 458.242 13.8833 457.976 13.65C457.726 13.4 457.601 13.075 457.601 12.675C457.601 12.2417 457.726 11.9167 457.976 11.7C458.242 11.4667 458.601 11.35 459.051 11.35C459.534 11.35 459.892 11.4667 460.126 11.7C460.376 11.9167 460.501 12.2417 460.501 12.675C460.501 13.075 460.376 13.4 460.126 13.65C459.892 13.8833 459.534 14 459.051 14ZM468.908 29.225C467.925 29.225 467.1 29.05 466.433 28.7C465.783 28.35 465.292 27.8417 464.958 27.175C464.642 26.5083 464.483 25.6917 464.483 24.725V18.575H462.883C462.583 18.575 462.35 18.5 462.183 18.35C462.017 18.1833 461.933 17.9667 461.933 17.7C461.933 17.4167 462.017 17.2 462.183 17.05C462.35 16.9 462.583 16.825 462.883 16.825H464.483V14.1C464.483 13.7167 464.583 13.4333 464.783 13.25C464.983 13.05 465.267 12.95 465.633 12.95C466 12.95 466.275 13.05 466.458 13.25C466.658 13.4333 466.758 13.7167 466.758 14.1V16.825H469.783C470.1 16.825 470.342 16.9 470.508 17.05C470.675 17.2 470.758 17.4167 470.758 17.7C470.758 17.9667 470.675 18.1833 470.508 18.35C470.342 18.5 470.1 18.575 469.783 18.575H466.758V24.525C466.758 25.4417 466.95 26.1333 467.333 26.6C467.717 27.0667 468.35 27.3 469.233 27.3C469.55 27.3 469.817 27.275 470.033 27.225C470.25 27.1583 470.442 27.125 470.608 27.125C470.758 27.1083 470.883 27.1583 470.983 27.275C471.1 27.3917 471.158 27.6083 471.158 27.925C471.158 28.1583 471.117 28.375 471.033 28.575C470.967 28.7583 470.825 28.8833 470.608 28.95C470.408 29.0167 470.142 29.075 469.808 29.125C469.475 29.1917 469.175 29.225 468.908 29.225ZM476.693 29.225C475.86 29.225 475.101 29.0583 474.418 28.725C473.751 28.3917 473.226 27.9417 472.843 27.375C472.476 26.8083 472.293 26.175 472.293 25.475C472.293 24.575 472.518 23.8667 472.968 23.35C473.418 22.8333 474.176 22.4667 475.243 22.25C476.31 22.0167 477.743 21.9 479.543 21.9H480.718V23.35H479.593C478.31 23.35 477.293 23.4083 476.543 23.525C475.81 23.6417 475.293 23.85 474.993 24.15C474.693 24.4333 474.543 24.8333 474.543 25.35C474.543 26 474.768 26.5333 475.218 26.95C475.685 27.3667 476.318 27.575 477.118 27.575C477.751 27.575 478.31 27.425 478.793 27.125C479.276 26.8083 479.66 26.3917 479.943 25.875C480.226 25.3417 480.368 24.7333 480.368 24.05V21.175C480.368 20.1917 480.168 19.4833 479.768 19.05C479.368 18.6 478.693 18.375 477.743 18.375C477.193 18.375 476.626 18.45 476.043 18.6C475.46 18.75 474.851 18.9833 474.218 19.3C473.968 19.4167 473.751 19.4583 473.568 19.425C473.385 19.375 473.235 19.275 473.118 19.125C473.018 18.9583 472.96 18.7833 472.943 18.6C472.943 18.4 472.985 18.2083 473.068 18.025C473.168 17.8417 473.335 17.7083 473.568 17.625C474.301 17.2583 475.026 17 475.743 16.85C476.476 16.6833 477.16 16.6 477.793 16.6C478.876 16.6 479.768 16.775 480.468 17.125C481.168 17.4583 481.693 17.9833 482.043 18.7C482.393 19.4 482.568 20.3 482.568 21.4V28C482.568 28.3833 482.476 28.675 482.293 28.875C482.11 29.075 481.843 29.175 481.493 29.175C481.16 29.175 480.893 29.075 480.693 28.875C480.51 28.675 480.418 28.3833 480.418 28V26.225H480.643C480.51 26.8417 480.26 27.375 479.893 27.825C479.526 28.275 479.068 28.625 478.518 28.875C477.985 29.1083 477.376 29.225 476.693 29.225ZM489.973 29.225C488.723 29.225 487.773 28.8583 487.123 28.125C486.473 27.375 486.148 26.3 486.148 24.9V12.35C486.148 11.9667 486.248 11.6833 486.448 11.5C486.648 11.3 486.923 11.2 487.273 11.2C487.64 11.2 487.923 11.3 488.123 11.5C488.323 11.6833 488.423 11.9667 488.423 12.35V24.725C488.423 25.5917 488.598 26.2417 488.948 26.675C489.315 27.0917 489.832 27.3 490.498 27.3C490.648 27.3 490.782 27.3 490.898 27.3C491.015 27.2833 491.132 27.2667 491.248 27.25C491.432 27.2333 491.565 27.2833 491.648 27.4C491.732 27.5167 491.773 27.75 491.773 28.1C491.773 28.4167 491.698 28.6667 491.548 28.85C491.415 29.0167 491.19 29.125 490.873 29.175C490.723 29.1917 490.573 29.2 490.423 29.2C490.273 29.2167 490.123 29.225 489.973 29.225ZM501.311 29.125C500.961 29.125 500.686 29.0167 500.486 28.8C500.286 28.5833 500.186 28.2833 500.186 27.9V17.925C500.186 17.525 500.286 17.225 500.486 17.025C500.686 16.8083 500.961 16.7 501.311 16.7C501.678 16.7 501.961 16.8083 502.161 17.025C502.361 17.225 502.461 17.525 502.461 17.925V27.9C502.461 28.2833 502.361 28.5833 502.161 28.8C501.978 29.0167 501.695 29.125 501.311 29.125ZM501.311 14C500.861 14 500.503 13.8833 500.236 13.65C499.986 13.4 499.861 13.075 499.861 12.675C499.861 12.2417 499.986 11.9167 500.236 11.7C500.503 11.4667 500.861 11.35 501.311 11.35C501.795 11.35 502.153 11.4667 502.386 11.7C502.636 11.9167 502.761 12.2417 502.761 12.675C502.761 13.075 502.636 13.4 502.386 13.65C502.153 13.8833 501.795 14 501.311 14ZM510.319 29.225C509.569 29.225 508.811 29.1417 508.044 28.975C507.294 28.7917 506.586 28.4833 505.919 28.05C505.736 27.9333 505.602 27.7917 505.519 27.625C505.452 27.4417 505.427 27.2667 505.444 27.1C505.477 26.9167 505.552 26.7583 505.669 26.625C505.786 26.4917 505.927 26.4167 506.094 26.4C506.277 26.3667 506.469 26.4083 506.669 26.525C507.319 26.8917 507.944 27.15 508.544 27.3C509.161 27.45 509.769 27.525 510.369 27.525C511.286 27.525 511.977 27.3583 512.444 27.025C512.911 26.6917 513.144 26.25 513.144 25.7C513.144 25.2333 512.986 24.875 512.669 24.625C512.369 24.3583 511.894 24.1583 511.244 24.025L508.919 23.55C507.886 23.3167 507.102 22.9333 506.569 22.4C506.052 21.85 505.794 21.15 505.794 20.3C505.794 19.55 505.994 18.9 506.394 18.35C506.811 17.7833 507.386 17.35 508.119 17.05C508.852 16.75 509.694 16.6 510.644 16.6C511.377 16.6 512.069 16.7 512.719 16.9C513.386 17.0833 513.986 17.3667 514.519 17.75C514.719 17.8667 514.844 18.0167 514.894 18.2C514.961 18.3667 514.969 18.5417 514.919 18.725C514.886 18.8917 514.811 19.0333 514.694 19.15C514.577 19.2667 514.427 19.3417 514.244 19.375C514.061 19.3917 513.861 19.3417 513.644 19.225C513.161 18.8917 512.661 18.6583 512.144 18.525C511.644 18.375 511.144 18.3 510.644 18.3C509.744 18.3 509.061 18.475 508.594 18.825C508.144 19.175 507.919 19.6333 507.919 20.2C507.919 20.6333 508.052 20.9917 508.319 21.275C508.602 21.5583 509.044 21.7667 509.644 21.9L511.969 22.375C513.052 22.6083 513.869 22.9833 514.419 23.5C514.969 24 515.244 24.6833 515.244 25.55C515.244 26.6833 514.794 27.5833 513.894 28.25C513.011 28.9 511.819 29.225 510.319 29.225ZM528.922 29.225C528.172 29.225 527.414 29.1417 526.647 28.975C525.897 28.7917 525.189 28.4833 524.522 28.05C524.339 27.9333 524.206 27.7917 524.122 27.625C524.056 27.4417 524.031 27.2667 524.047 27.1C524.081 26.9167 524.156 26.7583 524.272 26.625C524.389 26.4917 524.531 26.4167 524.697 26.4C524.881 26.3667 525.072 26.4083 525.272 26.525C525.922 26.8917 526.547 27.15 527.147 27.3C527.764 27.45 528.372 27.525 528.972 27.525C529.889 27.525 530.581 27.3583 531.047 27.025C531.514 26.6917 531.747 26.25 531.747 25.7C531.747 25.2333 531.589 24.875 531.272 24.625C530.972 24.3583 530.497 24.1583 529.847 24.025L527.522 23.55C526.489 23.3167 525.706 22.9333 525.172 22.4C524.656 21.85 524.397 21.15 524.397 20.3C524.397 19.55 524.597 18.9 524.997 18.35C525.414 17.7833 525.989 17.35 526.722 17.05C527.456 16.75 528.297 16.6 529.247 16.6C529.981 16.6 530.672 16.7 531.322 16.9C531.989 17.0833 532.589 17.3667 533.122 17.75C533.322 17.8667 533.447 18.0167 533.497 18.2C533.564 18.3667 533.572 18.5417 533.522 18.725C533.489 18.8917 533.414 19.0333 533.297 19.15C533.181 19.2667 533.031 19.3417 532.847 19.375C532.664 19.3917 532.464 19.3417 532.247 19.225C531.764 18.8917 531.264 18.6583 530.747 18.525C530.247 18.375 529.747 18.3 529.247 18.3C528.347 18.3 527.664 18.475 527.197 18.825C526.747 19.175 526.522 19.6333 526.522 20.2C526.522 20.6333 526.656 20.9917 526.922 21.275C527.206 21.5583 527.647 21.7667 528.247 21.9L530.572 22.375C531.656 22.6083 532.472 22.9833 533.022 23.5C533.572 24 533.847 24.6833 533.847 25.55C533.847 26.6833 533.397 27.5833 532.497 28.25C531.614 28.9 530.422 29.225 528.922 29.225ZM542.082 29.225C540.849 29.225 539.782 28.9667 538.882 28.45C537.982 27.9167 537.291 27.175 536.807 26.225C536.324 25.2583 536.082 24.125 536.082 22.825C536.082 21.8583 536.216 20.9917 536.482 20.225C536.766 19.4583 537.166 18.8083 537.682 18.275C538.199 17.725 538.824 17.3083 539.557 17.025C540.307 16.7417 541.149 16.6 542.082 16.6C542.666 16.6 543.282 16.6917 543.932 16.875C544.582 17.0583 545.182 17.3583 545.732 17.775C545.916 17.9083 546.032 18.0667 546.082 18.25C546.132 18.4167 546.132 18.5917 546.082 18.775C546.049 18.9583 545.966 19.1167 545.832 19.25C545.716 19.3667 545.557 19.4333 545.357 19.45C545.174 19.4667 544.974 19.4083 544.757 19.275C544.357 18.975 543.932 18.7583 543.482 18.625C543.049 18.4917 542.632 18.425 542.232 18.425C541.616 18.425 541.066 18.525 540.582 18.725C540.116 18.925 539.716 19.2167 539.382 19.6C539.066 19.9667 538.824 20.425 538.657 20.975C538.491 21.5083 538.407 22.1333 538.407 22.85C538.407 24.2667 538.741 25.3833 539.407 26.2C540.074 27 541.016 27.4 542.232 27.4C542.632 27.4 543.049 27.3417 543.482 27.225C543.916 27.0917 544.341 26.875 544.757 26.575C544.974 26.4417 545.174 26.3917 545.357 26.425C545.541 26.4417 545.691 26.5167 545.807 26.65C545.941 26.7667 546.024 26.9167 546.057 27.1C546.091 27.2667 546.074 27.4417 546.007 27.625C545.957 27.8083 545.841 27.9583 545.657 28.075C545.124 28.475 544.541 28.7667 543.907 28.95C543.274 29.1333 542.666 29.225 542.082 29.225ZM552.206 29.225C551.373 29.225 550.614 29.0583 549.931 28.725C549.264 28.3917 548.739 27.9417 548.356 27.375C547.989 26.8083 547.806 26.175 547.806 25.475C547.806 24.575 548.031 23.8667 548.481 23.35C548.931 22.8333 549.689 22.4667 550.756 22.25C551.823 22.0167 553.256 21.9 555.056 21.9H556.231V23.35H555.106C553.823 23.35 552.806 23.4083 552.056 23.525C551.323 23.6417 550.806 23.85 550.506 24.15C550.206 24.4333 550.056 24.8333 550.056 25.35C550.056 26 550.281 26.5333 550.731 26.95C551.198 27.3667 551.831 27.575 552.631 27.575C553.264 27.575 553.823 27.425 554.306 27.125C554.789 26.8083 555.173 26.3917 555.456 25.875C555.739 25.3417 555.881 24.7333 555.881 24.05V21.175C555.881 20.1917 555.681 19.4833 555.281 19.05C554.881 18.6 554.206 18.375 553.256 18.375C552.706 18.375 552.139 18.45 551.556 18.6C550.973 18.75 550.364 18.9833 549.731 19.3C549.481 19.4167 549.264 19.4583 549.081 19.425C548.898 19.375 548.748 19.275 548.631 19.125C548.531 18.9583 548.473 18.7833 548.456 18.6C548.456 18.4 548.498 18.2083 548.581 18.025C548.681 17.8417 548.848 17.7083 549.081 17.625C549.814 17.2583 550.539 17 551.256 16.85C551.989 16.6833 552.673 16.6 553.306 16.6C554.389 16.6 555.281 16.775 555.981 17.125C556.681 17.4583 557.206 17.9833 557.556 18.7C557.906 19.4 558.081 20.3 558.081 21.4V28C558.081 28.3833 557.989 28.675 557.806 28.875C557.623 29.075 557.356 29.175 557.006 29.175C556.673 29.175 556.406 29.075 556.206 28.875C556.023 28.675 555.931 28.3833 555.931 28V26.225H556.156C556.023 26.8417 555.773 27.375 555.406 27.825C555.039 28.275 554.581 28.625 554.031 28.875C553.498 29.1083 552.889 29.225 552.206 29.225ZM562.836 29.175C562.453 29.175 562.161 29.075 561.961 28.875C561.761 28.675 561.661 28.3833 561.661 28V17.8C561.661 17.4167 561.761 17.1333 561.961 16.95C562.161 16.75 562.436 16.65 562.786 16.65C563.136 16.65 563.403 16.75 563.586 16.95C563.786 17.1333 563.886 17.4167 563.886 17.8V19.725H563.636C563.903 18.725 564.403 17.9667 565.136 17.45C565.869 16.9333 566.794 16.6417 567.911 16.575C568.178 16.5583 568.394 16.625 568.561 16.775C568.728 16.9083 568.819 17.1417 568.836 17.475C568.853 17.7917 568.778 18.05 568.611 18.25C568.444 18.4333 568.186 18.5417 567.836 18.575L567.386 18.6C566.286 18.7167 565.436 19.075 564.836 19.675C564.253 20.275 563.961 21.1 563.961 22.15V28C563.961 28.3833 563.861 28.675 563.661 28.875C563.478 29.075 563.203 29.175 562.836 29.175ZM574.349 33.675C574.082 33.675 573.857 33.6 573.674 33.45C573.507 33.3167 573.407 33.125 573.374 32.875C573.357 32.6417 573.407 32.3917 573.524 32.125L575.224 28.275V29.225L570.499 18.225C570.382 17.9417 570.34 17.6833 570.374 17.45C570.407 17.2167 570.515 17.025 570.699 16.875C570.899 16.725 571.165 16.65 571.499 16.65C571.782 16.65 572.007 16.7167 572.174 16.85C572.34 16.9833 572.499 17.2167 572.649 17.55L576.574 27.225H575.874L579.874 17.55C580.007 17.2167 580.165 16.9833 580.349 16.85C580.532 16.7167 580.782 16.65 581.099 16.65C581.382 16.65 581.599 16.725 581.749 16.875C581.915 17.025 582.015 17.2167 582.049 17.45C582.082 17.6833 582.032 17.9333 581.899 18.2L575.599 32.775C575.432 33.125 575.257 33.3583 575.074 33.475C574.907 33.6083 574.665 33.675 574.349 33.675ZM584.343 29.1C583.91 29.1 583.551 28.9583 583.268 28.675C582.985 28.3917 582.843 28.0333 582.843 27.6C582.843 27.1667 582.985 26.8167 583.268 26.55C583.551 26.2833 583.91 26.15 584.343 26.15C584.81 26.15 585.168 26.2833 585.418 26.55C585.685 26.8167 585.818 27.1667 585.818 27.6C585.818 28.0333 585.685 28.3917 585.418 28.675C585.168 28.9583 584.81 29.1 584.343 29.1ZM589.11 16.575C588.943 16.7917 588.76 16.9167 588.56 16.95C588.376 16.9833 588.21 16.95 588.06 16.85C587.926 16.75 587.851 16.6 587.835 16.4C587.818 16.2 587.901 15.9833 588.085 15.75C588.368 15.4 588.56 15.0417 588.66 14.675C588.776 14.2917 588.835 13.95 588.835 13.65L588.935 14.225C588.468 14.225 588.085 14.0917 587.785 13.825C587.501 13.5583 587.36 13.2 587.36 12.75C587.36 12.3167 587.493 11.9667 587.76 11.7C588.026 11.4167 588.385 11.275 588.835 11.275C589.285 11.275 589.643 11.4333 589.91 11.75C590.193 12.05 590.335 12.5 590.335 13.1C590.335 13.45 590.293 13.825 590.21 14.225C590.143 14.6083 590.026 15 589.86 15.4C589.693 15.8 589.443 16.1917 589.11 16.575ZM593.41 16.575C593.243 16.7917 593.06 16.9167 592.86 16.95C592.676 16.9833 592.51 16.95 592.36 16.85C592.226 16.75 592.151 16.6 592.135 16.4C592.118 16.2 592.201 15.9833 592.385 15.75C592.668 15.4 592.86 15.0417 592.96 14.675C593.076 14.2917 593.135 13.95 593.135 13.65L593.235 14.225C592.768 14.225 592.385 14.0917 592.085 13.825C591.801 13.5583 591.66 13.2 591.66 12.75C591.66 12.3167 591.793 11.9667 592.06 11.7C592.326 11.4167 592.685 11.275 593.135 11.275C593.585 11.275 593.943 11.4333 594.21 11.75C594.493 12.05 594.635 12.5 594.635 13.1C594.635 13.45 594.593 13.825 594.51 14.225C594.443 14.6083 594.326 15 594.16 15.4C593.993 15.8 593.743 16.1917 593.41 16.575Z" fill="#456EDE"/>
<path d="M296.65 81.725C296.817 81.5083 296.992 81.3833 297.175 81.35C297.375 81.3167 297.542 81.35 297.675 81.45C297.825 81.55 297.908 81.7 297.925 81.9C297.942 82.1 297.858 82.3167 297.675 82.55C297.392 82.9 297.192 83.2667 297.075 83.65C296.975 84.0167 296.925 84.35 296.925 84.65L296.825 84.075C297.292 84.075 297.667 84.2167 297.95 84.5C298.25 84.7667 298.4 85.125 298.4 85.575C298.4 85.9917 298.267 86.3417 298 86.625C297.733 86.8917 297.375 87.025 296.925 87.025C296.475 87.025 296.108 86.8667 295.825 86.55C295.558 86.2333 295.425 85.7833 295.425 85.2C295.425 84.85 295.458 84.4833 295.525 84.1C295.608 83.7 295.733 83.3 295.9 82.9C296.083 82.5 296.333 82.1083 296.65 81.725ZM300.95 81.725C301.117 81.5083 301.292 81.3833 301.475 81.35C301.675 81.3167 301.842 81.35 301.975 81.45C302.125 81.55 302.208 81.7 302.225 81.9C302.242 82.1 302.158 82.3167 301.975 82.55C301.692 82.9 301.492 83.2667 301.375 83.65C301.275 84.0167 301.225 84.35 301.225 84.65L301.125 84.075C301.592 84.075 301.967 84.2167 302.25 84.5C302.55 84.7667 302.7 85.125 302.7 85.575C302.7 85.9917 302.567 86.3417 302.3 86.625C302.033 86.8917 301.675 87.025 301.225 87.025C300.775 87.025 300.408 86.8667 300.125 86.55C299.858 86.2333 299.725 85.7833 299.725 85.2C299.725 84.85 299.758 84.4833 299.825 84.1C299.908 83.7 300.033 83.3 300.2 82.9C300.383 82.5 300.633 82.1083 300.95 81.725ZM314.557 99.175C314.19 99.175 313.907 99.075 313.707 98.875C313.507 98.675 313.407 98.3833 313.407 98V95.325H306.457C306.09 95.325 305.79 95.2417 305.557 95.075C305.34 94.9083 305.232 94.65 305.232 94.3C305.232 94.1 305.282 93.8917 305.382 93.675C305.482 93.4583 305.657 93.1667 305.907 92.8L313.332 81.975C313.515 81.725 313.707 81.5333 313.907 81.4C314.124 81.2667 314.365 81.2 314.632 81.2C314.932 81.2 315.182 81.3 315.382 81.5C315.599 81.6833 315.707 81.975 315.707 82.375V93.35H317.407C317.774 93.35 318.049 93.4333 318.232 93.6C318.415 93.7667 318.507 94.0083 318.507 94.325C318.507 94.6583 318.415 94.9083 318.232 95.075C318.049 95.2417 317.774 95.325 317.407 95.325H315.707V98C315.707 98.3833 315.607 98.675 315.407 98.875C315.207 99.075 314.924 99.175 314.557 99.175ZM313.407 93.35V84.1H314.032L307.282 93.975V93.35H313.407ZM326.622 99.225C325.289 99.225 324.147 99.0333 323.197 98.65C322.264 98.2667 321.539 97.7083 321.022 96.975C320.522 96.2417 320.272 95.35 320.272 94.3C320.272 93.4833 320.439 92.7583 320.772 92.125C321.122 91.475 321.597 90.95 322.197 90.55C322.797 90.15 323.489 89.9 324.272 89.8V90.2C323.172 89.9667 322.297 89.4583 321.647 88.675C321.014 87.875 320.697 86.9333 320.697 85.85C320.697 84.8667 320.939 84.025 321.422 83.325C321.922 82.6083 322.614 82.0667 323.497 81.7C324.38 81.3333 325.422 81.15 326.622 81.15C327.839 81.15 328.889 81.3333 329.772 81.7C330.655 82.0667 331.339 82.6083 331.822 83.325C332.305 84.025 332.547 84.8667 332.547 85.85C332.547 86.5667 332.397 87.2333 332.097 87.85C331.814 88.4667 331.405 88.975 330.872 89.375C330.355 89.775 329.739 90.05 329.022 90.2V89.8C330.189 89.9667 331.139 90.4583 331.872 91.275C332.605 92.075 332.972 93.0833 332.972 94.3C332.972 95.35 332.714 96.2417 332.197 96.975C331.697 97.7083 330.972 98.2667 330.022 98.65C329.089 99.0333 327.955 99.225 326.622 99.225ZM326.622 97.35C327.989 97.35 329.022 97.0833 329.722 96.55C330.422 96.0167 330.772 95.225 330.772 94.175C330.772 93.1083 330.422 92.3167 329.722 91.8C329.022 91.2833 327.989 91.025 326.622 91.025C325.272 91.025 324.239 91.2833 323.522 91.8C322.822 92.3167 322.472 93.1083 322.472 94.175C322.472 95.225 322.822 96.0167 323.522 96.55C324.239 97.0833 325.272 97.35 326.622 97.35ZM326.622 89.125C327.405 89.125 328.072 89.0083 328.622 88.775C329.172 88.525 329.597 88.1667 329.897 87.7C330.197 87.2333 330.347 86.6833 330.347 86.05C330.347 85.1 330.014 84.3583 329.347 83.825C328.697 83.2917 327.789 83.025 326.622 83.025C325.455 83.025 324.547 83.2917 323.897 83.825C323.247 84.3583 322.922 85.1 322.922 86.05C322.922 87.0167 323.247 87.775 323.897 88.325C324.547 88.8583 325.455 89.125 326.622 89.125ZM341.787 98.975C341.654 99.2083 341.487 99.3583 341.287 99.425C341.104 99.5083 340.921 99.525 340.737 99.475C340.554 99.4417 340.396 99.35 340.262 99.2C340.146 99.0667 340.079 98.9 340.062 98.7C340.046 98.5 340.096 98.2833 340.212 98.05L349.762 81.45C349.896 81.2167 350.054 81.0583 350.237 80.975C350.421 80.8917 350.604 80.875 350.787 80.925C350.971 80.9583 351.121 81.05 351.237 81.2C351.371 81.3333 351.454 81.5 351.487 81.7C351.521 81.9 351.471 82.1167 351.337 82.35L341.787 98.975ZM339.737 91.925C338.387 91.925 337.329 91.45 336.562 90.5C335.812 89.55 335.437 88.225 335.437 86.525C335.437 85.3917 335.604 84.425 335.937 83.625C336.287 82.825 336.779 82.2167 337.412 81.8C338.062 81.3667 338.837 81.15 339.737 81.15C341.071 81.15 342.121 81.625 342.887 82.575C343.654 83.525 344.037 84.8417 344.037 86.525C344.037 87.6583 343.862 88.6333 343.512 89.45C343.179 90.25 342.687 90.8667 342.037 91.3C341.404 91.7167 340.637 91.925 339.737 91.925ZM339.737 90.3C340.237 90.3 340.662 90.1667 341.012 89.9C341.362 89.6167 341.629 89.2 341.812 88.65C341.996 88.0833 342.087 87.375 342.087 86.525C342.087 85.275 341.879 84.3417 341.462 83.725C341.046 83.0917 340.471 82.775 339.737 82.775C339.254 82.775 338.829 82.9167 338.462 83.2C338.112 83.4667 337.837 83.8833 337.637 84.45C337.454 85 337.362 85.6917 337.362 86.525C337.362 87.7917 337.571 88.7417 337.987 89.375C338.421 89.9917 339.004 90.3 339.737 90.3ZM351.837 99.225C350.487 99.225 349.429 98.75 348.662 97.8C347.912 96.85 347.537 95.525 347.537 93.825C347.537 92.6917 347.704 91.725 348.037 90.925C348.387 90.125 348.879 89.5167 349.512 89.1C350.162 88.6667 350.937 88.45 351.837 88.45C353.171 88.45 354.221 88.925 354.987 89.875C355.754 90.825 356.137 92.1417 356.137 93.825C356.137 94.9583 355.962 95.9333 355.612 96.75C355.279 97.55 354.787 98.1667 354.137 98.6C353.504 99.0167 352.737 99.225 351.837 99.225ZM351.837 97.6C352.337 97.6 352.762 97.4667 353.112 97.2C353.462 96.9167 353.729 96.5 353.912 95.95C354.096 95.3833 354.187 94.675 354.187 93.825C354.187 92.575 353.979 91.6417 353.562 91.025C353.146 90.3917 352.571 90.075 351.837 90.075C351.354 90.075 350.929 90.2167 350.562 90.5C350.212 90.7667 349.937 91.1833 349.737 91.75C349.554 92.3 349.462 92.9917 349.462 93.825C349.462 95.0917 349.671 96.0417 350.087 96.675C350.521 97.2917 351.104 97.6 351.837 97.6ZM370.946 99.225C369.746 99.225 368.705 98.9667 367.821 98.45C366.938 97.9333 366.255 97.2 365.771 96.25C365.288 95.3 365.046 94.1833 365.046 92.9C365.046 91.9333 365.18 91.0667 365.446 90.3C365.73 89.5167 366.13 88.85 366.646 88.3C367.163 87.75 367.78 87.3333 368.496 87.05C369.23 86.75 370.046 86.6 370.946 86.6C372.146 86.6 373.188 86.8583 374.071 87.375C374.955 87.8917 375.638 88.625 376.121 89.575C376.605 90.5083 376.846 91.6167 376.846 92.9C376.846 93.8667 376.705 94.7417 376.421 95.525C376.155 96.3083 375.763 96.975 375.246 97.525C374.73 98.075 374.105 98.5 373.371 98.8C372.655 99.0833 371.846 99.225 370.946 99.225ZM370.946 97.425C371.68 97.425 372.313 97.25 372.846 96.9C373.396 96.55 373.813 96.0417 374.096 95.375C374.396 94.7083 374.546 93.8833 374.546 92.9C374.546 91.4333 374.221 90.3167 373.571 89.55C372.921 88.7833 372.046 88.4 370.946 88.4C370.23 88.4 369.596 88.575 369.046 88.925C368.513 89.2583 368.096 89.7583 367.796 90.425C367.496 91.0917 367.346 91.9167 367.346 92.9C367.346 94.3667 367.671 95.4917 368.321 96.275C368.988 97.0417 369.863 97.425 370.946 97.425ZM381.488 99.175C381.122 99.175 380.838 99.075 380.638 98.875C380.438 98.675 380.338 98.3833 380.338 98V88.575H378.838C378.538 88.575 378.305 88.5 378.138 88.35C377.972 88.1833 377.888 87.9667 377.888 87.7C377.888 87.4167 377.972 87.2 378.138 87.05C378.305 86.9 378.538 86.825 378.838 86.825H380.963L380.338 87.425V86.5C380.338 84.8833 380.73 83.6583 381.513 82.825C382.313 81.975 383.48 81.4833 385.013 81.35L385.788 81.3C386.038 81.2667 386.238 81.3083 386.388 81.425C386.538 81.525 386.638 81.6583 386.688 81.825C386.738 81.9917 386.738 82.1667 386.688 82.35C386.655 82.5167 386.58 82.6667 386.463 82.8C386.347 82.9333 386.197 83.0083 386.013 83.025L385.463 83.05C384.463 83.1333 383.738 83.4333 383.288 83.95C382.838 84.45 382.613 85.2 382.613 86.2V87.2L382.288 86.825H385.163C385.48 86.825 385.722 86.9 385.888 87.05C386.055 87.2 386.138 87.4167 386.138 87.7C386.138 87.9667 386.055 88.1833 385.888 88.35C385.722 88.5 385.48 88.575 385.163 88.575H382.613V98C382.613 98.7833 382.238 99.175 381.488 99.175ZM395.778 103.675C395.428 103.675 395.153 103.575 394.953 103.375C394.753 103.175 394.653 102.892 394.653 102.525V87.8C394.653 87.4167 394.753 87.1333 394.953 86.95C395.153 86.75 395.428 86.65 395.778 86.65C396.145 86.65 396.42 86.75 396.603 86.95C396.803 87.1333 396.903 87.4167 396.903 87.8V90.075L396.628 89.625C396.895 88.7083 397.42 87.975 398.203 87.425C398.986 86.875 399.928 86.6 401.028 86.6C402.111 86.6 403.053 86.8583 403.853 87.375C404.653 87.875 405.278 88.6 405.728 89.55C406.178 90.4833 406.403 91.6 406.403 92.9C406.403 94.1833 406.178 95.3083 405.728 96.275C405.295 97.225 404.67 97.9583 403.853 98.475C403.053 98.975 402.111 99.225 401.028 99.225C399.945 99.225 399.011 98.95 398.228 98.4C397.445 97.85 396.92 97.125 396.653 96.225H396.928V102.525C396.928 102.892 396.828 103.175 396.628 103.375C396.428 103.575 396.145 103.675 395.778 103.675ZM400.503 97.425C401.22 97.425 401.845 97.25 402.378 96.9C402.928 96.55 403.353 96.0417 403.653 95.375C403.953 94.7083 404.103 93.8833 404.103 92.9C404.103 91.4333 403.778 90.3167 403.128 89.55C402.478 88.7833 401.603 88.4 400.503 88.4C399.77 88.4 399.128 88.575 398.578 88.925C398.045 89.2583 397.628 89.7583 397.328 90.425C397.045 91.0917 396.903 91.9167 396.903 92.9C396.903 94.3667 397.228 95.4917 397.878 96.275C398.528 97.0417 399.403 97.425 400.503 97.425ZM413.201 99.225C412.368 99.225 411.609 99.0583 410.926 98.725C410.259 98.3917 409.734 97.9417 409.351 97.375C408.984 96.8083 408.801 96.175 408.801 95.475C408.801 94.575 409.026 93.8667 409.476 93.35C409.926 92.8333 410.684 92.4667 411.751 92.25C412.818 92.0167 414.251 91.9 416.051 91.9H417.226V93.35H416.101C414.818 93.35 413.801 93.4083 413.051 93.525C412.318 93.6417 411.801 93.85 411.501 94.15C411.201 94.4333 411.051 94.8333 411.051 95.35C411.051 96 411.276 96.5333 411.726 96.95C412.193 97.3667 412.826 97.575 413.626 97.575C414.259 97.575 414.818 97.425 415.301 97.125C415.784 96.8083 416.168 96.3917 416.451 95.875C416.734 95.3417 416.876 94.7333 416.876 94.05V91.175C416.876 90.1917 416.676 89.4833 416.276 89.05C415.876 88.6 415.201 88.375 414.251 88.375C413.701 88.375 413.134 88.45 412.551 88.6C411.968 88.75 411.359 88.9833 410.726 89.3C410.476 89.4167 410.259 89.4583 410.076 89.425C409.893 89.375 409.743 89.275 409.626 89.125C409.526 88.9583 409.468 88.7833 409.451 88.6C409.451 88.4 409.493 88.2083 409.576 88.025C409.676 87.8417 409.843 87.7083 410.076 87.625C410.809 87.2583 411.534 87 412.251 86.85C412.984 86.6833 413.668 86.6 414.301 86.6C415.384 86.6 416.276 86.775 416.976 87.125C417.676 87.4583 418.201 87.9833 418.551 88.7C418.901 89.4 419.076 90.3 419.076 91.4V98C419.076 98.3833 418.984 98.675 418.801 98.875C418.618 99.075 418.351 99.175 418.001 99.175C417.668 99.175 417.401 99.075 417.201 98.875C417.018 98.675 416.926 98.3833 416.926 98V96.225H417.151C417.018 96.8417 416.768 97.375 416.401 97.825C416.034 98.275 415.576 98.625 415.026 98.875C414.493 99.1083 413.884 99.225 413.201 99.225ZM423.831 99.175C423.448 99.175 423.156 99.075 422.956 98.875C422.756 98.675 422.656 98.3833 422.656 98V87.8C422.656 87.4167 422.756 87.1333 422.956 86.95C423.156 86.75 423.431 86.65 423.781 86.65C424.131 86.65 424.398 86.75 424.581 86.95C424.781 87.1333 424.881 87.4167 424.881 87.8V89.725H424.631C424.898 88.725 425.398 87.9667 426.131 87.45C426.864 86.9333 427.789 86.6417 428.906 86.575C429.173 86.5583 429.389 86.625 429.556 86.775C429.723 86.9083 429.814 87.1417 429.831 87.475C429.848 87.7917 429.773 88.05 429.606 88.25C429.439 88.4333 429.181 88.5417 428.831 88.575L428.381 88.6C427.281 88.7167 426.431 89.075 425.831 89.675C425.248 90.275 424.956 91.1 424.956 92.15V98C424.956 98.3833 424.856 98.675 424.656 98.875C424.473 99.075 424.198 99.175 423.831 99.175ZM437.241 99.225C435.924 99.225 434.791 98.975 433.841 98.475C432.908 97.9583 432.183 97.2333 431.666 96.3C431.149 95.35 430.891 94.2333 430.891 92.95C430.891 91.6833 431.141 90.575 431.641 89.625C432.158 88.675 432.858 87.9333 433.741 87.4C434.641 86.8667 435.666 86.6 436.816 86.6C437.633 86.6 438.366 86.7417 439.016 87.025C439.683 87.2917 440.249 87.6833 440.716 88.2C441.183 88.7167 441.533 89.35 441.766 90.1C442.016 90.8333 442.141 91.6667 442.141 92.6C442.141 92.8667 442.058 93.075 441.891 93.225C441.741 93.3583 441.516 93.425 441.216 93.425H432.666V91.975H440.641L440.216 92.325C440.216 91.4583 440.083 90.725 439.816 90.125C439.566 89.5083 439.191 89.0417 438.691 88.725C438.208 88.4083 437.599 88.25 436.866 88.25C436.066 88.25 435.383 88.4417 434.816 88.825C434.249 89.1917 433.816 89.7167 433.516 90.4C433.216 91.0667 433.066 91.8417 433.066 92.725V92.875C433.066 94.375 433.424 95.5083 434.141 96.275C434.858 97.0417 435.891 97.425 437.241 97.425C437.774 97.425 438.316 97.3583 438.866 97.225C439.433 97.0917 439.974 96.85 440.491 96.5C440.741 96.35 440.966 96.2833 441.166 96.3C441.383 96.3 441.558 96.3667 441.691 96.5C441.824 96.6167 441.908 96.7667 441.941 96.95C441.974 97.1167 441.949 97.3 441.866 97.5C441.783 97.7 441.624 97.875 441.391 98.025C440.841 98.4083 440.183 98.7083 439.416 98.925C438.666 99.125 437.941 99.225 437.241 99.225ZM446.096 99.175C445.746 99.175 445.471 99.075 445.271 98.875C445.071 98.675 444.971 98.3833 444.971 98V87.8C444.971 87.4167 445.071 87.1333 445.271 86.95C445.471 86.75 445.746 86.65 446.096 86.65C446.446 86.65 446.712 86.75 446.896 86.95C447.096 87.1333 447.196 87.4167 447.196 87.8V89.85L446.921 89.475C447.271 88.525 447.837 87.8083 448.621 87.325C449.421 86.8417 450.329 86.6 451.346 86.6C452.329 86.6 453.137 86.775 453.771 87.125C454.404 87.475 454.879 88.0083 455.196 88.725C455.512 89.4417 455.671 90.35 455.671 91.45V98C455.671 98.3833 455.571 98.675 455.371 98.875C455.187 99.075 454.912 99.175 454.546 99.175C454.179 99.175 453.896 99.075 453.696 98.875C453.496 98.675 453.396 98.3833 453.396 98V91.575C453.396 90.4917 453.187 89.7 452.771 89.2C452.354 88.7 451.687 88.45 450.771 88.45C449.704 88.45 448.846 88.7833 448.196 89.45C447.562 90.1 447.246 90.9833 447.246 92.1V98C447.246 98.7833 446.862 99.175 446.096 99.175ZM464.327 99.225C463.344 99.225 462.519 99.05 461.852 98.7C461.202 98.35 460.71 97.8417 460.377 97.175C460.06 96.5083 459.902 95.6917 459.902 94.725V88.575H458.302C458.002 88.575 457.769 88.5 457.602 88.35C457.435 88.1833 457.352 87.9667 457.352 87.7C457.352 87.4167 457.435 87.2 457.602 87.05C457.769 86.9 458.002 86.825 458.302 86.825H459.902V84.1C459.902 83.7167 460.002 83.4333 460.202 83.25C460.402 83.05 460.685 82.95 461.052 82.95C461.419 82.95 461.694 83.05 461.877 83.25C462.077 83.4333 462.177 83.7167 462.177 84.1V86.825H465.202C465.519 86.825 465.76 86.9 465.927 87.05C466.094 87.2 466.177 87.4167 466.177 87.7C466.177 87.9667 466.094 88.1833 465.927 88.35C465.76 88.5 465.519 88.575 465.202 88.575H462.177V94.525C462.177 95.4417 462.369 96.1333 462.752 96.6C463.135 97.0667 463.769 97.3 464.652 97.3C464.969 97.3 465.235 97.275 465.452 97.225C465.669 97.1583 465.86 97.125 466.027 97.125C466.177 97.1083 466.302 97.1583 466.402 97.275C466.519 97.3917 466.577 97.6083 466.577 97.925C466.577 98.1583 466.535 98.375 466.452 98.575C466.385 98.7583 466.244 98.8833 466.027 98.95C465.827 99.0167 465.56 99.075 465.227 99.125C464.894 99.1917 464.594 99.225 464.327 99.225ZM472.437 99.225C471.687 99.225 470.929 99.1417 470.162 98.975C469.412 98.7917 468.704 98.4833 468.037 98.05C467.854 97.9333 467.72 97.7917 467.637 97.625C467.57 97.4417 467.545 97.2667 467.562 97.1C467.595 96.9167 467.67 96.7583 467.787 96.625C467.904 96.4917 468.045 96.4167 468.212 96.4C468.395 96.3667 468.587 96.4083 468.787 96.525C469.437 96.8917 470.062 97.15 470.662 97.3C471.279 97.45 471.887 97.525 472.487 97.525C473.404 97.525 474.095 97.3583 474.562 97.025C475.029 96.6917 475.262 96.25 475.262 95.7C475.262 95.2333 475.104 94.875 474.787 94.625C474.487 94.3583 474.012 94.1583 473.362 94.025L471.037 93.55C470.004 93.3167 469.22 92.9333 468.687 92.4C468.17 91.85 467.912 91.15 467.912 90.3C467.912 89.55 468.112 88.9 468.512 88.35C468.929 87.7833 469.504 87.35 470.237 87.05C470.97 86.75 471.812 86.6 472.762 86.6C473.495 86.6 474.187 86.7 474.837 86.9C475.504 87.0833 476.104 87.3667 476.637 87.75C476.837 87.8667 476.962 88.0167 477.012 88.2C477.079 88.3667 477.087 88.5417 477.037 88.725C477.004 88.8917 476.929 89.0333 476.812 89.15C476.695 89.2667 476.545 89.3417 476.362 89.375C476.179 89.3917 475.979 89.3417 475.762 89.225C475.279 88.8917 474.779 88.6583 474.262 88.525C473.762 88.375 473.262 88.3 472.762 88.3C471.862 88.3 471.179 88.475 470.712 88.825C470.262 89.175 470.037 89.6333 470.037 90.2C470.037 90.6333 470.17 90.9917 470.437 91.275C470.72 91.5583 471.162 91.7667 471.762 91.9L474.087 92.375C475.17 92.6083 475.987 92.9833 476.537 93.5C477.087 94 477.362 94.6833 477.362 95.55C477.362 96.6833 476.912 97.5833 476.012 98.25C475.129 98.9 473.937 99.225 472.437 99.225ZM488.691 99.175C488.324 99.175 488.041 99.075 487.841 98.875C487.641 98.675 487.541 98.3833 487.541 98V88.575H486.041C485.741 88.575 485.507 88.5 485.341 88.35C485.174 88.1833 485.091 87.9667 485.091 87.7C485.091 87.4167 485.174 87.2 485.341 87.05C485.507 86.9 485.741 86.825 486.041 86.825H488.166L487.541 87.425V86.5C487.541 84.8833 487.932 83.6583 488.716 82.825C489.516 81.975 490.682 81.4833 492.216 81.35L492.991 81.3C493.241 81.2667 493.441 81.3083 493.591 81.425C493.741 81.525 493.841 81.6583 493.891 81.825C493.941 81.9917 493.941 82.1667 493.891 82.35C493.857 82.5167 493.782 82.6667 493.666 82.8C493.549 82.9333 493.399 83.0083 493.216 83.025L492.666 83.05C491.666 83.1333 490.941 83.4333 490.491 83.95C490.041 84.45 489.816 85.2 489.816 86.2V87.2L489.491 86.825H492.366C492.682 86.825 492.924 86.9 493.091 87.05C493.257 87.2 493.341 87.4167 493.341 87.7C493.341 87.9667 493.257 88.1833 493.091 88.35C492.924 88.5 492.682 88.575 492.366 88.575H489.816V98C489.816 98.7833 489.441 99.175 488.691 99.175ZM500.62 99.225C499.303 99.225 498.17 98.975 497.22 98.475C496.287 97.9583 495.562 97.2333 495.045 96.3C494.528 95.35 494.27 94.2333 494.27 92.95C494.27 91.6833 494.52 90.575 495.02 89.625C495.537 88.675 496.237 87.9333 497.12 87.4C498.02 86.8667 499.045 86.6 500.195 86.6C501.012 86.6 501.745 86.7417 502.395 87.025C503.062 87.2917 503.628 87.6833 504.095 88.2C504.562 88.7167 504.912 89.35 505.145 90.1C505.395 90.8333 505.52 91.6667 505.52 92.6C505.52 92.8667 505.437 93.075 505.27 93.225C505.12 93.3583 504.895 93.425 504.595 93.425H496.045V91.975H504.02L503.595 92.325C503.595 91.4583 503.462 90.725 503.195 90.125C502.945 89.5083 502.57 89.0417 502.07 88.725C501.587 88.4083 500.978 88.25 500.245 88.25C499.445 88.25 498.762 88.4417 498.195 88.825C497.628 89.1917 497.195 89.7167 496.895 90.4C496.595 91.0667 496.445 91.8417 496.445 92.725V92.875C496.445 94.375 496.803 95.5083 497.52 96.275C498.237 97.0417 499.27 97.425 500.62 97.425C501.153 97.425 501.695 97.3583 502.245 97.225C502.812 97.0917 503.353 96.85 503.87 96.5C504.12 96.35 504.345 96.2833 504.545 96.3C504.762 96.3 504.937 96.3667 505.07 96.5C505.203 96.6167 505.287 96.7667 505.32 96.95C505.353 97.1167 505.328 97.3 505.245 97.5C505.162 97.7 505.003 97.875 504.77 98.025C504.22 98.4083 503.562 98.7083 502.795 98.925C502.045 99.125 501.32 99.225 500.62 99.225ZM513.974 99.225C512.658 99.225 511.524 98.975 510.574 98.475C509.641 97.9583 508.916 97.2333 508.399 96.3C507.883 95.35 507.624 94.2333 507.624 92.95C507.624 91.6833 507.874 90.575 508.374 89.625C508.891 88.675 509.591 87.9333 510.474 87.4C511.374 86.8667 512.399 86.6 513.549 86.6C514.366 86.6 515.099 86.7417 515.749 87.025C516.416 87.2917 516.983 87.6833 517.449 88.2C517.916 88.7167 518.266 89.35 518.499 90.1C518.749 90.8333 518.874 91.6667 518.874 92.6C518.874 92.8667 518.791 93.075 518.624 93.225C518.474 93.3583 518.249 93.425 517.949 93.425H509.399V91.975H517.374L516.949 92.325C516.949 91.4583 516.816 90.725 516.549 90.125C516.299 89.5083 515.924 89.0417 515.424 88.725C514.941 88.4083 514.333 88.25 513.599 88.25C512.799 88.25 512.116 88.4417 511.549 88.825C510.983 89.1917 510.549 89.7167 510.249 90.4C509.949 91.0667 509.799 91.8417 509.799 92.725V92.875C509.799 94.375 510.158 95.5083 510.874 96.275C511.591 97.0417 512.624 97.425 513.974 97.425C514.508 97.425 515.049 97.3583 515.599 97.225C516.166 97.0917 516.708 96.85 517.224 96.5C517.474 96.35 517.699 96.2833 517.899 96.3C518.116 96.3 518.291 96.3667 518.424 96.5C518.558 96.6167 518.641 96.7667 518.674 96.95C518.708 97.1167 518.683 97.3 518.599 97.5C518.516 97.7 518.358 97.875 518.124 98.025C517.574 98.4083 516.916 98.7083 516.149 98.925C515.399 99.125 514.674 99.225 513.974 99.225ZM525.529 99.225C524.279 99.225 523.329 98.8583 522.679 98.125C522.029 97.375 521.704 96.3 521.704 94.9V82.35C521.704 81.9667 521.804 81.6833 522.004 81.5C522.204 81.3 522.479 81.2 522.829 81.2C523.196 81.2 523.479 81.3 523.679 81.5C523.879 81.6833 523.979 81.9667 523.979 82.35V94.725C523.979 95.5917 524.154 96.2417 524.504 96.675C524.871 97.0917 525.387 97.3 526.054 97.3C526.204 97.3 526.337 97.3 526.454 97.3C526.571 97.2833 526.687 97.2667 526.804 97.25C526.987 97.2333 527.121 97.2833 527.204 97.4C527.287 97.5167 527.329 97.75 527.329 98.1C527.329 98.4167 527.254 98.6667 527.104 98.85C526.971 99.0167 526.746 99.125 526.429 99.175C526.279 99.1917 526.129 99.2 525.979 99.2C525.829 99.2167 525.679 99.225 525.529 99.225ZM540.092 99.225C539.109 99.225 538.284 99.0417 537.617 98.675C536.967 98.3083 536.484 97.7667 536.167 97.05C535.85 96.3333 535.692 95.4333 535.692 94.35V87.8C535.692 87.4167 535.784 87.1333 535.967 86.95C536.167 86.75 536.45 86.65 536.817 86.65C537.184 86.65 537.467 86.75 537.667 86.95C537.867 87.1333 537.967 87.4167 537.967 87.8V94.35C537.967 95.3833 538.175 96.15 538.592 96.65C539.009 97.1333 539.667 97.375 540.567 97.375C541.567 97.375 542.375 97.0417 542.992 96.375C543.625 95.7083 543.942 94.825 543.942 93.725V87.8C543.942 87.4167 544.034 87.1333 544.217 86.95C544.417 86.75 544.7 86.65 545.067 86.65C545.434 86.65 545.717 86.75 545.917 86.95C546.117 87.1333 546.217 87.4167 546.217 87.8V98C546.217 98.7833 545.85 99.175 545.117 99.175C544.75 99.175 544.467 99.075 544.267 98.875C544.084 98.675 543.992 98.3833 543.992 98V95.825L544.317 96.25C543.984 97.2167 543.442 97.9583 542.692 98.475C541.959 98.975 541.092 99.225 540.092 99.225ZM551.003 99.175C550.653 99.175 550.378 99.075 550.178 98.875C549.978 98.675 549.878 98.3833 549.878 98V87.8C549.878 87.4167 549.978 87.1333 550.178 86.95C550.378 86.75 550.653 86.65 551.003 86.65C551.353 86.65 551.619 86.75 551.803 86.95C552.003 87.1333 552.103 87.4167 552.103 87.8V89.85L551.828 89.475C552.178 88.525 552.744 87.8083 553.528 87.325C554.328 86.8417 555.236 86.6 556.253 86.6C557.236 86.6 558.044 86.775 558.678 87.125C559.311 87.475 559.786 88.0083 560.103 88.725C560.419 89.4417 560.578 90.35 560.578 91.45V98C560.578 98.3833 560.478 98.675 560.278 98.875C560.094 99.075 559.819 99.175 559.453 99.175C559.086 99.175 558.803 99.075 558.603 98.875C558.403 98.675 558.303 98.3833 558.303 98V91.575C558.303 90.4917 558.094 89.7 557.678 89.2C557.261 88.7 556.594 88.45 555.678 88.45C554.611 88.45 553.753 88.7833 553.103 89.45C552.469 90.1 552.153 90.9833 552.153 92.1V98C552.153 98.7833 551.769 99.175 551.003 99.175ZM568.384 99.225C567.634 99.225 566.876 99.1417 566.109 98.975C565.359 98.7917 564.651 98.4833 563.984 98.05C563.801 97.9333 563.668 97.7917 563.584 97.625C563.518 97.4417 563.493 97.2667 563.509 97.1C563.543 96.9167 563.618 96.7583 563.734 96.625C563.851 96.4917 563.993 96.4167 564.159 96.4C564.343 96.3667 564.534 96.4083 564.734 96.525C565.384 96.8917 566.009 97.15 566.609 97.3C567.226 97.45 567.834 97.525 568.434 97.525C569.351 97.525 570.043 97.3583 570.509 97.025C570.976 96.6917 571.209 96.25 571.209 95.7C571.209 95.2333 571.051 94.875 570.734 94.625C570.434 94.3583 569.959 94.1583 569.309 94.025L566.984 93.55C565.951 93.3167 565.168 92.9333 564.634 92.4C564.118 91.85 563.859 91.15 563.859 90.3C563.859 89.55 564.059 88.9 564.459 88.35C564.876 87.7833 565.451 87.35 566.184 87.05C566.918 86.75 567.759 86.6 568.709 86.6C569.443 86.6 570.134 86.7 570.784 86.9C571.451 87.0833 572.051 87.3667 572.584 87.75C572.784 87.8667 572.909 88.0167 572.959 88.2C573.026 88.3667 573.034 88.5417 572.984 88.725C572.951 88.8917 572.876 89.0333 572.759 89.15C572.643 89.2667 572.493 89.3417 572.309 89.375C572.126 89.3917 571.926 89.3417 571.709 89.225C571.226 88.8917 570.726 88.6583 570.209 88.525C569.709 88.375 569.209 88.3 568.709 88.3C567.809 88.3 567.126 88.475 566.659 88.825C566.209 89.175 565.984 89.6333 565.984 90.2C565.984 90.6333 566.118 90.9917 566.384 91.275C566.668 91.5583 567.109 91.7667 567.709 91.9L570.034 92.375C571.118 92.6083 571.934 92.9833 572.484 93.5C573.034 94 573.309 94.6833 573.309 95.55C573.309 96.6833 572.859 97.5833 571.959 98.25C571.076 98.9 569.884 99.225 568.384 99.225ZM580.619 99.225C579.636 99.225 578.811 99.0417 578.144 98.675C577.494 98.3083 577.011 97.7667 576.694 97.05C576.378 96.3333 576.219 95.4333 576.219 94.35V87.8C576.219 87.4167 576.311 87.1333 576.494 86.95C576.694 86.75 576.978 86.65 577.344 86.65C577.711 86.65 577.994 86.75 578.194 86.95C578.394 87.1333 578.494 87.4167 578.494 87.8V94.35C578.494 95.3833 578.703 96.15 579.119 96.65C579.536 97.1333 580.194 97.375 581.094 97.375C582.094 97.375 582.903 97.0417 583.519 96.375C584.153 95.7083 584.469 94.825 584.469 93.725V87.8C584.469 87.4167 584.561 87.1333 584.744 86.95C584.944 86.75 585.228 86.65 585.594 86.65C585.961 86.65 586.244 86.75 586.444 86.95C586.644 87.1333 586.744 87.4167 586.744 87.8V98C586.744 98.7833 586.378 99.175 585.644 99.175C585.278 99.175 584.994 99.075 584.794 98.875C584.611 98.675 584.519 98.3833 584.519 98V95.825L584.844 96.25C584.511 97.2167 583.969 97.9583 583.219 98.475C582.486 98.975 581.619 99.225 580.619 99.225ZM591.53 103.675C591.18 103.675 590.905 103.575 590.705 103.375C590.505 103.175 590.405 102.892 590.405 102.525V87.8C590.405 87.4167 590.505 87.1333 590.705 86.95C590.905 86.75 591.18 86.65 591.53 86.65C591.897 86.65 592.172 86.75 592.355 86.95C592.555 87.1333 592.655 87.4167 592.655 87.8V90.075L592.38 89.625C592.647 88.7083 593.172 87.975 593.955 87.425C594.738 86.875 595.68 86.6 596.78 86.6C597.863 86.6 598.805 86.8583 599.605 87.375C600.405 87.875 601.03 88.6 601.48 89.55C601.93 90.4833 602.155 91.6 602.155 92.9C602.155 94.1833 601.93 95.3083 601.48 96.275C601.047 97.225 600.422 97.9583 599.605 98.475C598.805 98.975 597.863 99.225 596.78 99.225C595.697 99.225 594.763 98.95 593.98 98.4C593.197 97.85 592.672 97.125 592.405 96.225H592.68V102.525C592.68 102.892 592.58 103.175 592.38 103.375C592.18 103.575 591.897 103.675 591.53 103.675ZM596.255 97.425C596.972 97.425 597.597 97.25 598.13 96.9C598.68 96.55 599.105 96.0417 599.405 95.375C599.705 94.7083 599.855 93.8833 599.855 92.9C599.855 91.4333 599.53 90.3167 598.88 89.55C598.23 88.7833 597.355 88.4 596.255 88.4C595.522 88.4 594.88 88.575 594.33 88.925C593.797 89.2583 593.38 89.7583 593.08 90.425C592.797 91.0917 592.655 91.9167 592.655 92.9C592.655 94.3667 592.98 95.4917 593.63 96.275C594.28 97.0417 595.155 97.425 596.255 97.425ZM606.203 103.675C605.853 103.675 605.578 103.575 605.378 103.375C605.178 103.175 605.078 102.892 605.078 102.525V87.8C605.078 87.4167 605.178 87.1333 605.378 86.95C605.578 86.75 605.853 86.65 606.203 86.65C606.57 86.65 606.845 86.75 607.028 86.95C607.228 87.1333 607.328 87.4167 607.328 87.8V90.075L607.053 89.625C607.32 88.7083 607.845 87.975 608.628 87.425C609.411 86.875 610.353 86.6 611.453 86.6C612.536 86.6 613.478 86.8583 614.278 87.375C615.078 87.875 615.703 88.6 616.153 89.55C616.603 90.4833 616.828 91.6 616.828 92.9C616.828 94.1833 616.603 95.3083 616.153 96.275C615.72 97.225 615.095 97.9583 614.278 98.475C613.478 98.975 612.536 99.225 611.453 99.225C610.37 99.225 609.436 98.95 608.653 98.4C607.87 97.85 607.345 97.125 607.078 96.225H607.353V102.525C607.353 102.892 607.253 103.175 607.053 103.375C606.853 103.575 606.57 103.675 606.203 103.675ZM610.928 97.425C611.645 97.425 612.27 97.25 612.803 96.9C613.353 96.55 613.778 96.0417 614.078 95.375C614.378 94.7083 614.528 93.8833 614.528 92.9C614.528 91.4333 614.203 90.3167 613.553 89.55C612.903 88.7833 612.028 88.4 610.928 88.4C610.195 88.4 609.553 88.575 609.003 88.925C608.47 89.2583 608.053 89.7583 607.753 90.425C607.47 91.0917 607.328 91.9167 607.328 92.9C607.328 94.3667 607.653 95.4917 608.303 96.275C608.953 97.0417 609.828 97.425 610.928 97.425ZM624.926 99.225C623.726 99.225 622.684 98.9667 621.801 98.45C620.917 97.9333 620.234 97.2 619.751 96.25C619.267 95.3 619.026 94.1833 619.026 92.9C619.026 91.9333 619.159 91.0667 619.426 90.3C619.709 89.5167 620.109 88.85 620.626 88.3C621.142 87.75 621.759 87.3333 622.476 87.05C623.209 86.75 624.026 86.6 624.926 86.6C626.126 86.6 627.167 86.8583 628.051 87.375C628.934 87.8917 629.617 88.625 630.101 89.575C630.584 90.5083 630.826 91.6167 630.826 92.9C630.826 93.8667 630.684 94.7417 630.401 95.525C630.134 96.3083 629.742 96.975 629.226 97.525C628.709 98.075 628.084 98.5 627.351 98.8C626.634 99.0833 625.826 99.225 624.926 99.225ZM624.926 97.425C625.659 97.425 626.292 97.25 626.826 96.9C627.376 96.55 627.792 96.0417 628.076 95.375C628.376 94.7083 628.526 93.8833 628.526 92.9C628.526 91.4333 628.201 90.3167 627.551 89.55C626.901 88.7833 626.026 88.4 624.926 88.4C624.209 88.4 623.576 88.575 623.026 88.925C622.492 89.2583 622.076 89.7583 621.776 90.425C621.476 91.0917 621.326 91.9167 621.326 92.9C621.326 94.3667 621.651 95.4917 622.301 96.275C622.967 97.0417 623.842 97.425 624.926 97.425ZM634.915 99.175C634.532 99.175 634.24 99.075 634.04 98.875C633.84 98.675 633.74 98.3833 633.74 98V87.8C633.74 87.4167 633.84 87.1333 634.04 86.95C634.24 86.75 634.515 86.65 634.865 86.65C635.215 86.65 635.482 86.75 635.665 86.95C635.865 87.1333 635.965 87.4167 635.965 87.8V89.725H635.715C635.982 88.725 636.482 87.9667 637.215 87.45C637.948 86.9333 638.873 86.6417 639.99 86.575C640.257 86.5583 640.473 86.625 640.64 86.775C640.807 86.9083 640.898 87.1417 640.915 87.475C640.932 87.7917 640.857 88.05 640.69 88.25C640.523 88.4333 640.265 88.5417 639.915 88.575L639.465 88.6C638.365 88.7167 637.515 89.075 636.915 89.675C636.332 90.275 636.04 91.1 636.04 92.15V98C636.04 98.3833 635.94 98.675 635.74 98.875C635.557 99.075 635.282 99.175 634.915 99.175ZM648.604 99.225C647.621 99.225 646.796 99.05 646.129 98.7C645.479 98.35 644.988 97.8417 644.654 97.175C644.338 96.5083 644.179 95.6917 644.179 94.725V88.575H642.579C642.279 88.575 642.046 88.5 641.879 88.35C641.713 88.1833 641.629 87.9667 641.629 87.7C641.629 87.4167 641.713 87.2 641.879 87.05C642.046 86.9 642.279 86.825 642.579 86.825H644.179V84.1C644.179 83.7167 644.279 83.4333 644.479 83.25C644.679 83.05 644.963 82.95 645.329 82.95C645.696 82.95 645.971 83.05 646.154 83.25C646.354 83.4333 646.454 83.7167 646.454 84.1V86.825H649.479C649.796 86.825 650.038 86.9 650.204 87.05C650.371 87.2 650.454 87.4167 650.454 87.7C650.454 87.9667 650.371 88.1833 650.204 88.35C650.038 88.5 649.796 88.575 649.479 88.575H646.454V94.525C646.454 95.4417 646.646 96.1333 647.029 96.6C647.413 97.0667 648.046 97.3 648.929 97.3C649.246 97.3 649.513 97.275 649.729 97.225C649.946 97.1583 650.138 97.125 650.304 97.125C650.454 97.1083 650.579 97.1583 650.679 97.275C650.796 97.3917 650.854 97.6083 650.854 97.925C650.854 98.1583 650.813 98.375 650.729 98.575C650.663 98.7583 650.521 98.8833 650.304 98.95C650.104 99.0167 649.838 99.075 649.504 99.125C649.171 99.1917 648.871 99.225 648.604 99.225ZM658.017 99.225C656.701 99.225 655.567 98.975 654.617 98.475C653.684 97.9583 652.959 97.2333 652.442 96.3C651.926 95.35 651.667 94.2333 651.667 92.95C651.667 91.6833 651.917 90.575 652.417 89.625C652.934 88.675 653.634 87.9333 654.517 87.4C655.417 86.8667 656.442 86.6 657.592 86.6C658.409 86.6 659.142 86.7417 659.792 87.025C660.459 87.2917 661.026 87.6833 661.492 88.2C661.959 88.7167 662.309 89.35 662.542 90.1C662.792 90.8333 662.917 91.6667 662.917 92.6C662.917 92.8667 662.834 93.075 662.667 93.225C662.517 93.3583 662.292 93.425 661.992 93.425H653.442V91.975H661.417L660.992 92.325C660.992 91.4583 660.859 90.725 660.592 90.125C660.342 89.5083 659.967 89.0417 659.467 88.725C658.984 88.4083 658.376 88.25 657.642 88.25C656.842 88.25 656.159 88.4417 655.592 88.825C655.026 89.1917 654.592 89.7167 654.292 90.4C653.992 91.0667 653.842 91.8417 653.842 92.725V92.875C653.842 94.375 654.201 95.5083 654.917 96.275C655.634 97.0417 656.667 97.425 658.017 97.425C658.551 97.425 659.092 97.3583 659.642 97.225C660.209 97.0917 660.751 96.85 661.267 96.5C661.517 96.35 661.742 96.2833 661.942 96.3C662.159 96.3 662.334 96.3667 662.467 96.5C662.601 96.6167 662.684 96.7667 662.717 96.95C662.751 97.1167 662.726 97.3 662.642 97.5C662.559 97.7 662.401 97.875 662.167 98.025C661.617 98.4083 660.959 98.7083 660.192 98.925C659.442 99.125 658.717 99.225 658.017 99.225ZM670.397 99.225C669.33 99.225 668.389 98.975 667.572 98.475C666.772 97.9583 666.147 97.225 665.697 96.275C665.247 95.3083 665.022 94.1833 665.022 92.9C665.022 91.6 665.239 90.4833 665.672 89.55C666.122 88.6 666.747 87.875 667.547 87.375C668.364 86.8583 669.314 86.6 670.397 86.6C671.48 86.6 672.414 86.875 673.197 87.425C673.98 87.9583 674.505 88.675 674.772 89.575H674.497V82.35C674.497 81.9667 674.589 81.6833 674.772 81.5C674.972 81.3 675.255 81.2 675.622 81.2C675.989 81.2 676.272 81.3 676.472 81.5C676.672 81.6833 676.772 81.9667 676.772 82.35V98C676.772 98.3833 676.672 98.675 676.472 98.875C676.272 99.075 675.989 99.175 675.622 99.175C675.272 99.175 674.997 99.075 674.797 98.875C674.597 98.675 674.497 98.3833 674.497 98V95.725L674.772 96.175C674.522 97.1083 673.997 97.85 673.197 98.4C672.414 98.95 671.48 99.225 670.397 99.225ZM670.922 97.425C671.655 97.425 672.289 97.25 672.822 96.9C673.372 96.55 673.789 96.0417 674.072 95.375C674.372 94.7083 674.522 93.8833 674.522 92.9C674.522 91.4333 674.197 90.3167 673.547 89.55C672.897 88.7833 672.022 88.4 670.922 88.4C670.205 88.4 669.572 88.575 669.022 88.925C668.489 89.2583 668.072 89.7583 667.772 90.425C667.472 91.0917 667.322 91.9167 667.322 92.9C667.322 94.3667 667.647 95.4917 668.297 96.275C668.964 97.0417 669.839 97.425 670.922 97.425ZM688.063 99.125C687.713 99.125 687.438 99.0167 687.238 98.8C687.038 98.5833 686.938 98.2833 686.938 97.9V87.925C686.938 87.525 687.038 87.225 687.238 87.025C687.438 86.8083 687.713 86.7 688.063 86.7C688.43 86.7 688.713 86.8083 688.913 87.025C689.113 87.225 689.213 87.525 689.213 87.925V97.9C689.213 98.2833 689.113 98.5833 688.913 98.8C688.73 99.0167 688.447 99.125 688.063 99.125ZM688.063 84C687.613 84 687.255 83.8833 686.988 83.65C686.738 83.4 686.613 83.075 686.613 82.675C686.613 82.2417 686.738 81.9167 686.988 81.7C687.255 81.4667 687.613 81.35 688.063 81.35C688.547 81.35 688.905 81.4667 689.138 81.7C689.388 81.9167 689.513 82.2417 689.513 82.675C689.513 83.075 689.388 83.4 689.138 83.65C688.905 83.8833 688.547 84 688.063 84ZM693.996 99.175C693.646 99.175 693.371 99.075 693.171 98.875C692.971 98.675 692.871 98.3833 692.871 98V87.8C692.871 87.4167 692.971 87.1333 693.171 86.95C693.371 86.75 693.646 86.65 693.996 86.65C694.346 86.65 694.613 86.75 694.796 86.95C694.996 87.1333 695.096 87.4167 695.096 87.8V89.85L694.821 89.475C695.171 88.525 695.738 87.8083 696.521 87.325C697.321 86.8417 698.229 86.6 699.246 86.6C700.229 86.6 701.038 86.775 701.671 87.125C702.304 87.475 702.779 88.0083 703.096 88.725C703.413 89.4417 703.571 90.35 703.571 91.45V98C703.571 98.3833 703.471 98.675 703.271 98.875C703.088 99.075 702.813 99.175 702.446 99.175C702.079 99.175 701.796 99.075 701.596 98.875C701.396 98.675 701.296 98.3833 701.296 98V91.575C701.296 90.4917 701.088 89.7 700.671 89.2C700.254 88.7 699.588 88.45 698.671 88.45C697.604 88.45 696.746 88.7833 696.096 89.45C695.463 90.1 695.146 90.9833 695.146 92.1V98C695.146 98.7833 694.763 99.175 693.996 99.175ZM718.746 99.225C717.763 99.225 716.938 99.05 716.271 98.7C715.621 98.35 715.129 97.8417 714.796 97.175C714.479 96.5083 714.321 95.6917 714.321 94.725V88.575H712.721C712.421 88.575 712.188 88.5 712.021 88.35C711.854 88.1833 711.771 87.9667 711.771 87.7C711.771 87.4167 711.854 87.2 712.021 87.05C712.188 86.9 712.421 86.825 712.721 86.825H714.321V84.1C714.321 83.7167 714.421 83.4333 714.621 83.25C714.821 83.05 715.104 82.95 715.471 82.95C715.838 82.95 716.113 83.05 716.296 83.25C716.496 83.4333 716.596 83.7167 716.596 84.1V86.825H719.621C719.938 86.825 720.179 86.9 720.346 87.05C720.513 87.2 720.596 87.4167 720.596 87.7C720.596 87.9667 720.513 88.1833 720.346 88.35C720.179 88.5 719.938 88.575 719.621 88.575H716.596V94.525C716.596 95.4417 716.788 96.1333 717.171 96.6C717.554 97.0667 718.188 97.3 719.071 97.3C719.388 97.3 719.654 97.275 719.871 97.225C720.088 97.1583 720.279 97.125 720.446 97.125C720.596 97.1083 720.721 97.1583 720.821 97.275C720.938 97.3917 720.996 97.6083 720.996 97.925C720.996 98.1583 720.954 98.375 720.871 98.575C720.804 98.7583 720.663 98.8833 720.446 98.95C720.246 99.0167 719.979 99.075 719.646 99.125C719.313 99.1917 719.013 99.225 718.746 99.225ZM723.976 99.125C723.626 99.125 723.351 99.0167 723.151 98.8C722.951 98.5833 722.851 98.2833 722.851 97.9V87.925C722.851 87.525 722.951 87.225 723.151 87.025C723.351 86.8083 723.626 86.7 723.976 86.7C724.343 86.7 724.626 86.8083 724.826 87.025C725.026 87.225 725.126 87.525 725.126 87.925V97.9C725.126 98.2833 725.026 98.5833 724.826 98.8C724.643 99.0167 724.36 99.125 723.976 99.125ZM723.976 84C723.526 84 723.168 83.8833 722.901 83.65C722.651 83.4 722.526 83.075 722.526 82.675C722.526 82.2417 722.651 81.9167 722.901 81.7C723.168 81.4667 723.526 81.35 723.976 81.35C724.46 81.35 724.818 81.4667 725.051 81.7C725.301 81.9167 725.426 82.2417 725.426 82.675C725.426 83.075 725.301 83.4 725.051 83.65C724.818 83.8833 724.46 84 723.976 84ZM729.959 99.175C729.609 99.175 729.334 99.075 729.134 98.875C728.934 98.675 728.834 98.3833 728.834 98V87.8C728.834 87.4167 728.934 87.1333 729.134 86.95C729.334 86.75 729.609 86.65 729.959 86.65C730.309 86.65 730.576 86.75 730.759 86.95C730.959 87.1333 731.059 87.4167 731.059 87.8V89.925L730.784 89.475C731.101 88.5583 731.609 87.85 732.309 87.35C733.026 86.85 733.876 86.6 734.859 86.6C735.892 86.6 736.726 86.85 737.359 87.35C737.992 87.8333 738.417 88.575 738.634 89.575H738.284C738.584 88.6583 739.117 87.9333 739.884 87.4C740.667 86.8667 741.576 86.6 742.609 86.6C743.526 86.6 744.276 86.7833 744.859 87.15C745.459 87.5 745.909 88.0333 746.209 88.75C746.509 89.45 746.659 90.35 746.659 91.45V98C746.659 98.3833 746.559 98.675 746.359 98.875C746.159 99.075 745.884 99.175 745.534 99.175C745.167 99.175 744.884 99.075 744.684 98.875C744.484 98.675 744.384 98.3833 744.384 98V91.55C744.384 90.4833 744.201 89.7 743.834 89.2C743.467 88.7 742.851 88.45 741.984 88.45C741.034 88.45 740.276 88.7833 739.709 89.45C739.159 90.1 738.884 91 738.884 92.15V98C738.884 98.3833 738.784 98.675 738.584 98.875C738.401 99.075 738.126 99.175 737.759 99.175C737.392 99.175 737.109 99.075 736.909 98.875C736.709 98.675 736.609 98.3833 736.609 98V91.55C736.609 90.4833 736.426 89.7 736.059 89.2C735.692 88.7 735.076 88.45 734.209 88.45C733.259 88.45 732.501 88.7833 731.934 89.45C731.384 90.1 731.109 91 731.109 92.15V98C731.109 98.7833 730.726 99.175 729.959 99.175ZM755.942 99.225C754.626 99.225 753.492 98.975 752.542 98.475C751.609 97.9583 750.884 97.2333 750.367 96.3C749.851 95.35 749.592 94.2333 749.592 92.95C749.592 91.6833 749.842 90.575 750.342 89.625C750.859 88.675 751.559 87.9333 752.442 87.4C753.342 86.8667 754.367 86.6 755.517 86.6C756.334 86.6 757.067 86.7417 757.717 87.025C758.384 87.2917 758.951 87.6833 759.417 88.2C759.884 88.7167 760.234 89.35 760.467 90.1C760.717 90.8333 760.842 91.6667 760.842 92.6C760.842 92.8667 760.759 93.075 760.592 93.225C760.442 93.3583 760.217 93.425 759.917 93.425H751.367V91.975H759.342L758.917 92.325C758.917 91.4583 758.784 90.725 758.517 90.125C758.267 89.5083 757.892 89.0417 757.392 88.725C756.909 88.4083 756.301 88.25 755.567 88.25C754.767 88.25 754.084 88.4417 753.517 88.825C752.951 89.1917 752.517 89.7167 752.217 90.4C751.917 91.0667 751.767 91.8417 751.767 92.725V92.875C751.767 94.375 752.126 95.5083 752.842 96.275C753.559 97.0417 754.592 97.425 755.942 97.425C756.476 97.425 757.017 97.3583 757.567 97.225C758.134 97.0917 758.676 96.85 759.192 96.5C759.442 96.35 759.667 96.2833 759.867 96.3C760.084 96.3 760.259 96.3667 760.392 96.5C760.526 96.6167 760.609 96.7667 760.642 96.95C760.676 97.1167 760.651 97.3 760.567 97.5C760.484 97.7 760.326 97.875 760.092 98.025C759.542 98.4083 758.884 98.7083 758.117 98.925C757.367 99.125 756.642 99.225 755.942 99.225ZM767.872 99.225C767.122 99.225 766.363 99.1417 765.597 98.975C764.847 98.7917 764.138 98.4833 763.472 98.05C763.288 97.9333 763.155 97.7917 763.072 97.625C763.005 97.4417 762.98 97.2667 762.997 97.1C763.03 96.9167 763.105 96.7583 763.222 96.625C763.338 96.4917 763.48 96.4167 763.647 96.4C763.83 96.3667 764.022 96.4083 764.222 96.525C764.872 96.8917 765.497 97.15 766.097 97.3C766.713 97.45 767.322 97.525 767.922 97.525C768.838 97.525 769.53 97.3583 769.997 97.025C770.463 96.6917 770.697 96.25 770.697 95.7C770.697 95.2333 770.538 94.875 770.222 94.625C769.922 94.3583 769.447 94.1583 768.797 94.025L766.472 93.55C765.438 93.3167 764.655 92.9333 764.122 92.4C763.605 91.85 763.347 91.15 763.347 90.3C763.347 89.55 763.547 88.9 763.947 88.35C764.363 87.7833 764.938 87.35 765.672 87.05C766.405 86.75 767.247 86.6 768.197 86.6C768.93 86.6 769.622 86.7 770.272 86.9C770.938 87.0833 771.538 87.3667 772.072 87.75C772.272 87.8667 772.397 88.0167 772.447 88.2C772.513 88.3667 772.522 88.5417 772.472 88.725C772.438 88.8917 772.363 89.0333 772.247 89.15C772.13 89.2667 771.98 89.3417 771.797 89.375C771.613 89.3917 771.413 89.3417 771.197 89.225C770.713 88.8917 770.213 88.6583 769.697 88.525C769.197 88.375 768.697 88.3 768.197 88.3C767.297 88.3 766.613 88.475 766.147 88.825C765.697 89.175 765.472 89.6333 765.472 90.2C765.472 90.6333 765.605 90.9917 765.872 91.275C766.155 91.5583 766.597 91.7667 767.197 91.9L769.522 92.375C770.605 92.6083 771.422 92.9833 771.972 93.5C772.522 94 772.797 94.6833 772.797 95.55C772.797 96.6833 772.347 97.5833 771.447 98.25C770.563 98.9 769.372 99.225 767.872 99.225ZM787.45 99.225C786.25 99.225 785.209 98.9667 784.325 98.45C783.442 97.9333 782.759 97.2 782.275 96.25C781.792 95.3 781.55 94.1833 781.55 92.9C781.55 91.9333 781.684 91.0667 781.95 90.3C782.234 89.5167 782.634 88.85 783.15 88.3C783.667 87.75 784.284 87.3333 785 87.05C785.734 86.75 786.55 86.6 787.45 86.6C788.65 86.6 789.692 86.8583 790.575 87.375C791.459 87.8917 792.142 88.625 792.625 89.575C793.109 90.5083 793.35 91.6167 793.35 92.9C793.35 93.8667 793.209 94.7417 792.925 95.525C792.659 96.3083 792.267 96.975 791.75 97.525C791.234 98.075 790.609 98.5 789.875 98.8C789.159 99.0833 788.35 99.225 787.45 99.225ZM787.45 97.425C788.184 97.425 788.817 97.25 789.35 96.9C789.9 96.55 790.317 96.0417 790.6 95.375C790.9 94.7083 791.05 93.8833 791.05 92.9C791.05 91.4333 790.725 90.3167 790.075 89.55C789.425 88.7833 788.55 88.4 787.45 88.4C786.734 88.4 786.1 88.575 785.55 88.925C785.017 89.2583 784.6 89.7583 784.3 90.425C784 91.0917 783.85 91.9167 783.85 92.9C783.85 94.3667 784.175 95.4917 784.825 96.275C785.492 97.0417 786.367 97.425 787.45 97.425ZM797.992 99.175C797.626 99.175 797.342 99.075 797.142 98.875C796.942 98.675 796.842 98.3833 796.842 98V88.575H795.342C795.042 88.575 794.809 88.5 794.642 88.35C794.476 88.1833 794.392 87.9667 794.392 87.7C794.392 87.4167 794.476 87.2 794.642 87.05C794.809 86.9 795.042 86.825 795.342 86.825H797.467L796.842 87.425V86.5C796.842 84.8833 797.234 83.6583 798.017 82.825C798.817 81.975 799.984 81.4833 801.517 81.35L802.292 81.3C802.542 81.2667 802.742 81.3083 802.892 81.425C803.042 81.525 803.142 81.6583 803.192 81.825C803.242 81.9917 803.242 82.1667 803.192 82.35C803.159 82.5167 803.084 82.6667 802.967 82.8C802.851 82.9333 802.701 83.0083 802.517 83.025L801.967 83.05C800.967 83.1333 800.242 83.4333 799.792 83.95C799.342 84.45 799.117 85.2 799.117 86.2V87.2L798.792 86.825H801.667C801.984 86.825 802.226 86.9 802.392 87.05C802.559 87.2 802.642 87.4167 802.642 87.7C802.642 87.9667 802.559 88.1833 802.392 88.35C802.226 88.5 801.984 88.575 801.667 88.575H799.117V98C799.117 98.7833 798.742 99.175 797.992 99.175ZM815.357 99.225C814.607 99.225 813.849 99.1417 813.082 98.975C812.332 98.7917 811.624 98.4833 810.957 98.05C810.774 97.9333 810.64 97.7917 810.557 97.625C810.49 97.4417 810.465 97.2667 810.482 97.1C810.515 96.9167 810.59 96.7583 810.707 96.625C810.824 96.4917 810.965 96.4167 811.132 96.4C811.315 96.3667 811.507 96.4083 811.707 96.525C812.357 96.8917 812.982 97.15 813.582 97.3C814.199 97.45 814.807 97.525 815.407 97.525C816.324 97.525 817.015 97.3583 817.482 97.025C817.949 96.6917 818.182 96.25 818.182 95.7C818.182 95.2333 818.024 94.875 817.707 94.625C817.407 94.3583 816.932 94.1583 816.282 94.025L813.957 93.55C812.924 93.3167 812.14 92.9333 811.607 92.4C811.09 91.85 810.832 91.15 810.832 90.3C810.832 89.55 811.032 88.9 811.432 88.35C811.849 87.7833 812.424 87.35 813.157 87.05C813.89 86.75 814.732 86.6 815.682 86.6C816.415 86.6 817.107 86.7 817.757 86.9C818.424 87.0833 819.024 87.3667 819.557 87.75C819.757 87.8667 819.882 88.0167 819.932 88.2C819.999 88.3667 820.007 88.5417 819.957 88.725C819.924 88.8917 819.849 89.0333 819.732 89.15C819.615 89.2667 819.465 89.3417 819.282 89.375C819.099 89.3917 818.899 89.3417 818.682 89.225C818.199 88.8917 817.699 88.6583 817.182 88.525C816.682 88.375 816.182 88.3 815.682 88.3C814.782 88.3 814.099 88.475 813.632 88.825C813.182 89.175 812.957 89.6333 812.957 90.2C812.957 90.6333 813.09 90.9917 813.357 91.275C813.64 91.5583 814.082 91.7667 814.682 91.9L817.007 92.375C818.09 92.6083 818.907 92.9833 819.457 93.5C820.007 94 820.282 94.6833 820.282 95.55C820.282 96.6833 819.832 97.5833 818.932 98.25C818.049 98.9 816.857 99.225 815.357 99.225ZM828.17 99.225C827.187 99.225 826.362 99.05 825.695 98.7C825.045 98.35 824.553 97.8417 824.22 97.175C823.903 96.5083 823.745 95.6917 823.745 94.725V88.575H822.145C821.845 88.575 821.612 88.5 821.445 88.35C821.278 88.1833 821.195 87.9667 821.195 87.7C821.195 87.4167 821.278 87.2 821.445 87.05C821.612 86.9 821.845 86.825 822.145 86.825H823.745V84.1C823.745 83.7167 823.845 83.4333 824.045 83.25C824.245 83.05 824.528 82.95 824.895 82.95C825.262 82.95 825.537 83.05 825.72 83.25C825.92 83.4333 826.02 83.7167 826.02 84.1V86.825H829.045C829.362 86.825 829.603 86.9 829.77 87.05C829.937 87.2 830.02 87.4167 830.02 87.7C830.02 87.9667 829.937 88.1833 829.77 88.35C829.603 88.5 829.362 88.575 829.045 88.575H826.02V94.525C826.02 95.4417 826.212 96.1333 826.595 96.6C826.978 97.0667 827.612 97.3 828.495 97.3C828.812 97.3 829.078 97.275 829.295 97.225C829.512 97.1583 829.703 97.125 829.87 97.125C830.02 97.1083 830.145 97.1583 830.245 97.275C830.362 97.3917 830.42 97.6083 830.42 97.925C830.42 98.1583 830.378 98.375 830.295 98.575C830.228 98.7583 830.087 98.8833 829.87 98.95C829.67 99.0167 829.403 99.075 829.07 99.125C828.737 99.1917 828.437 99.225 828.17 99.225ZM833.255 99.175C832.872 99.175 832.58 99.075 832.38 98.875C832.18 98.675 832.08 98.3833 832.08 98V87.8C832.08 87.4167 832.18 87.1333 832.38 86.95C832.58 86.75 832.855 86.65 833.205 86.65C833.555 86.65 833.822 86.75 834.005 86.95C834.205 87.1333 834.305 87.4167 834.305 87.8V89.725H834.055C834.322 88.725 834.822 87.9667 835.555 87.45C836.288 86.9333 837.213 86.6417 838.33 86.575C838.597 86.5583 838.813 86.625 838.98 86.775C839.147 86.9083 839.238 87.1417 839.255 87.475C839.272 87.7917 839.197 88.05 839.03 88.25C838.863 88.4333 838.605 88.5417 838.255 88.575L837.805 88.6C836.705 88.7167 835.855 89.075 835.255 89.675C834.672 90.275 834.38 91.1 834.38 92.15V98C834.38 98.3833 834.28 98.675 834.08 98.875C833.897 99.075 833.622 99.175 833.255 99.175ZM846.665 99.225C845.348 99.225 844.215 98.975 843.265 98.475C842.332 97.9583 841.607 97.2333 841.09 96.3C840.573 95.35 840.315 94.2333 840.315 92.95C840.315 91.6833 840.565 90.575 841.065 89.625C841.582 88.675 842.282 87.9333 843.165 87.4C844.065 86.8667 845.09 86.6 846.24 86.6C847.057 86.6 847.79 86.7417 848.44 87.025C849.107 87.2917 849.673 87.6833 850.14 88.2C850.607 88.7167 850.957 89.35 851.19 90.1C851.44 90.8333 851.565 91.6667 851.565 92.6C851.565 92.8667 851.482 93.075 851.315 93.225C851.165 93.3583 850.94 93.425 850.64 93.425H842.09V91.975H850.065L849.64 92.325C849.64 91.4583 849.507 90.725 849.24 90.125C848.99 89.5083 848.615 89.0417 848.115 88.725C847.632 88.4083 847.023 88.25 846.29 88.25C845.49 88.25 844.807 88.4417 844.24 88.825C843.673 89.1917 843.24 89.7167 842.94 90.4C842.64 91.0667 842.49 91.8417 842.49 92.725V92.875C842.49 94.375 842.848 95.5083 843.565 96.275C844.282 97.0417 845.315 97.425 846.665 97.425C847.198 97.425 847.74 97.3583 848.29 97.225C848.857 97.0917 849.398 96.85 849.915 96.5C850.165 96.35 850.39 96.2833 850.59 96.3C850.807 96.3 850.982 96.3667 851.115 96.5C851.248 96.6167 851.332 96.7667 851.365 96.95C851.398 97.1167 851.373 97.3 851.29 97.5C851.207 97.7 851.048 97.875 850.815 98.025C850.265 98.4083 849.607 98.7083 848.84 98.925C848.09 99.125 847.365 99.225 846.665 99.225ZM858.594 99.225C857.844 99.225 857.086 99.1417 856.319 98.975C855.569 98.7917 854.861 98.4833 854.194 98.05C854.011 97.9333 853.878 97.7917 853.794 97.625C853.728 97.4417 853.703 97.2667 853.719 97.1C853.753 96.9167 853.828 96.7583 853.944 96.625C854.061 96.4917 854.203 96.4167 854.369 96.4C854.553 96.3667 854.744 96.4083 854.944 96.525C855.594 96.8917 856.219 97.15 856.819 97.3C857.436 97.45 858.044 97.525 858.644 97.525C859.561 97.525 860.253 97.3583 860.719 97.025C861.186 96.6917 861.419 96.25 861.419 95.7C861.419 95.2333 861.261 94.875 860.944 94.625C860.644 94.3583 860.169 94.1583 859.519 94.025L857.194 93.55C856.161 93.3167 855.378 92.9333 854.844 92.4C854.328 91.85 854.069 91.15 854.069 90.3C854.069 89.55 854.269 88.9 854.669 88.35C855.086 87.7833 855.661 87.35 856.394 87.05C857.128 86.75 857.969 86.6 858.919 86.6C859.653 86.6 860.344 86.7 860.994 86.9C861.661 87.0833 862.261 87.3667 862.794 87.75C862.994 87.8667 863.119 88.0167 863.169 88.2C863.236 88.3667 863.244 88.5417 863.194 88.725C863.161 88.8917 863.086 89.0333 862.969 89.15C862.853 89.2667 862.703 89.3417 862.519 89.375C862.336 89.3917 862.136 89.3417 861.919 89.225C861.436 88.8917 860.936 88.6583 860.419 88.525C859.919 88.375 859.419 88.3 858.919 88.3C858.019 88.3 857.336 88.475 856.869 88.825C856.419 89.175 856.194 89.6333 856.194 90.2C856.194 90.6333 856.328 90.9917 856.594 91.275C856.878 91.5583 857.319 91.7667 857.919 91.9L860.244 92.375C861.328 92.6083 862.144 92.9833 862.694 93.5C863.244 94 863.519 94.6833 863.519 95.55C863.519 96.6833 863.069 97.5833 862.169 98.25C861.286 98.9 860.094 99.225 858.594 99.225ZM870.679 99.225C869.929 99.225 869.171 99.1417 868.404 98.975C867.654 98.7917 866.946 98.4833 866.279 98.05C866.096 97.9333 865.963 97.7917 865.879 97.625C865.813 97.4417 865.788 97.2667 865.804 97.1C865.838 96.9167 865.913 96.7583 866.029 96.625C866.146 96.4917 866.288 96.4167 866.454 96.4C866.638 96.3667 866.829 96.4083 867.029 96.525C867.679 96.8917 868.304 97.15 868.904 97.3C869.521 97.45 870.129 97.525 870.729 97.525C871.646 97.525 872.338 97.3583 872.804 97.025C873.271 96.6917 873.504 96.25 873.504 95.7C873.504 95.2333 873.346 94.875 873.029 94.625C872.729 94.3583 872.254 94.1583 871.604 94.025L869.279 93.55C868.246 93.3167 867.463 92.9333 866.929 92.4C866.413 91.85 866.154 91.15 866.154 90.3C866.154 89.55 866.354 88.9 866.754 88.35C867.171 87.7833 867.746 87.35 868.479 87.05C869.213 86.75 870.054 86.6 871.004 86.6C871.738 86.6 872.429 86.7 873.079 86.9C873.746 87.0833 874.346 87.3667 874.879 87.75C875.079 87.8667 875.204 88.0167 875.254 88.2C875.321 88.3667 875.329 88.5417 875.279 88.725C875.246 88.8917 875.171 89.0333 875.054 89.15C874.938 89.2667 874.788 89.3417 874.604 89.375C874.421 89.3917 874.221 89.3417 874.004 89.225C873.521 88.8917 873.021 88.6583 872.504 88.525C872.004 88.375 871.504 88.3 871.004 88.3C870.104 88.3 869.421 88.475 868.954 88.825C868.504 89.175 868.279 89.6333 868.279 90.2C868.279 90.6333 868.413 90.9917 868.679 91.275C868.963 91.5583 869.404 91.7667 870.004 91.9L872.329 92.375C873.413 92.6083 874.229 92.9833 874.779 93.5C875.329 94 875.604 94.6833 875.604 95.55C875.604 96.6833 875.154 97.5833 874.254 98.25C873.371 98.9 872.179 99.225 870.679 99.225ZM879.542 99.1C879.109 99.1 878.751 98.9583 878.467 98.675C878.184 98.3917 878.042 98.0333 878.042 97.6C878.042 97.1667 878.184 96.8167 878.467 96.55C878.751 96.2833 879.109 96.15 879.542 96.15C880.009 96.15 880.367 96.2833 880.617 96.55C880.884 96.8167 881.017 97.1667 881.017 97.6C881.017 98.0333 880.884 98.3917 880.617 98.675C880.367 98.9583 880.009 99.1 879.542 99.1ZM884.309 86.575C884.142 86.7917 883.959 86.9167 883.759 86.95C883.575 86.9833 883.409 86.95 883.259 86.85C883.125 86.75 883.05 86.6 883.034 86.4C883.017 86.2 883.1 85.9833 883.284 85.75C883.567 85.4 883.759 85.0417 883.859 84.675C883.975 84.2917 884.034 83.95 884.034 83.65L884.134 84.225C883.667 84.225 883.284 84.0917 882.984 83.825C882.7 83.5583 882.559 83.2 882.559 82.75C882.559 82.3167 882.692 81.9667 882.959 81.7C883.225 81.4167 883.584 81.275 884.034 81.275C884.484 81.275 884.842 81.4333 885.109 81.75C885.392 82.05 885.534 82.5 885.534 83.1C885.534 83.45 885.492 83.825 885.409 84.225C885.342 84.6083 885.225 85 885.059 85.4C884.892 85.8 884.642 86.1917 884.309 86.575ZM888.609 86.575C888.442 86.7917 888.259 86.9167 888.059 86.95C887.875 86.9833 887.709 86.95 887.559 86.85C887.425 86.75 887.35 86.6 887.334 86.4C887.317 86.2 887.4 85.9833 887.584 85.75C887.867 85.4 888.059 85.0417 888.159 84.675C888.275 84.2917 888.334 83.95 888.334 83.65L888.434 84.225C887.967 84.225 887.584 84.0917 887.284 83.825C887 83.5583 886.859 83.2 886.859 82.75C886.859 82.3167 886.992 81.9667 887.259 81.7C887.525 81.4167 887.884 81.275 888.334 81.275C888.784 81.275 889.142 81.4333 889.409 81.75C889.692 82.05 889.834 82.5 889.834 83.1C889.834 83.45 889.792 83.825 889.709 84.225C889.642 84.6083 889.525 85 889.359 85.4C889.192 85.8 888.942 86.1917 888.609 86.575Z" fill="#456EDE"/>
<circle cx="62" cy="49" r="47" stroke="#456EDE" stroke-width="4"/>
<path d="M2.52244 160.323C-2.47761 124.979 29.3084 108.266 59.5224 108.004C90.0253 107.74 117.522 119.479 117.522 160.323" stroke="#456EDE" stroke-width="4"/>
<circle cx="188" cy="74" r="47" stroke="#456EDE" stroke-width="4"/>
<path d="M128.522 185.323C123.522 149.979 155.308 133.266 185.522 133.004C216.025 132.74 243.522 144.479 243.522 185.323" stroke="#456EDE" stroke-width="4"/>
</svg>
