<svg width="559" height="614" viewBox="0 0 559 614" fill="none" xmlns="http://www.w3.org/2000/svg">
<path d="M28 610.5C-42.1452 442.482 2.396 49.0743 556.5 143.5V594.5C555 608.5 543 610.5 537.013 611L28 610.5Z" fill="#E3EAE2" stroke="#E3EAE2" stroke-width="5"/>
<circle cx="410.5" cy="128.5" r="128.5" fill="#94CA8D"/>
<path d="M158.125 300.265C161.836 301.599 168.857 302.465 167.257 295.265C165.657 288.065 160.257 290.932 157.757 293.265C157.009 293.714 156.937 295.062 157.227 296.765M158.125 300.265C155.169 298.599 149.457 293.865 150.257 288.265C151.057 282.665 155.59 282.599 157.757 283.265C158.757 283.765 160.557 285.365 159.757 287.765C158.757 290.765 154.257 292.265 150.757 291.765C148.905 290.676 147.432 289.847 146.257 289.187M158.125 300.265C157.735 299.048 157.409 297.836 157.227 296.765M158.125 300.265C158.397 301.111 158.699 301.96 159.007 302.765M143.257 277.265C142.257 277.765 140.757 281.265 141.257 284.265C141.446 285.4 141.635 286.034 142.257 286.654M143.257 277.265C145.634 274.599 151.163 270.065 154.257 273.265C158.125 277.265 148.757 282.637 147.757 280.201M143.257 277.265C144.084 276.852 146.622 278.49 147.757 280.201M143.257 277.265C146.59 273.099 152.257 264.265 148.257 262.265C144.257 260.265 140.924 262.099 139.757 263.265C138.924 264.099 137.757 266.365 139.757 268.765C141.757 271.165 143.59 273.765 144.257 274.765M143.257 277.265C140.555 276.232 137.36 275.047 134.757 273.603M146.257 289.187C148.757 289.109 148.757 283.265 148.257 281.265C148.171 280.92 147.995 280.559 147.757 280.201M146.257 289.187C144.079 287.963 142.921 287.316 142.257 286.654M142.257 286.654C136.091 284.691 123.757 278.465 123.757 269.265C123.757 261.643 125.13 257.041 127.307 254.265M142.257 286.654C142.424 289.358 141.257 292.932 139.757 295.765M127.307 254.265C127.758 253.691 128.243 253.194 128.757 252.765C131.757 250.765 134.357 249.965 136.757 252.765C139.157 255.565 138.757 258.265 135.257 260.765C133.006 261.73 130.134 262.447 127.307 262.197C125.739 262.058 124.184 261.622 122.757 260.765C120.424 259.432 116.457 255.965 119.257 252.765C121.762 249.903 125.014 251.895 126.757 253.66M127.307 254.265C127.147 254.072 126.963 253.867 126.757 253.66M126.757 253.66C127.757 257.528 127.657 263.265 126.257 265.265C124.507 267.765 121.657 270.065 117.257 269.265C115.091 268.932 110.557 267.565 109.757 264.765C108.957 261.965 110.757 260.265 112.757 259.765C115.091 259.265 119.257 259.265 121.257 264.265C121.772 266.427 122.49 270.037 122.681 272.765M122.681 272.765C122.8 274.455 122.716 275.806 122.257 276.265C120.257 278.932 114.957 282.865 109.757 277.265C103.257 270.265 126.105 270.265 122.681 272.765ZM122.681 272.765C125.207 274.932 125.565 276.88 128.257 282.265C129.257 284.265 126.257 290.224 121.757 289.187C117.757 288.265 115.518 282.765 120.757 278.765C122.883 277.535 125.534 276.379 128.257 276.055M134.757 273.603C131.901 272.018 129.757 270.12 129.757 267.765C129.757 265.932 130.857 262.665 135.257 264.265C137.591 265.625 140.557 271.428 137.757 279.765C138.757 281.932 139.421 285.61 138.757 288.265C138.257 290.265 136.157 293.865 131.757 292.265C128.924 290.432 126.409 285.065 134.408 282.265M134.757 273.603C132.757 273.183 128.657 273.087 128.257 276.055M128.257 276.055C129.591 275.896 130.942 275.937 132.257 276.265C135.257 277.265 136.157 278.15 137.757 280.201C128.557 286.95 127.591 280.249 128.257 276.055ZM139.757 295.765C138.257 298.599 134.257 303.165 130.257 298.765C128.257 296.565 129.757 292.465 133.757 293.265C138.757 294.265 141.257 295.765 141.757 297.265C143.091 299.265 144.557 303.665 139.757 305.265C134.957 306.865 135.463 302.099 136.296 299.765M139.757 295.765C141.924 294.265 147.057 291.465 150.257 292.265C153.457 293.065 156.237 295.599 157.227 296.765M159.007 302.765C159.437 303.889 159.877 304.93 160.257 305.765C163.893 313.765 179.757 332.265 201.257 349.265C222.757 366.265 258.257 379.765 270.757 382.765C283.257 385.765 287.257 371.265 290.257 362.265C293.257 353.265 290.257 344.765 280.757 322.765C273.157 305.165 303.59 276.432 319.757 264.265C404.757 224.766 413.757 269.265 415.257 270.265C417.683 271.882 433.257 312.265 437.257 328.265C440.457 341.065 434.59 347.598 431.257 349.265C400.757 362.265 408.257 366.265 404.757 381.265C401.957 393.265 389.257 392.932 383.257 391.265C382.757 391.265 337.757 380.264 319.757 378.765C304.257 377.474 291.977 389.598 281.586 397.265C272.787 415.665 217.92 426.932 191.587 428.265C177.753 428.932 156.299 430.942 155.757 438.265C154.757 451.765 161.757 448.765 161.086 458.265C155.586 501.765 171.087 528.765 174.087 530.265C177.087 531.765 187.587 532.765 202.587 545.765C214.587 556.165 223.92 557.099 227.086 556.265C240.286 531.865 254.92 520.765 260.586 518.265C345.586 506.265 319.086 426.265 322.086 414.765C324.486 405.565 296.086 391.599 281.586 385.765C275.85 385.765 261.757 373.265 254.757 367.765C230.257 349.265 188.757 296.765 187.257 269.765C186.091 248.765 197.451 223.221 205.757 219.265C216.257 214.265 234.924 198.599 243.757 188.265C285.357 161.465 335.924 188.265 342.757 208.765C347.757 223.765 315.757 220.765 308.257 246.765C300.887 272.317 305.257 326.099 301.757 349.265C295.757 378.065 270.757 411.265 249.257 422.765C213.757 436.265 149.757 490.932 123.257 519.765C120.257 522.265 126.057 531.865 105.257 522.265C84.4573 512.665 70.2573 491.599 65.7573 482.265C50.1573 458.665 69.9239 419.765 81.7572 403.265C96.7573 386.265 120.257 379.259 141.757 369.006M159.007 302.765C155.834 304.432 148.84 307.165 146.257 304.765C143.674 302.365 146.181 299.432 147.757 298.265C150.257 296.765 152.882 298.765 153.757 301.265C154.411 303.133 155.18 306.172 155.167 308.765M155.167 308.765C155.156 310.801 154.664 312.562 153.257 313.265C151.591 314.265 147.957 315.265 146.757 311.265C145.557 307.265 151.863 307.932 155.167 308.765ZM155.167 308.765C158.863 311.765 165.693 318.861 167.257 321.765C170.757 328.265 183.087 339.762 197.757 350.765C223.757 370.265 274.057 395.465 279.257 388.265C280.924 383.099 282.457 369.565 275.257 356.765C266.257 340.765 237.757 301.265 224.257 290.265C202.757 265.265 188.057 251.165 153.257 248.765C134.408 248.765 117.257 258.765 103.257 293.265C94.4239 311.432 77.7572 348.765 81.7572 352.765C81.4239 358.932 88.9573 369.965 121.757 364.765C127.641 364.765 134.43 366.264 141.757 369.006M141.757 369.006C152.488 373.023 164.373 379.708 176.257 388.265C194.257 401.225 245.357 412.565 273.757 393.765C273.257 387.432 263.057 371.865 226.257 360.265C189.457 348.665 154.591 361.259 141.757 369.006Z" stroke="black" stroke-width="2"/>
</svg>
