<svg width="72" height="78" viewBox="0 0 72 78" fill="none" xmlns="http://www.w3.org/2000/svg">
<path d="M35.9813 42C27.8147 26.1667 13.5 0.99966 35.9813 1C56.2594 1.00031 44.148 30.5 35.9813 42ZM35.9813 42C44.3147 31 61.1 9.44012 68.4814 23.4999C78.9814 43.5 54.3147 39.6666 35.9813 42ZM35.9813 42C49.4813 42.8333 75.6814 45.8999 68.4814 61.4999C61.2814 77.0999 43.4813 55.8333 35.9813 42ZM35.9813 42C41.648 51.5 60.4814 76.9999 35.9813 76.9999C21.4211 76.9999 30.3147 55.8333 35.9813 42ZM35.9813 42C26.4813 53.6666 18.4814 79.4999 4.98136 64.4999C-11.1848 46.5374 26.4813 45 35.9813 42ZM35.9813 42C19.148 46.3333 -5.31862 41.9999 3.48138 25.9999C12.2814 9.99985 26.4813 33 35.9813 42Z" stroke="black" stroke-width="2"/>
</svg>
