<svg width="40" height="23" viewBox="0 0 40 23" fill="none" xmlns="http://www.w3.org/2000/svg">
<path d="M0.15332 22V0.671875H3.33203V10.5742L11.7695 0.671875H15.3291L3.33203 14.5V22H0.15332ZM12.2969 22L4.60645 11.1748L6.62793 8.875L16.0908 22H12.2969ZM17.7021 22V0.671875H23.9863C26.7012 0.671875 28.918 1.56543 30.6367 3.35254C32.3555 5.12988 33.2148 7.57617 33.2148 10.6914V11.9658C33.2148 15.0811 32.3604 17.5322 30.6514 19.3193C28.9521 21.1064 26.7305 22 23.9863 22H17.7021ZM20.8516 19.5244H23.9131C25.7881 19.5244 27.2676 18.8799 28.3516 17.5908C29.4453 16.292 29.9922 14.4561 29.9922 12.083V10.6035C29.9922 8.2207 29.4404 6.38965 28.3369 5.11035C27.2334 3.82129 25.7588 3.17676 23.9131 3.17676H20.8516V19.5244ZM35.5879 20.3447C35.5879 19.8076 35.7588 19.3486 36.1006 18.9678C36.4521 18.5869 36.9551 18.3965 37.6094 18.3965C38.2637 18.3965 38.7617 18.5869 39.1035 18.9678C39.4551 19.3486 39.6309 19.8076 39.6309 20.3447C39.6309 20.9014 39.4551 21.3701 39.1035 21.751C38.7617 22.1221 38.2637 22.3076 37.6094 22.3076C36.9551 22.3076 36.4521 22.1172 36.1006 21.7363C35.7588 21.3555 35.5879 20.8916 35.5879 20.3447Z" fill="black"/>
</svg>
