<svg width="74" height="76" viewBox="0 0 74 76" fill="none" xmlns="http://www.w3.org/2000/svg">
<path d="M5.27862 20.7639C11.5369 7.42025 24.0465 2 34.0243 2C34.0243 2 20.4518 24.9347 34.0243 43.6987C47.5969 62.4626 72 47.8681 72 47.8681C72 62.4626 59.4884 71.1188 50.701 72.8877C10.258 81.0291 -5.44694 43.6325 5.27862 20.7639Z" stroke="black" stroke-width="3"/>
<path d="M52.0384 12.4247C55.7298 10.0584 56.2083 2 56.2083 2C56.2083 2 56.6868 10.0584 60.3782 12.4247C63.8055 14.6217 70.8028 12.4247 70.8028 12.4247C70.8028 12.4247 63.3159 16.2381 62.4631 20.7644C61.6513 25.0733 66.633 31.1891 66.633 31.1891C66.633 31.1891 60.956 24.9343 56.2083 24.9343C51.4606 24.9343 45.7836 31.1891 45.7836 31.1891C45.7836 31.1891 50.7653 25.0733 49.9535 20.7644C49.1007 16.2381 41.6138 12.4247 41.6138 12.4247C41.6138 12.4247 48.6111 14.6217 52.0384 12.4247Z" stroke="black" stroke-width="2"/>
</svg>
