<svg width="50" height="40" viewBox="0 0 50 40" fill="none" xmlns="http://www.w3.org/2000/svg">
<path d="M44.3138 2.10361C19.7109 6.57023 27.3909 20.6065 26.3147 22.6027C27.3149 22.6027 36.3727 25.0208 40.3149 19.1062C44.3138 13.1064 51.8022 0.744085 44.3138 2.10361Z" fill="#BDDDBC"/>
<path d="M3.74354 12.001C19.6935 9.98975 23.9094 21.3337 24.2427 27.5004C19.5 26.5 20.2435 30.5004 10.743 25.501C2.74282 20.0004 -0.209582 12.4995 3.74354 12.001Z" fill="#BDDDBC"/>
<path d="M24.8147 39.6027C24.148 36.1027 23.512 27.8013 26.3147 22.6027M26.3147 22.6027C27.3909 20.6065 19.7109 6.57023 44.3138 2.10361C51.8022 0.744085 44.3138 13.1064 40.3149 19.1062C36.3727 25.0208 27.3149 22.6027 26.3147 22.6027ZM24.2427 27.5004C23.9094 21.3337 19.6935 9.98975 3.74354 12.001C-0.209582 12.4995 2.74282 20.0004 10.743 25.501C20.2435 30.5004 19.5 26.5 24.2427 27.5004Z" stroke="#8ABD91" stroke-width="3"/>
</svg>
