<svg width="39" height="40" viewBox="0 0 39 40" fill="none" xmlns="http://www.w3.org/2000/svg">
<path d="M3.63931 11.382C6.76847 4.71012 13.0233 2 18.0122 2C18.0122 2 11.2259 13.4674 18.0122 22.8493C24.7984 32.2313 37 24.934 37 24.934C37 32.2313 30.7442 36.5594 26.3505 37.4439C6.129 41.5145 -1.72347 22.8162 3.63931 11.382Z" fill="#F4EAB2" stroke="#D1B628" stroke-width="3"/>
<path d="M27.019 7.21233C28.8647 6.0292 29.1039 2 29.1039 2C29.1039 2 29.3432 6.0292 31.1888 7.21233C32.9025 8.31085 36.4012 7.21233 36.4012 7.21233C36.4012 7.21233 32.6577 9.11906 32.2313 11.3822C31.8254 13.5366 34.3162 16.5945 34.3162 16.5945C34.3162 16.5945 31.4777 13.4671 29.1039 13.4671C26.7301 13.4671 23.8916 16.5945 23.8916 16.5945C23.8916 16.5945 26.3824 13.5366 25.9765 11.3822C25.5501 9.11906 21.8066 7.21233 21.8066 7.21233C21.8066 7.21233 25.3053 8.31085 27.019 7.21233Z" fill="#F4EAB2" stroke="#D1B628" stroke-width="2"/>
</svg>
