<svg width="522" height="191" viewBox="0 0 522 191" fill="none" xmlns="http://www.w3.org/2000/svg">
<mask id="path-1-inside-1_463_1262" fill="white">
<path d="M41 54C41 42.9543 49.9543 34 61 34H502C513.046 34 522 42.9543 522 54V171C522 182.046 513.046 191 502 191H61C49.9543 191 41 182.046 41 171V54Z"/>
</mask>
<path d="M41 54C41 42.9543 49.9543 34 61 34H502C513.046 34 522 42.9543 522 54V171C522 182.046 513.046 191 502 191H61C49.9543 191 41 182.046 41 171V54Z" fill="#EBCBFF"/>
<path d="M41 34H522H41ZM528 171C528 185.359 516.359 197 502 197H67C52.6406 197 41 185.359 41 171C41 178.732 49.9543 185 61 185H502C509.732 185 516 178.732 516 171H528ZM41 191V34V191ZM502 34C516.359 34 528 45.6406 528 60V171C528 185.359 516.359 197 502 197V185C509.732 185 516 178.732 516 171V54C516 42.9543 509.732 34 502 34Z" fill="#6E32AB" mask="url(#path-1-inside-1_463_1262)"/>
<path d="M29.5714 99.5714C39.6886 93.0861 41 71 41 71C41 71 42.3114 93.0861 52.4286 99.5714C61.8221 105.593 81 99.5714 81 99.5714C81 99.5714 60.4801 110.023 58.1429 122.429C55.9179 134.238 69.5714 151 69.5714 151C69.5714 151 54.0122 133.857 41 133.857C27.9878 133.857 12.4286 151 12.4286 151C12.4286 151 26.0821 134.238 23.8571 122.429C21.5199 110.023 1 99.5714 1 99.5714C1 99.5714 20.1779 105.593 29.5714 99.5714Z" fill="#F4EAB2" stroke="#6E32AB" stroke-width="4"/>
<path d="M478.857 18.8571C485.18 14.8038 486 1 486 1C486 1 486.82 14.8038 493.143 18.8571C499.014 22.6206 511 18.8571 511 18.8571C511 18.8571 498.175 25.3895 496.714 33.1429C495.324 40.5238 503.857 51 503.857 51C503.857 51 494.133 40.2857 486 40.2857C477.867 40.2857 468.143 51 468.143 51C468.143 51 476.676 40.5238 475.286 33.1429C473.825 25.3895 461 18.8571 461 18.8571C461 18.8571 472.986 22.6206 478.857 18.8571Z" fill="#F4EAB2" stroke="#6E32AB" stroke-width="4"/>
<path d="M123.153 93V71.6719H127.328L133.085 87.1113C133.202 87.4336 133.31 87.751 133.407 88.0635C133.505 88.376 133.588 88.6982 133.656 89.0303H133.744C133.822 88.6982 133.91 88.376 134.008 88.0635C134.105 87.7412 134.208 87.4238 134.315 87.1113L140.072 71.6719H144.276V93H141.171V77.9707C141.171 77.6582 141.176 77.3115 141.186 76.9307C141.195 76.54 141.215 76.1836 141.244 75.8613H141.142C141.083 76.1836 140.995 76.54 140.878 76.9307C140.771 77.3115 140.663 77.6582 140.556 77.9707L134.975 93H132.221L126.64 77.9707C126.522 77.6582 126.405 77.292 126.288 76.8721C126.171 76.4521 126.093 76.1152 126.054 75.8613H125.951C125.98 76.1152 126 76.4521 126.01 76.8721C126.029 77.292 126.039 77.6582 126.039 77.9707V93H123.153ZM147.514 88.7227C147.514 87.2188 148.104 86.0469 149.286 85.207C150.468 84.3672 151.991 83.9473 153.856 83.9473H157.167V82.8779C157.167 82.0381 156.952 81.374 156.522 80.8857C156.093 80.3975 155.36 80.1533 154.325 80.1533C153.3 80.1533 152.548 80.3584 152.069 80.7686C151.601 81.1787 151.366 81.6963 151.366 82.3213V82.5264H148.363V82.2773C148.363 81.0566 148.91 80.0264 150.004 79.1865C151.107 78.3369 152.587 77.9121 154.442 77.9121C156.288 77.9121 157.714 78.3174 158.72 79.1279C159.735 79.9287 160.243 81.1885 160.243 82.9072V89.543C160.243 90.168 160.292 90.7588 160.39 91.3154C160.487 91.8721 160.629 92.3555 160.814 92.7656V93H157.826C157.689 92.7559 157.567 92.4482 157.46 92.0771C157.362 91.6963 157.299 91.3154 157.27 90.9346C156.938 91.54 156.366 92.0771 155.556 92.5459C154.755 93.0146 153.739 93.249 152.509 93.249C151.063 93.249 149.867 92.8682 148.92 92.1064C147.982 91.335 147.514 90.207 147.514 88.7227ZM150.575 88.5176C150.575 89.3184 150.805 89.9385 151.264 90.3779C151.732 90.8174 152.44 91.0371 153.388 91.0371C154.374 91.0371 155.248 90.7051 156.01 90.041C156.781 89.3672 157.167 88.625 157.167 87.8145V85.9541H154.384C153.104 85.9541 152.147 86.1787 151.513 86.6279C150.888 87.0771 150.575 87.707 150.575 88.5176ZM164.081 93V78.3076H167.172V93H164.081ZM163.759 73.6055C163.759 73.1074 163.92 72.6924 164.242 72.3604C164.564 72.0186 165.028 71.8477 165.634 71.8477C166.239 71.8477 166.698 72.0186 167.011 72.3604C167.333 72.6924 167.494 73.1074 167.494 73.6055C167.494 74.1035 167.333 74.5234 167.011 74.8652C166.688 75.207 166.225 75.3779 165.619 75.3779C165.023 75.3779 164.564 75.207 164.242 74.8652C163.92 74.5234 163.759 74.1035 163.759 73.6055ZM171.054 93V78.3076H173.939L174.013 80.2119H174.071C174.54 79.5283 175.165 78.9912 175.946 78.6006C176.737 78.2002 177.621 78 178.598 78C180.072 78 181.254 78.4199 182.143 79.2598C183.031 80.0898 183.476 81.501 183.476 83.4932V93H180.399V83.5957C180.399 82.4727 180.15 81.6719 179.652 81.1934C179.164 80.7148 178.471 80.4756 177.572 80.4756C176.811 80.4756 176.127 80.6904 175.521 81.1201C174.916 81.5498 174.452 82.1113 174.13 82.8047V93H171.054ZM193.422 82.9658V81.7061C193.422 78.376 194.218 75.8076 195.81 74.001C197.401 72.1943 199.521 71.291 202.167 71.291C204.56 71.291 206.42 71.916 207.748 73.166C209.086 74.4062 209.789 75.9443 209.857 77.7803L209.872 78.0879H206.723V77.8389C206.723 76.7549 206.327 75.8223 205.536 75.041C204.745 74.25 203.598 73.8545 202.094 73.8545C200.424 73.8545 199.101 74.5088 198.124 75.8174C197.147 77.126 196.659 79.001 196.659 81.4424V83.2441C196.659 85.6855 197.167 87.5654 198.183 88.8838C199.198 90.2021 200.619 90.8613 202.445 90.8613C203.383 90.8613 204.193 90.7588 204.877 90.5537C205.561 90.3389 206.205 90.002 206.811 89.543V84.7236H202.152V82.2773H209.872V90.627C209.286 91.2617 208.363 91.8818 207.104 92.4873C205.844 93.083 204.286 93.3809 202.431 93.3809C199.638 93.3809 197.436 92.4775 195.824 90.6709C194.223 88.8643 193.422 86.2959 193.422 82.9658ZM212.436 85.8809V85.4121C212.436 83.166 213.085 81.3545 214.384 79.9775C215.692 78.5908 217.426 77.8975 219.584 77.8975C221.752 77.8975 223.485 78.5908 224.784 79.9775C226.093 81.3545 226.747 83.166 226.747 85.4121V85.8809C226.747 88.127 226.093 89.9434 224.784 91.3301C223.485 92.707 221.752 93.3955 219.584 93.3955C217.426 93.3955 215.692 92.707 214.384 91.3301C213.085 89.9434 212.436 88.127 212.436 85.8809ZM215.57 85.3389V85.9395C215.57 87.4141 215.912 88.625 216.596 89.5723C217.279 90.5098 218.275 90.9785 219.584 90.9785C220.902 90.9785 221.903 90.5098 222.587 89.5723C223.271 88.625 223.612 87.4141 223.612 85.9395V85.3389C223.612 83.8643 223.271 82.6631 222.587 81.7354C221.903 80.7979 220.902 80.3291 219.584 80.3291C218.275 80.3291 217.279 80.7979 216.596 81.7354C215.912 82.6631 215.57 83.8643 215.57 85.3389ZM228.871 88.7227C228.871 87.2188 229.462 86.0469 230.644 85.207C231.825 84.3672 233.349 83.9473 235.214 83.9473H238.524V82.8779C238.524 82.0381 238.31 81.374 237.88 80.8857C237.45 80.3975 236.718 80.1533 235.683 80.1533C234.657 80.1533 233.905 80.3584 233.427 80.7686C232.958 81.1787 232.724 81.6963 232.724 82.3213V82.5264H229.721V82.2773C229.721 81.0566 230.268 80.0264 231.361 79.1865C232.465 78.3369 233.944 77.9121 235.8 77.9121C237.646 77.9121 239.071 78.3174 240.077 79.1279C241.093 79.9287 241.601 81.1885 241.601 82.9072V89.543C241.601 90.168 241.649 90.7588 241.747 91.3154C241.845 91.8721 241.986 92.3555 242.172 92.7656V93H239.184C239.047 92.7559 238.925 92.4482 238.817 92.0771C238.72 91.6963 238.656 91.3154 238.627 90.9346C238.295 91.54 237.724 92.0771 236.913 92.5459C236.112 93.0146 235.097 93.249 233.866 93.249C232.421 93.249 231.225 92.8682 230.277 92.1064C229.34 91.335 228.871 90.207 228.871 88.7227ZM231.933 88.5176C231.933 89.3184 232.162 89.9385 232.621 90.3779C233.09 90.8174 233.798 91.0371 234.745 91.0371C235.731 91.0371 236.605 90.7051 237.367 90.041C238.139 89.3672 238.524 88.625 238.524 87.8145V85.9541H235.741C234.462 85.9541 233.505 86.1787 232.87 86.6279C232.245 87.0771 231.933 87.707 231.933 88.5176ZM245.409 93V70.9395H248.485V93H245.409ZM252.821 91.4473C252.821 90.9297 252.987 90.4902 253.319 90.1289C253.651 89.7676 254.13 89.5869 254.755 89.5869C255.38 89.5869 255.858 89.7676 256.19 90.1289C256.522 90.4902 256.688 90.9297 256.688 91.4473C256.688 91.9551 256.522 92.3945 256.19 92.7656C255.858 93.127 255.38 93.3076 254.755 93.3076C254.13 93.3076 253.651 93.127 253.319 92.7656C252.987 92.3945 252.821 91.9551 252.821 91.4473ZM252.821 79.7725C252.821 79.2549 252.987 78.8154 253.319 78.4541C253.651 78.083 254.13 77.8975 254.755 77.8975C255.38 77.8975 255.858 78.083 256.19 78.4541C256.522 78.8154 256.688 79.25 256.688 79.7578C256.688 80.2754 256.522 80.7148 256.19 81.0762C255.858 81.4375 255.38 81.6182 254.755 81.6182C254.13 81.6182 253.651 81.4375 253.319 81.0762C252.987 80.7148 252.821 80.2803 252.821 79.7725Z" fill="black"/>
<path d="M130.15 139.225C128.983 139.225 127.95 139.075 127.05 138.775C126.167 138.458 125.425 138 124.825 137.4C124.225 136.783 123.767 136.025 123.45 135.125C123.15 134.208 123 133.15 123 131.95V122.375C123 121.975 123.1 121.683 123.3 121.5C123.5 121.3 123.783 121.2 124.15 121.2C124.533 121.2 124.825 121.3 125.025 121.5C125.225 121.683 125.325 121.975 125.325 122.375V131.875C125.325 133.658 125.733 134.992 126.55 135.875C127.367 136.742 128.567 137.175 130.15 137.175C131.733 137.175 132.933 136.742 133.75 135.875C134.567 134.992 134.975 133.658 134.975 131.875V122.375C134.975 121.975 135.075 121.683 135.275 121.5C135.475 121.3 135.758 121.2 136.125 121.2C136.492 121.2 136.775 121.3 136.975 121.5C137.175 121.683 137.275 121.975 137.275 122.375V131.95C137.275 133.533 137 134.867 136.45 135.95C135.917 137.033 135.117 137.85 134.05 138.4C133 138.95 131.7 139.225 130.15 139.225ZM145.311 139.225C144.561 139.225 143.803 139.142 143.036 138.975C142.286 138.792 141.578 138.483 140.911 138.05C140.728 137.933 140.594 137.792 140.511 137.625C140.444 137.442 140.419 137.267 140.436 137.1C140.469 136.917 140.544 136.758 140.661 136.625C140.778 136.492 140.919 136.417 141.086 136.4C141.269 136.367 141.461 136.408 141.661 136.525C142.311 136.892 142.936 137.15 143.536 137.3C144.153 137.45 144.761 137.525 145.361 137.525C146.278 137.525 146.969 137.358 147.436 137.025C147.903 136.692 148.136 136.25 148.136 135.7C148.136 135.233 147.978 134.875 147.661 134.625C147.361 134.358 146.886 134.158 146.236 134.025L143.911 133.55C142.878 133.317 142.094 132.933 141.561 132.4C141.044 131.85 140.786 131.15 140.786 130.3C140.786 129.55 140.986 128.9 141.386 128.35C141.803 127.783 142.378 127.35 143.111 127.05C143.844 126.75 144.686 126.6 145.636 126.6C146.369 126.6 147.061 126.7 147.711 126.9C148.378 127.083 148.978 127.367 149.511 127.75C149.711 127.867 149.836 128.017 149.886 128.2C149.953 128.367 149.961 128.542 149.911 128.725C149.878 128.892 149.803 129.033 149.686 129.15C149.569 129.267 149.419 129.342 149.236 129.375C149.053 129.392 148.853 129.342 148.636 129.225C148.153 128.892 147.653 128.658 147.136 128.525C146.636 128.375 146.136 128.3 145.636 128.3C144.736 128.3 144.053 128.475 143.586 128.825C143.136 129.175 142.911 129.633 142.911 130.2C142.911 130.633 143.044 130.992 143.311 131.275C143.594 131.558 144.036 131.767 144.636 131.9L146.961 132.375C148.044 132.608 148.861 132.983 149.411 133.5C149.961 134 150.236 134.683 150.236 135.55C150.236 136.683 149.786 137.583 148.886 138.25C148.003 138.9 146.811 139.225 145.311 139.225ZM158.821 139.225C157.504 139.225 156.371 138.975 155.421 138.475C154.488 137.958 153.763 137.233 153.246 136.3C152.729 135.35 152.471 134.233 152.471 132.95C152.471 131.683 152.721 130.575 153.221 129.625C153.738 128.675 154.438 127.933 155.321 127.4C156.221 126.867 157.246 126.6 158.396 126.6C159.213 126.6 159.946 126.742 160.596 127.025C161.263 127.292 161.829 127.683 162.296 128.2C162.763 128.717 163.113 129.35 163.346 130.1C163.596 130.833 163.721 131.667 163.721 132.6C163.721 132.867 163.638 133.075 163.471 133.225C163.321 133.358 163.096 133.425 162.796 133.425H154.246V131.975H162.221L161.796 132.325C161.796 131.458 161.663 130.725 161.396 130.125C161.146 129.508 160.771 129.042 160.271 128.725C159.788 128.408 159.179 128.25 158.446 128.25C157.646 128.25 156.963 128.442 156.396 128.825C155.829 129.192 155.396 129.717 155.096 130.4C154.796 131.067 154.646 131.842 154.646 132.725V132.875C154.646 134.375 155.004 135.508 155.721 136.275C156.438 137.042 157.471 137.425 158.821 137.425C159.354 137.425 159.896 137.358 160.446 137.225C161.013 137.092 161.554 136.85 162.071 136.5C162.321 136.35 162.546 136.283 162.746 136.3C162.963 136.3 163.138 136.367 163.271 136.5C163.404 136.617 163.488 136.767 163.521 136.95C163.554 137.117 163.529 137.3 163.446 137.5C163.363 137.7 163.204 137.875 162.971 138.025C162.421 138.408 161.763 138.708 160.996 138.925C160.246 139.125 159.521 139.225 158.821 139.225ZM167.726 139.175C167.342 139.175 167.051 139.075 166.851 138.875C166.651 138.675 166.551 138.383 166.551 138V127.8C166.551 127.417 166.651 127.133 166.851 126.95C167.051 126.75 167.326 126.65 167.676 126.65C168.026 126.65 168.292 126.75 168.476 126.95C168.676 127.133 168.776 127.417 168.776 127.8V129.725H168.526C168.792 128.725 169.292 127.967 170.026 127.45C170.759 126.933 171.684 126.642 172.801 126.575C173.067 126.558 173.284 126.625 173.451 126.775C173.617 126.908 173.709 127.142 173.726 127.475C173.742 127.792 173.667 128.05 173.501 128.25C173.334 128.433 173.076 128.542 172.726 128.575L172.276 128.6C171.176 128.717 170.326 129.075 169.726 129.675C169.142 130.275 168.851 131.1 168.851 132.15V138C168.851 138.383 168.751 138.675 168.551 138.875C168.367 139.075 168.092 139.175 167.726 139.175ZM184.05 139.175C183.683 139.175 183.4 139.075 183.2 138.875C183 138.675 182.9 138.383 182.9 138V128.575H181.4C181.1 128.575 180.867 128.5 180.7 128.35C180.533 128.183 180.45 127.967 180.45 127.7C180.45 127.417 180.533 127.2 180.7 127.05C180.867 126.9 181.1 126.825 181.4 126.825H183.525L182.9 127.425V126.5C182.9 124.883 183.292 123.658 184.075 122.825C184.875 121.975 186.042 121.483 187.575 121.35L188.35 121.3C188.6 121.267 188.8 121.308 188.95 121.425C189.1 121.525 189.2 121.658 189.25 121.825C189.3 121.992 189.3 122.167 189.25 122.35C189.217 122.517 189.142 122.667 189.025 122.8C188.908 122.933 188.758 123.008 188.575 123.025L188.025 123.05C187.025 123.133 186.3 123.433 185.85 123.95C185.4 124.45 185.175 125.2 185.175 126.2V127.2L184.85 126.825H187.725C188.042 126.825 188.283 126.9 188.45 127.05C188.617 127.2 188.7 127.417 188.7 127.7C188.7 127.967 188.617 128.183 188.45 128.35C188.283 128.5 188.042 128.575 187.725 128.575H185.175V138C185.175 138.783 184.8 139.175 184.05 139.175ZM191.871 139.175C191.488 139.175 191.196 139.075 190.996 138.875C190.796 138.675 190.696 138.383 190.696 138V127.8C190.696 127.417 190.796 127.133 190.996 126.95C191.196 126.75 191.471 126.65 191.821 126.65C192.171 126.65 192.438 126.75 192.621 126.95C192.821 127.133 192.921 127.417 192.921 127.8V129.725H192.671C192.938 128.725 193.438 127.967 194.171 127.45C194.904 126.933 195.829 126.642 196.946 126.575C197.213 126.558 197.429 126.625 197.596 126.775C197.763 126.908 197.854 127.142 197.871 127.475C197.888 127.792 197.813 128.05 197.646 128.25C197.479 128.433 197.221 128.542 196.871 128.575L196.421 128.6C195.321 128.717 194.471 129.075 193.871 129.675C193.288 130.275 192.996 131.1 192.996 132.15V138C192.996 138.383 192.896 138.675 192.696 138.875C192.513 139.075 192.238 139.175 191.871 139.175ZM200.952 139.125C200.602 139.125 200.327 139.017 200.127 138.8C199.927 138.583 199.827 138.283 199.827 137.9V127.925C199.827 127.525 199.927 127.225 200.127 127.025C200.327 126.808 200.602 126.7 200.952 126.7C201.319 126.7 201.602 126.808 201.802 127.025C202.002 127.225 202.102 127.525 202.102 127.925V137.9C202.102 138.283 202.002 138.583 201.802 138.8C201.619 139.017 201.335 139.125 200.952 139.125ZM200.952 124C200.502 124 200.144 123.883 199.877 123.65C199.627 123.4 199.502 123.075 199.502 122.675C199.502 122.242 199.627 121.917 199.877 121.7C200.144 121.467 200.502 121.35 200.952 121.35C201.435 121.35 201.794 121.467 202.027 121.7C202.277 121.917 202.402 122.242 202.402 122.675C202.402 123.075 202.277 123.4 202.027 123.65C201.794 123.883 201.435 124 200.952 124ZM211.385 139.225C210.068 139.225 208.935 138.975 207.985 138.475C207.051 137.958 206.326 137.233 205.81 136.3C205.293 135.35 205.035 134.233 205.035 132.95C205.035 131.683 205.285 130.575 205.785 129.625C206.301 128.675 207.001 127.933 207.885 127.4C208.785 126.867 209.81 126.6 210.96 126.6C211.776 126.6 212.51 126.742 213.16 127.025C213.826 127.292 214.393 127.683 214.86 128.2C215.326 128.717 215.676 129.35 215.91 130.1C216.16 130.833 216.285 131.667 216.285 132.6C216.285 132.867 216.201 133.075 216.035 133.225C215.885 133.358 215.66 133.425 215.36 133.425H206.81V131.975H214.785L214.36 132.325C214.36 131.458 214.226 130.725 213.96 130.125C213.71 129.508 213.335 129.042 212.835 128.725C212.351 128.408 211.743 128.25 211.01 128.25C210.21 128.25 209.526 128.442 208.96 128.825C208.393 129.192 207.96 129.717 207.66 130.4C207.36 131.067 207.21 131.842 207.21 132.725V132.875C207.21 134.375 207.568 135.508 208.285 136.275C209.001 137.042 210.035 137.425 211.385 137.425C211.918 137.425 212.46 137.358 213.01 137.225C213.576 137.092 214.118 136.85 214.635 136.5C214.885 136.35 215.11 136.283 215.31 136.3C215.526 136.3 215.701 136.367 215.835 136.5C215.968 136.617 216.051 136.767 216.085 136.95C216.118 137.117 216.093 137.3 216.01 137.5C215.926 137.7 215.768 137.875 215.535 138.025C214.985 138.408 214.326 138.708 213.56 138.925C212.81 139.125 212.085 139.225 211.385 139.225ZM220.239 139.175C219.889 139.175 219.614 139.075 219.414 138.875C219.214 138.675 219.114 138.383 219.114 138V127.8C219.114 127.417 219.214 127.133 219.414 126.95C219.614 126.75 219.889 126.65 220.239 126.65C220.589 126.65 220.856 126.75 221.039 126.95C221.239 127.133 221.339 127.417 221.339 127.8V129.85L221.064 129.475C221.414 128.525 221.981 127.808 222.764 127.325C223.564 126.842 224.472 126.6 225.489 126.6C226.472 126.6 227.281 126.775 227.914 127.125C228.547 127.475 229.022 128.008 229.339 128.725C229.656 129.442 229.814 130.35 229.814 131.45V138C229.814 138.383 229.714 138.675 229.514 138.875C229.331 139.075 229.056 139.175 228.689 139.175C228.322 139.175 228.039 139.075 227.839 138.875C227.639 138.675 227.539 138.383 227.539 138V131.575C227.539 130.492 227.331 129.7 226.914 129.2C226.497 128.7 225.831 128.45 224.914 128.45C223.847 128.45 222.989 128.783 222.339 129.45C221.706 130.1 221.389 130.983 221.389 132.1V138C221.389 138.783 221.006 139.175 220.239 139.175ZM238.071 139.225C237.004 139.225 236.062 138.975 235.246 138.475C234.446 137.958 233.821 137.225 233.371 136.275C232.921 135.308 232.696 134.183 232.696 132.9C232.696 131.6 232.912 130.483 233.346 129.55C233.796 128.6 234.421 127.875 235.221 127.375C236.037 126.858 236.987 126.6 238.071 126.6C239.154 126.6 240.087 126.875 240.871 127.425C241.654 127.958 242.179 128.675 242.446 129.575H242.171V122.35C242.171 121.967 242.262 121.683 242.446 121.5C242.646 121.3 242.929 121.2 243.296 121.2C243.662 121.2 243.946 121.3 244.146 121.5C244.346 121.683 244.446 121.967 244.446 122.35V138C244.446 138.383 244.346 138.675 244.146 138.875C243.946 139.075 243.662 139.175 243.296 139.175C242.946 139.175 242.671 139.075 242.471 138.875C242.271 138.675 242.171 138.383 242.171 138V135.725L242.446 136.175C242.196 137.108 241.671 137.85 240.871 138.4C240.087 138.95 239.154 139.225 238.071 139.225ZM238.596 137.425C239.329 137.425 239.962 137.25 240.496 136.9C241.046 136.55 241.462 136.042 241.746 135.375C242.046 134.708 242.196 133.883 242.196 132.9C242.196 131.433 241.871 130.317 241.221 129.55C240.571 128.783 239.696 128.4 238.596 128.4C237.879 128.4 237.246 128.575 236.696 128.925C236.162 129.258 235.746 129.758 235.446 130.425C235.146 131.092 234.996 131.917 234.996 132.9C234.996 134.367 235.321 135.492 235.971 136.275C236.637 137.042 237.512 137.425 238.596 137.425ZM251.919 139.225C250.669 139.225 249.719 138.858 249.069 138.125C248.419 137.375 248.094 136.3 248.094 134.9V122.35C248.094 121.967 248.194 121.683 248.394 121.5C248.594 121.3 248.869 121.2 249.219 121.2C249.585 121.2 249.869 121.3 250.069 121.5C250.269 121.683 250.369 121.967 250.369 122.35V134.725C250.369 135.592 250.544 136.242 250.894 136.675C251.26 137.092 251.777 137.3 252.444 137.3C252.594 137.3 252.727 137.3 252.844 137.3C252.96 137.283 253.077 137.267 253.194 137.25C253.377 137.233 253.51 137.283 253.594 137.4C253.677 137.517 253.719 137.75 253.719 138.1C253.719 138.417 253.644 138.667 253.494 138.85C253.36 139.017 253.135 139.125 252.819 139.175C252.669 139.192 252.519 139.2 252.369 139.2C252.219 139.217 252.069 139.225 251.919 139.225ZM258.12 143.675C257.853 143.675 257.628 143.6 257.445 143.45C257.278 143.317 257.178 143.125 257.145 142.875C257.128 142.642 257.178 142.392 257.295 142.125L258.995 138.275V139.225L254.27 128.225C254.153 127.942 254.112 127.683 254.145 127.45C254.178 127.217 254.287 127.025 254.47 126.875C254.67 126.725 254.937 126.65 255.27 126.65C255.553 126.65 255.778 126.717 255.945 126.85C256.112 126.983 256.27 127.217 256.42 127.55L260.345 137.225H259.645L263.645 127.55C263.778 127.217 263.937 126.983 264.12 126.85C264.303 126.717 264.553 126.65 264.87 126.65C265.153 126.65 265.37 126.725 265.52 126.875C265.687 127.025 265.787 127.217 265.82 127.45C265.853 127.683 265.803 127.933 265.67 128.2L259.37 142.775C259.203 143.125 259.028 143.358 258.845 143.475C258.678 143.608 258.437 143.675 258.12 143.675ZM280.179 139.225C278.995 139.225 277.97 139.042 277.104 138.675C276.254 138.292 275.595 137.767 275.129 137.1C274.679 136.417 274.454 135.617 274.454 134.7C274.454 134.15 274.529 133.633 274.679 133.15C274.829 132.667 275.054 132.217 275.354 131.8C275.67 131.367 276.054 130.95 276.504 130.55C276.97 130.15 277.504 129.758 278.104 129.375L278.929 128.85L278.604 129.325C277.82 128.492 277.262 127.758 276.929 127.125C276.612 126.475 276.454 125.8 276.454 125.1C276.454 124.317 276.637 123.633 277.004 123.05C277.37 122.45 277.887 121.983 278.554 121.65C279.237 121.317 280.029 121.15 280.929 121.15C282.129 121.15 283.104 121.475 283.854 122.125C284.604 122.775 284.979 123.658 284.979 124.775C284.979 125.392 284.854 125.967 284.604 126.5C284.37 127.033 283.979 127.558 283.429 128.075C282.879 128.592 282.129 129.142 281.179 129.725L281.204 129.15L285.779 134.225H285.279C285.512 133.825 285.712 133.375 285.879 132.875C286.062 132.375 286.212 131.833 286.329 131.25C286.462 130.667 286.554 130.05 286.604 129.4C286.654 129.083 286.762 128.85 286.929 128.7C287.095 128.533 287.329 128.45 287.629 128.45C287.945 128.45 288.187 128.542 288.354 128.725C288.52 128.908 288.587 129.167 288.554 129.5C288.487 130.333 288.362 131.125 288.179 131.875C287.995 132.608 287.77 133.292 287.504 133.925C287.237 134.558 286.937 135.133 286.604 135.65L286.579 135.025L289.054 137.675C289.287 137.908 289.395 138.142 289.379 138.375C289.379 138.608 289.287 138.8 289.104 138.95C288.92 139.1 288.679 139.175 288.379 139.175C288.112 139.175 287.895 139.125 287.729 139.025C287.562 138.925 287.379 138.767 287.179 138.55L285.329 136.525H285.904C285.204 137.375 284.354 138.042 283.354 138.525C282.37 138.992 281.312 139.225 280.179 139.225ZM280.279 137.375C281.212 137.375 282.037 137.192 282.754 136.825C283.47 136.442 284.104 135.875 284.654 135.125L284.604 135.8L279.329 130.125L280.229 130.175L279.479 130.675C278.812 131.108 278.27 131.525 277.854 131.925C277.454 132.308 277.162 132.708 276.979 133.125C276.795 133.542 276.704 134.017 276.704 134.55C276.704 135.433 277.012 136.125 277.629 136.625C278.245 137.125 279.129 137.375 280.279 137.375ZM280.929 122.85C280.229 122.85 279.662 123.058 279.229 123.475C278.795 123.875 278.579 124.408 278.579 125.075C278.579 125.408 278.629 125.733 278.729 126.05C278.845 126.35 279.037 126.683 279.304 127.05C279.587 127.4 279.979 127.85 280.479 128.4L279.904 128.425C280.67 127.942 281.279 127.517 281.729 127.15C282.179 126.767 282.504 126.4 282.704 126.05C282.904 125.683 283.004 125.3 283.004 124.9C283.004 124.267 282.812 123.767 282.429 123.4C282.045 123.033 281.545 122.85 280.929 122.85ZM300.252 139.175C299.885 139.175 299.602 139.075 299.402 138.875C299.202 138.658 299.102 138.358 299.102 137.975V122.4C299.102 122 299.202 121.7 299.402 121.5C299.602 121.3 299.885 121.2 300.252 121.2C300.635 121.2 300.927 121.3 301.127 121.5C301.327 121.7 301.427 122 301.427 122.4V137.975C301.427 138.358 301.327 138.658 301.127 138.875C300.943 139.075 300.652 139.175 300.252 139.175ZM306.47 139.175C306.12 139.175 305.845 139.075 305.645 138.875C305.445 138.675 305.345 138.383 305.345 138V127.8C305.345 127.417 305.445 127.133 305.645 126.95C305.845 126.75 306.12 126.65 306.47 126.65C306.82 126.65 307.086 126.75 307.27 126.95C307.47 127.133 307.57 127.417 307.57 127.8V129.85L307.295 129.475C307.645 128.525 308.211 127.808 308.995 127.325C309.795 126.842 310.703 126.6 311.72 126.6C312.703 126.6 313.511 126.775 314.145 127.125C314.778 127.475 315.253 128.008 315.57 128.725C315.886 129.442 316.045 130.35 316.045 131.45V138C316.045 138.383 315.945 138.675 315.745 138.875C315.561 139.075 315.286 139.175 314.92 139.175C314.553 139.175 314.27 139.075 314.07 138.875C313.87 138.675 313.77 138.383 313.77 138V131.575C313.77 130.492 313.561 129.7 313.145 129.2C312.728 128.7 312.061 128.45 311.145 128.45C310.078 128.45 309.22 128.783 308.57 129.45C307.936 130.1 307.62 130.983 307.62 132.1V138C307.62 138.783 307.236 139.175 306.47 139.175ZM324.701 139.225C323.718 139.225 322.893 139.05 322.226 138.7C321.576 138.35 321.085 137.842 320.751 137.175C320.435 136.508 320.276 135.692 320.276 134.725V128.575H318.676C318.376 128.575 318.143 128.5 317.976 128.35C317.81 128.183 317.726 127.967 317.726 127.7C317.726 127.417 317.81 127.2 317.976 127.05C318.143 126.9 318.376 126.825 318.676 126.825H320.276V124.1C320.276 123.717 320.376 123.433 320.576 123.25C320.776 123.05 321.06 122.95 321.426 122.95C321.793 122.95 322.068 123.05 322.251 123.25C322.451 123.433 322.551 123.717 322.551 124.1V126.825H325.576C325.893 126.825 326.135 126.9 326.301 127.05C326.468 127.2 326.551 127.417 326.551 127.7C326.551 127.967 326.468 128.183 326.301 128.35C326.135 128.5 325.893 128.575 325.576 128.575H322.551V134.525C322.551 135.442 322.743 136.133 323.126 136.6C323.51 137.067 324.143 137.3 325.026 137.3C325.343 137.3 325.61 137.275 325.826 137.225C326.043 137.158 326.235 137.125 326.401 137.125C326.551 137.108 326.676 137.158 326.776 137.275C326.893 137.392 326.951 137.608 326.951 137.925C326.951 138.158 326.91 138.375 326.826 138.575C326.76 138.758 326.618 138.883 326.401 138.95C326.201 139.017 325.935 139.075 325.601 139.125C325.268 139.192 324.968 139.225 324.701 139.225ZM332.961 139.225C331.978 139.225 331.153 139.042 330.486 138.675C329.836 138.308 329.353 137.767 329.036 137.05C328.719 136.333 328.561 135.433 328.561 134.35V127.8C328.561 127.417 328.653 127.133 328.836 126.95C329.036 126.75 329.319 126.65 329.686 126.65C330.053 126.65 330.336 126.75 330.536 126.95C330.736 127.133 330.836 127.417 330.836 127.8V134.35C330.836 135.383 331.044 136.15 331.461 136.65C331.878 137.133 332.536 137.375 333.436 137.375C334.436 137.375 335.244 137.042 335.861 136.375C336.494 135.708 336.811 134.825 336.811 133.725V127.8C336.811 127.417 336.903 127.133 337.086 126.95C337.286 126.75 337.569 126.65 337.936 126.65C338.303 126.65 338.586 126.75 338.786 126.95C338.986 127.133 339.086 127.417 339.086 127.8V138C339.086 138.783 338.719 139.175 337.986 139.175C337.619 139.175 337.336 139.075 337.136 138.875C336.953 138.675 336.861 138.383 336.861 138V135.825L337.186 136.25C336.853 137.217 336.311 137.958 335.561 138.475C334.828 138.975 333.961 139.225 332.961 139.225ZM343.872 139.125C343.522 139.125 343.247 139.017 343.047 138.8C342.847 138.583 342.747 138.283 342.747 137.9V127.925C342.747 127.525 342.847 127.225 343.047 127.025C343.247 126.808 343.522 126.7 343.872 126.7C344.239 126.7 344.522 126.808 344.722 127.025C344.922 127.225 345.022 127.525 345.022 127.925V137.9C345.022 138.283 344.922 138.583 344.722 138.8C344.539 139.017 344.255 139.125 343.872 139.125ZM343.872 124C343.422 124 343.064 123.883 342.797 123.65C342.547 123.4 342.422 123.075 342.422 122.675C342.422 122.242 342.547 121.917 342.797 121.7C343.064 121.467 343.422 121.35 343.872 121.35C344.355 121.35 344.714 121.467 344.947 121.7C345.197 121.917 345.322 122.242 345.322 122.675C345.322 123.075 345.197 123.4 344.947 123.65C344.714 123.883 344.355 124 343.872 124ZM353.729 139.225C352.746 139.225 351.921 139.05 351.254 138.7C350.604 138.35 350.113 137.842 349.779 137.175C349.463 136.508 349.304 135.692 349.304 134.725V128.575H347.704C347.404 128.575 347.171 128.5 347.004 128.35C346.838 128.183 346.754 127.967 346.754 127.7C346.754 127.417 346.838 127.2 347.004 127.05C347.171 126.9 347.404 126.825 347.704 126.825H349.304V124.1C349.304 123.717 349.404 123.433 349.604 123.25C349.804 123.05 350.088 122.95 350.454 122.95C350.821 122.95 351.096 123.05 351.279 123.25C351.479 123.433 351.579 123.717 351.579 124.1V126.825H354.604C354.921 126.825 355.163 126.9 355.329 127.05C355.496 127.2 355.579 127.417 355.579 127.7C355.579 127.967 355.496 128.183 355.329 128.35C355.163 128.5 354.921 128.575 354.604 128.575H351.579V134.525C351.579 135.442 351.771 136.133 352.154 136.6C352.538 137.067 353.171 137.3 354.054 137.3C354.371 137.3 354.638 137.275 354.854 137.225C355.071 137.158 355.263 137.125 355.429 137.125C355.579 137.108 355.704 137.158 355.804 137.275C355.921 137.392 355.979 137.608 355.979 137.925C355.979 138.158 355.938 138.375 355.854 138.575C355.788 138.758 355.646 138.883 355.429 138.95C355.229 139.017 354.963 139.075 354.629 139.125C354.296 139.192 353.996 139.225 353.729 139.225ZM358.96 139.125C358.61 139.125 358.335 139.017 358.135 138.8C357.935 138.583 357.835 138.283 357.835 137.9V127.925C357.835 127.525 357.935 127.225 358.135 127.025C358.335 126.808 358.61 126.7 358.96 126.7C359.326 126.7 359.61 126.808 359.81 127.025C360.01 127.225 360.11 127.525 360.11 127.925V137.9C360.11 138.283 360.01 138.583 359.81 138.8C359.626 139.017 359.343 139.125 358.96 139.125ZM358.96 124C358.51 124 358.151 123.883 357.885 123.65C357.635 123.4 357.51 123.075 357.51 122.675C357.51 122.242 357.635 121.917 357.885 121.7C358.151 121.467 358.51 121.35 358.96 121.35C359.443 121.35 359.801 121.467 360.035 121.7C360.285 121.917 360.41 122.242 360.41 122.675C360.41 123.075 360.285 123.4 360.035 123.65C359.801 123.883 359.443 124 358.96 124ZM368.392 139.175C368.076 139.175 367.801 139.092 367.567 138.925C367.334 138.758 367.134 138.492 366.967 138.125L362.717 128.225C362.601 127.942 362.559 127.683 362.592 127.45C362.626 127.217 362.734 127.025 362.917 126.875C363.117 126.725 363.384 126.65 363.717 126.65C364.001 126.65 364.226 126.717 364.392 126.85C364.559 126.983 364.717 127.217 364.867 127.55L368.792 137.225H368.092L372.117 127.55C372.251 127.217 372.401 126.983 372.567 126.85C372.751 126.717 373.001 126.65 373.317 126.65C373.601 126.65 373.817 126.725 373.967 126.875C374.134 127.025 374.234 127.217 374.267 127.45C374.301 127.683 374.251 127.933 374.117 128.2L369.842 138.125C369.692 138.492 369.492 138.758 369.242 138.925C369.009 139.092 368.726 139.175 368.392 139.175ZM382.137 139.225C380.82 139.225 379.687 138.975 378.737 138.475C377.803 137.958 377.078 137.233 376.562 136.3C376.045 135.35 375.787 134.233 375.787 132.95C375.787 131.683 376.037 130.575 376.537 129.625C377.053 128.675 377.753 127.933 378.637 127.4C379.537 126.867 380.562 126.6 381.712 126.6C382.528 126.6 383.262 126.742 383.912 127.025C384.578 127.292 385.145 127.683 385.612 128.2C386.078 128.717 386.428 129.35 386.662 130.1C386.912 130.833 387.037 131.667 387.037 132.6C387.037 132.867 386.953 133.075 386.787 133.225C386.637 133.358 386.412 133.425 386.112 133.425H377.562V131.975H385.537L385.112 132.325C385.112 131.458 384.978 130.725 384.712 130.125C384.462 129.508 384.087 129.042 383.587 128.725C383.103 128.408 382.495 128.25 381.762 128.25C380.962 128.25 380.278 128.442 379.712 128.825C379.145 129.192 378.712 129.717 378.412 130.4C378.112 131.067 377.962 131.842 377.962 132.725V132.875C377.962 134.375 378.32 135.508 379.037 136.275C379.753 137.042 380.787 137.425 382.137 137.425C382.67 137.425 383.212 137.358 383.762 137.225C384.328 137.092 384.87 136.85 385.387 136.5C385.637 136.35 385.862 136.283 386.062 136.3C386.278 136.3 386.453 136.367 386.587 136.5C386.72 136.617 386.803 136.767 386.837 136.95C386.87 137.117 386.845 137.3 386.762 137.5C386.678 137.7 386.52 137.875 386.287 138.025C385.737 138.408 385.078 138.708 384.312 138.925C383.562 139.125 382.837 139.225 382.137 139.225Z" fill="black"/>
</svg>
