<svg width="522" height="191" viewBox="0 0 522 191" fill="none" xmlns="http://www.w3.org/2000/svg">
<mask id="path-1-inside-1_466_1268" fill="white">
<path d="M41 54C41 42.9543 49.9543 34 61 34H502C513.046 34 522 42.9543 522 54V171C522 182.046 513.046 191 502 191H61C49.9543 191 41 182.046 41 171V54Z"/>
</mask>
<path d="M41 54C41 42.9543 49.9543 34 61 34H502C513.046 34 522 42.9543 522 54V171C522 182.046 513.046 191 502 191H61C49.9543 191 41 182.046 41 171V54Z" fill="#EBCBFF"/>
<path d="M41 34H522H41ZM528 171C528 185.359 516.359 197 502 197H67C52.6406 197 41 185.359 41 171C41 178.732 49.9543 185 61 185H502C509.732 185 516 178.732 516 171H528ZM41 191V34V191ZM502 34C516.359 34 528 45.6406 528 60V171C528 185.359 516.359 197 502 197V185C509.732 185 516 178.732 516 171V54C516 42.9543 509.732 34 502 34Z" fill="#6E32AB" mask="url(#path-1-inside-1_466_1268)"/>
<path d="M29.5714 99.5714C39.6886 93.0861 41 71 41 71C41 71 42.3114 93.0861 52.4286 99.5714C61.8221 105.593 81 99.5714 81 99.5714C81 99.5714 60.4801 110.023 58.1429 122.429C55.9179 134.238 69.5714 151 69.5714 151C69.5714 151 54.0122 133.857 41 133.857C27.9878 133.857 12.4286 151 12.4286 151C12.4286 151 26.0821 134.238 23.8571 122.429C21.5199 110.023 1 99.5714 1 99.5714C1 99.5714 20.1779 105.593 29.5714 99.5714Z" fill="#F4EAB2" stroke="#6E32AB" stroke-width="4"/>
<path d="M478.857 18.8571C485.18 14.8038 486 1 486 1C486 1 486.82 14.8038 493.143 18.8571C499.014 22.6206 511 18.8571 511 18.8571C511 18.8571 498.175 25.3895 496.714 33.1429C495.324 40.5238 503.857 51 503.857 51C503.857 51 494.133 40.2857 486 40.2857C477.867 40.2857 468.143 51 468.143 51C468.143 51 476.676 40.5238 475.286 33.1429C473.825 25.3895 461 18.8571 461 18.8571C461 18.8571 472.986 22.6206 478.857 18.8571Z" fill="#F4EAB2" stroke="#6E32AB" stroke-width="4"/>
<path d="M123.153 93V71.6719H127.328L133.085 87.1113C133.202 87.4336 133.31 87.751 133.407 88.0635C133.505 88.376 133.588 88.6982 133.656 89.0303H133.744C133.822 88.6982 133.91 88.376 134.008 88.0635C134.105 87.7412 134.208 87.4238 134.315 87.1113L140.072 71.6719H144.276V93H141.171V77.9707C141.171 77.6582 141.176 77.3115 141.186 76.9307C141.195 76.54 141.215 76.1836 141.244 75.8613H141.142C141.083 76.1836 140.995 76.54 140.878 76.9307C140.771 77.3115 140.663 77.6582 140.556 77.9707L134.975 93H132.221L126.64 77.9707C126.522 77.6582 126.405 77.292 126.288 76.8721C126.171 76.4521 126.093 76.1152 126.054 75.8613H125.951C125.98 76.1152 126 76.4521 126.01 76.8721C126.029 77.292 126.039 77.6582 126.039 77.9707V93H123.153ZM147.514 88.7227C147.514 87.2188 148.104 86.0469 149.286 85.207C150.468 84.3672 151.991 83.9473 153.856 83.9473H157.167V82.8779C157.167 82.0381 156.952 81.374 156.522 80.8857C156.093 80.3975 155.36 80.1533 154.325 80.1533C153.3 80.1533 152.548 80.3584 152.069 80.7686C151.601 81.1787 151.366 81.6963 151.366 82.3213V82.5264H148.363V82.2773C148.363 81.0566 148.91 80.0264 150.004 79.1865C151.107 78.3369 152.587 77.9121 154.442 77.9121C156.288 77.9121 157.714 78.3174 158.72 79.1279C159.735 79.9287 160.243 81.1885 160.243 82.9072V89.543C160.243 90.168 160.292 90.7588 160.39 91.3154C160.487 91.8721 160.629 92.3555 160.814 92.7656V93H157.826C157.689 92.7559 157.567 92.4482 157.46 92.0771C157.362 91.6963 157.299 91.3154 157.27 90.9346C156.938 91.54 156.366 92.0771 155.556 92.5459C154.755 93.0146 153.739 93.249 152.509 93.249C151.063 93.249 149.867 92.8682 148.92 92.1064C147.982 91.335 147.514 90.207 147.514 88.7227ZM150.575 88.5176C150.575 89.3184 150.805 89.9385 151.264 90.3779C151.732 90.8174 152.44 91.0371 153.388 91.0371C154.374 91.0371 155.248 90.7051 156.01 90.041C156.781 89.3672 157.167 88.625 157.167 87.8145V85.9541H154.384C153.104 85.9541 152.147 86.1787 151.513 86.6279C150.888 87.0771 150.575 87.707 150.575 88.5176ZM164.081 93V78.3076H167.172V93H164.081ZM163.759 73.6055C163.759 73.1074 163.92 72.6924 164.242 72.3604C164.564 72.0186 165.028 71.8477 165.634 71.8477C166.239 71.8477 166.698 72.0186 167.011 72.3604C167.333 72.6924 167.494 73.1074 167.494 73.6055C167.494 74.1035 167.333 74.5234 167.011 74.8652C166.688 75.207 166.225 75.3779 165.619 75.3779C165.023 75.3779 164.564 75.207 164.242 74.8652C163.92 74.5234 163.759 74.1035 163.759 73.6055ZM171.054 93V78.3076H173.939L174.013 80.2119H174.071C174.54 79.5283 175.165 78.9912 175.946 78.6006C176.737 78.2002 177.621 78 178.598 78C180.072 78 181.254 78.4199 182.143 79.2598C183.031 80.0898 183.476 81.501 183.476 83.4932V93H180.399V83.5957C180.399 82.4727 180.15 81.6719 179.652 81.1934C179.164 80.7148 178.471 80.4756 177.572 80.4756C176.811 80.4756 176.127 80.6904 175.521 81.1201C174.916 81.5498 174.452 82.1113 174.13 82.8047V93H171.054ZM193.422 82.9658V81.7061C193.422 78.376 194.218 75.8076 195.81 74.001C197.401 72.1943 199.521 71.291 202.167 71.291C204.56 71.291 206.42 71.916 207.748 73.166C209.086 74.4062 209.789 75.9443 209.857 77.7803L209.872 78.0879H206.723V77.8389C206.723 76.7549 206.327 75.8223 205.536 75.041C204.745 74.25 203.598 73.8545 202.094 73.8545C200.424 73.8545 199.101 74.5088 198.124 75.8174C197.147 77.126 196.659 79.001 196.659 81.4424V83.2441C196.659 85.6855 197.167 87.5654 198.183 88.8838C199.198 90.2021 200.619 90.8613 202.445 90.8613C203.383 90.8613 204.193 90.7588 204.877 90.5537C205.561 90.3389 206.205 90.002 206.811 89.543V84.7236H202.152V82.2773H209.872V90.627C209.286 91.2617 208.363 91.8818 207.104 92.4873C205.844 93.083 204.286 93.3809 202.431 93.3809C199.638 93.3809 197.436 92.4775 195.824 90.6709C194.223 88.8643 193.422 86.2959 193.422 82.9658ZM212.436 85.8809V85.4121C212.436 83.166 213.085 81.3545 214.384 79.9775C215.692 78.5908 217.426 77.8975 219.584 77.8975C221.752 77.8975 223.485 78.5908 224.784 79.9775C226.093 81.3545 226.747 83.166 226.747 85.4121V85.8809C226.747 88.127 226.093 89.9434 224.784 91.3301C223.485 92.707 221.752 93.3955 219.584 93.3955C217.426 93.3955 215.692 92.707 214.384 91.3301C213.085 89.9434 212.436 88.127 212.436 85.8809ZM215.57 85.3389V85.9395C215.57 87.4141 215.912 88.625 216.596 89.5723C217.279 90.5098 218.275 90.9785 219.584 90.9785C220.902 90.9785 221.903 90.5098 222.587 89.5723C223.271 88.625 223.612 87.4141 223.612 85.9395V85.3389C223.612 83.8643 223.271 82.6631 222.587 81.7354C221.903 80.7979 220.902 80.3291 219.584 80.3291C218.275 80.3291 217.279 80.7979 216.596 81.7354C215.912 82.6631 215.57 83.8643 215.57 85.3389ZM228.871 88.7227C228.871 87.2188 229.462 86.0469 230.644 85.207C231.825 84.3672 233.349 83.9473 235.214 83.9473H238.524V82.8779C238.524 82.0381 238.31 81.374 237.88 80.8857C237.45 80.3975 236.718 80.1533 235.683 80.1533C234.657 80.1533 233.905 80.3584 233.427 80.7686C232.958 81.1787 232.724 81.6963 232.724 82.3213V82.5264H229.721V82.2773C229.721 81.0566 230.268 80.0264 231.361 79.1865C232.465 78.3369 233.944 77.9121 235.8 77.9121C237.646 77.9121 239.071 78.3174 240.077 79.1279C241.093 79.9287 241.601 81.1885 241.601 82.9072V89.543C241.601 90.168 241.649 90.7588 241.747 91.3154C241.845 91.8721 241.986 92.3555 242.172 92.7656V93H239.184C239.047 92.7559 238.925 92.4482 238.817 92.0771C238.72 91.6963 238.656 91.3154 238.627 90.9346C238.295 91.54 237.724 92.0771 236.913 92.5459C236.112 93.0146 235.097 93.249 233.866 93.249C232.421 93.249 231.225 92.8682 230.277 92.1064C229.34 91.335 228.871 90.207 228.871 88.7227ZM231.933 88.5176C231.933 89.3184 232.162 89.9385 232.621 90.3779C233.09 90.8174 233.798 91.0371 234.745 91.0371C235.731 91.0371 236.605 90.7051 237.367 90.041C238.139 89.3672 238.524 88.625 238.524 87.8145V85.9541H235.741C234.462 85.9541 233.505 86.1787 232.87 86.6279C232.245 87.0771 231.933 87.707 231.933 88.5176ZM245.409 93V70.9395H248.485V93H245.409ZM252.821 91.4473C252.821 90.9297 252.987 90.4902 253.319 90.1289C253.651 89.7676 254.13 89.5869 254.755 89.5869C255.38 89.5869 255.858 89.7676 256.19 90.1289C256.522 90.4902 256.688 90.9297 256.688 91.4473C256.688 91.9551 256.522 92.3945 256.19 92.7656C255.858 93.127 255.38 93.3076 254.755 93.3076C254.13 93.3076 253.651 93.127 253.319 92.7656C252.987 92.3945 252.821 91.9551 252.821 91.4473ZM252.821 79.7725C252.821 79.2549 252.987 78.8154 253.319 78.4541C253.651 78.083 254.13 77.8975 254.755 77.8975C255.38 77.8975 255.858 78.083 256.19 78.4541C256.522 78.8154 256.688 79.25 256.688 79.7578C256.688 80.2754 256.522 80.7148 256.19 81.0762C255.858 81.4375 255.38 81.6182 254.755 81.6182C254.13 81.6182 253.651 81.4375 253.319 81.0762C252.987 80.7148 252.821 80.2803 252.821 79.7725Z" fill="black"/>
<path d="M124.225 139.175C123.892 139.175 123.633 139.075 123.45 138.875C123.267 138.675 123.175 138.408 123.175 138.075V122.3C123.175 121.95 123.267 121.683 123.45 121.5C123.65 121.3 123.917 121.2 124.25 121.2C124.55 121.2 124.783 121.258 124.95 121.375C125.133 121.492 125.3 121.692 125.45 121.975L132.15 134.55H131.375L138.075 121.975C138.225 121.692 138.383 121.492 138.55 121.375C138.717 121.258 138.95 121.2 139.25 121.2C139.583 121.2 139.842 121.3 140.025 121.5C140.208 121.683 140.3 121.95 140.3 122.3V138.075C140.3 138.408 140.208 138.675 140.025 138.875C139.858 139.075 139.6 139.175 139.25 139.175C138.9 139.175 138.633 139.075 138.45 138.875C138.283 138.675 138.2 138.408 138.2 138.075V124.6H138.75L132.75 135.825C132.617 136.042 132.475 136.208 132.325 136.325C132.192 136.425 132 136.475 131.75 136.475C131.517 136.475 131.317 136.417 131.15 136.3C131 136.183 130.867 136.025 130.75 135.825L124.675 124.575H125.275V138.075C125.275 138.408 125.183 138.675 125 138.875C124.833 139.075 124.575 139.175 124.225 139.175ZM145.41 139.125C145.06 139.125 144.785 139.017 144.585 138.8C144.385 138.583 144.285 138.283 144.285 137.9V127.925C144.285 127.525 144.385 127.225 144.585 127.025C144.785 126.808 145.06 126.7 145.41 126.7C145.777 126.7 146.06 126.808 146.26 127.025C146.46 127.225 146.56 127.525 146.56 127.925V137.9C146.56 138.283 146.46 138.583 146.26 138.8C146.077 139.017 145.793 139.125 145.41 139.125ZM145.41 124C144.96 124 144.602 123.883 144.335 123.65C144.085 123.4 143.96 123.075 143.96 122.675C143.96 122.242 144.085 121.917 144.335 121.7C144.602 121.467 144.96 121.35 145.41 121.35C145.893 121.35 146.252 121.467 146.485 121.7C146.735 121.917 146.86 122.242 146.86 122.675C146.86 123.075 146.735 123.4 146.485 123.65C146.252 123.883 145.893 124 145.41 124ZM151.343 139.175C150.993 139.175 150.718 139.075 150.518 138.875C150.318 138.675 150.218 138.383 150.218 138V127.8C150.218 127.417 150.318 127.133 150.518 126.95C150.718 126.75 150.993 126.65 151.343 126.65C151.693 126.65 151.959 126.75 152.143 126.95C152.343 127.133 152.443 127.417 152.443 127.8V129.85L152.168 129.475C152.518 128.525 153.084 127.808 153.868 127.325C154.668 126.842 155.576 126.6 156.593 126.6C157.576 126.6 158.384 126.775 159.018 127.125C159.651 127.475 160.126 128.008 160.443 128.725C160.759 129.442 160.918 130.35 160.918 131.45V138C160.918 138.383 160.818 138.675 160.618 138.875C160.434 139.075 160.159 139.175 159.793 139.175C159.426 139.175 159.143 139.075 158.943 138.875C158.743 138.675 158.643 138.383 158.643 138V131.575C158.643 130.492 158.434 129.7 158.018 129.2C157.601 128.7 156.934 128.45 156.018 128.45C154.951 128.45 154.093 128.783 153.443 129.45C152.809 130.1 152.493 130.983 152.493 132.1V138C152.493 138.783 152.109 139.175 151.343 139.175ZM165.649 139.125C165.299 139.125 165.024 139.017 164.824 138.8C164.624 138.583 164.524 138.283 164.524 137.9V127.925C164.524 127.525 164.624 127.225 164.824 127.025C165.024 126.808 165.299 126.7 165.649 126.7C166.016 126.7 166.299 126.808 166.499 127.025C166.699 127.225 166.799 127.525 166.799 127.925V137.9C166.799 138.283 166.699 138.583 166.499 138.8C166.316 139.017 166.033 139.125 165.649 139.125ZM165.649 124C165.199 124 164.841 123.883 164.574 123.65C164.324 123.4 164.199 123.075 164.199 122.675C164.199 122.242 164.324 121.917 164.574 121.7C164.841 121.467 165.199 121.35 165.649 121.35C166.133 121.35 166.491 121.467 166.724 121.7C166.974 121.917 167.099 122.242 167.099 122.675C167.099 123.075 166.974 123.4 166.724 123.65C166.491 123.883 166.133 124 165.649 124ZM171.632 139.175C171.282 139.175 171.007 139.075 170.807 138.875C170.607 138.675 170.507 138.383 170.507 138V127.8C170.507 127.417 170.607 127.133 170.807 126.95C171.007 126.75 171.282 126.65 171.632 126.65C171.982 126.65 172.249 126.75 172.432 126.95C172.632 127.133 172.732 127.417 172.732 127.8V129.925L172.457 129.475C172.774 128.558 173.282 127.85 173.982 127.35C174.699 126.85 175.549 126.6 176.532 126.6C177.565 126.6 178.399 126.85 179.032 127.35C179.665 127.833 180.09 128.575 180.307 129.575H179.957C180.257 128.658 180.79 127.933 181.557 127.4C182.34 126.867 183.249 126.6 184.282 126.6C185.199 126.6 185.949 126.783 186.532 127.15C187.132 127.5 187.582 128.033 187.882 128.75C188.182 129.45 188.332 130.35 188.332 131.45V138C188.332 138.383 188.232 138.675 188.032 138.875C187.832 139.075 187.557 139.175 187.207 139.175C186.84 139.175 186.557 139.075 186.357 138.875C186.157 138.675 186.057 138.383 186.057 138V131.55C186.057 130.483 185.874 129.7 185.507 129.2C185.14 128.7 184.524 128.45 183.657 128.45C182.707 128.45 181.949 128.783 181.382 129.45C180.832 130.1 180.557 131 180.557 132.15V138C180.557 138.383 180.457 138.675 180.257 138.875C180.074 139.075 179.799 139.175 179.432 139.175C179.065 139.175 178.782 139.075 178.582 138.875C178.382 138.675 178.282 138.383 178.282 138V131.55C178.282 130.483 178.099 129.7 177.732 129.2C177.365 128.7 176.749 128.45 175.882 128.45C174.932 128.45 174.174 128.783 173.607 129.45C173.057 130.1 172.782 131 172.782 132.15V138C172.782 138.783 172.399 139.175 171.632 139.175ZM193.115 139.125C192.765 139.125 192.49 139.017 192.29 138.8C192.09 138.583 191.99 138.283 191.99 137.9V127.925C191.99 127.525 192.09 127.225 192.29 127.025C192.49 126.808 192.765 126.7 193.115 126.7C193.482 126.7 193.765 126.808 193.965 127.025C194.165 127.225 194.265 127.525 194.265 127.925V137.9C194.265 138.283 194.165 138.583 193.965 138.8C193.782 139.017 193.498 139.125 193.115 139.125ZM193.115 124C192.665 124 192.307 123.883 192.04 123.65C191.79 123.4 191.665 123.075 191.665 122.675C191.665 122.242 191.79 121.917 192.04 121.7C192.307 121.467 192.665 121.35 193.115 121.35C193.598 121.35 193.957 121.467 194.19 121.7C194.44 121.917 194.565 122.242 194.565 122.675C194.565 123.075 194.44 123.4 194.19 123.65C193.957 123.883 193.598 124 193.115 124ZM198.298 139C198.048 139 197.848 138.942 197.698 138.825C197.548 138.708 197.439 138.558 197.373 138.375C197.323 138.192 197.323 137.992 197.373 137.775C197.439 137.558 197.564 137.342 197.748 137.125L204.673 128V128.575H198.148C197.864 128.575 197.639 128.5 197.473 128.35C197.323 128.183 197.248 127.967 197.248 127.7C197.248 127.417 197.323 127.2 197.473 127.05C197.639 126.9 197.864 126.825 198.148 126.825H205.773C206.056 126.825 206.281 126.883 206.448 127C206.631 127.117 206.748 127.267 206.798 127.45C206.864 127.633 206.873 127.833 206.823 128.05C206.773 128.25 206.656 128.45 206.473 128.65L199.448 137.875V137.25H206.298C206.898 137.25 207.198 137.542 207.198 138.125C207.198 138.392 207.114 138.608 206.948 138.775C206.798 138.925 206.581 139 206.298 139H198.298ZM214.949 139.225C213.632 139.225 212.499 138.975 211.549 138.475C210.616 137.958 209.891 137.233 209.374 136.3C208.857 135.35 208.599 134.233 208.599 132.95C208.599 131.683 208.849 130.575 209.349 129.625C209.866 128.675 210.566 127.933 211.449 127.4C212.349 126.867 213.374 126.6 214.524 126.6C215.341 126.6 216.074 126.742 216.724 127.025C217.391 127.292 217.957 127.683 218.424 128.2C218.891 128.717 219.241 129.35 219.474 130.1C219.724 130.833 219.849 131.667 219.849 132.6C219.849 132.867 219.766 133.075 219.599 133.225C219.449 133.358 219.224 133.425 218.924 133.425H210.374V131.975H218.349L217.924 132.325C217.924 131.458 217.791 130.725 217.524 130.125C217.274 129.508 216.899 129.042 216.399 128.725C215.916 128.408 215.307 128.25 214.574 128.25C213.774 128.25 213.091 128.442 212.524 128.825C211.957 129.192 211.524 129.717 211.224 130.4C210.924 131.067 210.774 131.842 210.774 132.725V132.875C210.774 134.375 211.132 135.508 211.849 136.275C212.566 137.042 213.599 137.425 214.949 137.425C215.482 137.425 216.024 137.358 216.574 137.225C217.141 137.092 217.682 136.85 218.199 136.5C218.449 136.35 218.674 136.283 218.874 136.3C219.091 136.3 219.266 136.367 219.399 136.5C219.532 136.617 219.616 136.767 219.649 136.95C219.682 137.117 219.657 137.3 219.574 137.5C219.491 137.7 219.332 137.875 219.099 138.025C218.549 138.408 217.891 138.708 217.124 138.925C216.374 139.125 215.649 139.225 214.949 139.225ZM234.472 139.225C233.239 139.225 232.172 138.967 231.272 138.45C230.372 137.917 229.68 137.175 229.197 136.225C228.714 135.258 228.472 134.125 228.472 132.825C228.472 131.858 228.605 130.992 228.872 130.225C229.155 129.458 229.555 128.808 230.072 128.275C230.589 127.725 231.214 127.308 231.947 127.025C232.697 126.742 233.539 126.6 234.472 126.6C235.055 126.6 235.672 126.692 236.322 126.875C236.972 127.058 237.572 127.358 238.122 127.775C238.305 127.908 238.422 128.067 238.472 128.25C238.522 128.417 238.522 128.592 238.472 128.775C238.439 128.958 238.355 129.117 238.222 129.25C238.105 129.367 237.947 129.433 237.747 129.45C237.564 129.467 237.364 129.408 237.147 129.275C236.747 128.975 236.322 128.758 235.872 128.625C235.439 128.492 235.022 128.425 234.622 128.425C234.005 128.425 233.455 128.525 232.972 128.725C232.505 128.925 232.105 129.217 231.772 129.6C231.455 129.967 231.214 130.425 231.047 130.975C230.88 131.508 230.797 132.133 230.797 132.85C230.797 134.267 231.13 135.383 231.797 136.2C232.464 137 233.405 137.4 234.622 137.4C235.022 137.4 235.439 137.342 235.872 137.225C236.305 137.092 236.73 136.875 237.147 136.575C237.364 136.442 237.564 136.392 237.747 136.425C237.93 136.442 238.08 136.517 238.197 136.65C238.33 136.767 238.414 136.917 238.447 137.1C238.48 137.267 238.464 137.442 238.397 137.625C238.347 137.808 238.23 137.958 238.047 138.075C237.514 138.475 236.93 138.767 236.297 138.95C235.664 139.133 235.055 139.225 234.472 139.225ZM244.643 139.225C243.393 139.225 242.443 138.858 241.793 138.125C241.143 137.375 240.818 136.3 240.818 134.9V122.35C240.818 121.967 240.918 121.683 241.118 121.5C241.318 121.3 241.593 121.2 241.943 121.2C242.31 121.2 242.593 121.3 242.793 121.5C242.993 121.683 243.093 121.967 243.093 122.35V134.725C243.093 135.592 243.268 136.242 243.618 136.675C243.985 137.092 244.501 137.3 245.168 137.3C245.318 137.3 245.451 137.3 245.568 137.3C245.685 137.283 245.801 137.267 245.918 137.25C246.101 137.233 246.235 137.283 246.318 137.4C246.401 137.517 246.443 137.75 246.443 138.1C246.443 138.417 246.368 138.667 246.218 138.85C246.085 139.017 245.86 139.125 245.543 139.175C245.393 139.192 245.243 139.2 245.093 139.2C244.943 139.217 244.793 139.225 244.643 139.225ZM252.688 139.225C251.704 139.225 250.879 139.042 250.213 138.675C249.563 138.308 249.079 137.767 248.763 137.05C248.446 136.333 248.288 135.433 248.288 134.35V127.8C248.288 127.417 248.379 127.133 248.563 126.95C248.763 126.75 249.046 126.65 249.413 126.65C249.779 126.65 250.063 126.75 250.263 126.95C250.463 127.133 250.563 127.417 250.563 127.8V134.35C250.563 135.383 250.771 136.15 251.188 136.65C251.604 137.133 252.263 137.375 253.163 137.375C254.163 137.375 254.971 137.042 255.588 136.375C256.221 135.708 256.538 134.825 256.538 133.725V127.8C256.538 127.417 256.629 127.133 256.813 126.95C257.013 126.75 257.296 126.65 257.663 126.65C258.029 126.65 258.313 126.75 258.513 126.95C258.713 127.133 258.813 127.417 258.813 127.8V138C258.813 138.783 258.446 139.175 257.713 139.175C257.346 139.175 257.063 139.075 256.863 138.875C256.679 138.675 256.588 138.383 256.588 138V135.825L256.913 136.25C256.579 137.217 256.038 137.958 255.288 138.475C254.554 138.975 253.688 139.225 252.688 139.225ZM267.523 139.225C266.54 139.225 265.715 139.05 265.048 138.7C264.398 138.35 263.907 137.842 263.573 137.175C263.257 136.508 263.098 135.692 263.098 134.725V128.575H261.498C261.198 128.575 260.965 128.5 260.798 128.35C260.632 128.183 260.548 127.967 260.548 127.7C260.548 127.417 260.632 127.2 260.798 127.05C260.965 126.9 261.198 126.825 261.498 126.825H263.098V124.1C263.098 123.717 263.198 123.433 263.398 123.25C263.598 123.05 263.882 122.95 264.248 122.95C264.615 122.95 264.89 123.05 265.073 123.25C265.273 123.433 265.373 123.717 265.373 124.1V126.825H268.398C268.715 126.825 268.957 126.9 269.123 127.05C269.29 127.2 269.373 127.417 269.373 127.7C269.373 127.967 269.29 128.183 269.123 128.35C268.957 128.5 268.715 128.575 268.398 128.575H265.373V134.525C265.373 135.442 265.565 136.133 265.948 136.6C266.332 137.067 266.965 137.3 267.848 137.3C268.165 137.3 268.432 137.275 268.648 137.225C268.865 137.158 269.057 137.125 269.223 137.125C269.373 137.108 269.498 137.158 269.598 137.275C269.715 137.392 269.773 137.608 269.773 137.925C269.773 138.158 269.732 138.375 269.648 138.575C269.582 138.758 269.44 138.883 269.223 138.95C269.023 139.017 268.757 139.075 268.423 139.125C268.09 139.192 267.79 139.225 267.523 139.225ZM276.068 139.225C275.085 139.225 274.26 139.05 273.593 138.7C272.943 138.35 272.452 137.842 272.118 137.175C271.802 136.508 271.643 135.692 271.643 134.725V128.575H270.043C269.743 128.575 269.51 128.5 269.343 128.35C269.177 128.183 269.093 127.967 269.093 127.7C269.093 127.417 269.177 127.2 269.343 127.05C269.51 126.9 269.743 126.825 270.043 126.825H271.643V124.1C271.643 123.717 271.743 123.433 271.943 123.25C272.143 123.05 272.427 122.95 272.793 122.95C273.16 122.95 273.435 123.05 273.618 123.25C273.818 123.433 273.918 123.717 273.918 124.1V126.825H276.943C277.26 126.825 277.502 126.9 277.668 127.05C277.835 127.2 277.918 127.417 277.918 127.7C277.918 127.967 277.835 128.183 277.668 128.35C277.502 128.5 277.26 128.575 276.943 128.575H273.918V134.525C273.918 135.442 274.11 136.133 274.493 136.6C274.877 137.067 275.51 137.3 276.393 137.3C276.71 137.3 276.977 137.275 277.193 137.225C277.41 137.158 277.602 137.125 277.768 137.125C277.918 137.108 278.043 137.158 278.143 137.275C278.26 137.392 278.318 137.608 278.318 137.925C278.318 138.158 278.277 138.375 278.193 138.575C278.127 138.758 277.985 138.883 277.768 138.95C277.568 139.017 277.302 139.075 276.968 139.125C276.635 139.192 276.335 139.225 276.068 139.225ZM285.481 139.225C284.165 139.225 283.031 138.975 282.081 138.475C281.148 137.958 280.423 137.233 279.906 136.3C279.39 135.35 279.131 134.233 279.131 132.95C279.131 131.683 279.381 130.575 279.881 129.625C280.398 128.675 281.098 127.933 281.981 127.4C282.881 126.867 283.906 126.6 285.056 126.6C285.873 126.6 286.606 126.742 287.256 127.025C287.923 127.292 288.49 127.683 288.956 128.2C289.423 128.717 289.773 129.35 290.006 130.1C290.256 130.833 290.381 131.667 290.381 132.6C290.381 132.867 290.298 133.075 290.131 133.225C289.981 133.358 289.756 133.425 289.456 133.425H280.906V131.975H288.881L288.456 132.325C288.456 131.458 288.323 130.725 288.056 130.125C287.806 129.508 287.431 129.042 286.931 128.725C286.448 128.408 285.84 128.25 285.106 128.25C284.306 128.25 283.623 128.442 283.056 128.825C282.49 129.192 282.056 129.717 281.756 130.4C281.456 131.067 281.306 131.842 281.306 132.725V132.875C281.306 134.375 281.665 135.508 282.381 136.275C283.098 137.042 284.131 137.425 285.481 137.425C286.015 137.425 286.556 137.358 287.106 137.225C287.673 137.092 288.215 136.85 288.731 136.5C288.981 136.35 289.206 136.283 289.406 136.3C289.623 136.3 289.798 136.367 289.931 136.5C290.065 136.617 290.148 136.767 290.181 136.95C290.215 137.117 290.19 137.3 290.106 137.5C290.023 137.7 289.865 137.875 289.631 138.025C289.081 138.408 288.423 138.708 287.656 138.925C286.906 139.125 286.181 139.225 285.481 139.225ZM294.386 139.175C294.002 139.175 293.711 139.075 293.511 138.875C293.311 138.675 293.211 138.383 293.211 138V127.8C293.211 127.417 293.311 127.133 293.511 126.95C293.711 126.75 293.986 126.65 294.336 126.65C294.686 126.65 294.952 126.75 295.136 126.95C295.336 127.133 295.436 127.417 295.436 127.8V129.725H295.186C295.452 128.725 295.952 127.967 296.686 127.45C297.419 126.933 298.344 126.642 299.461 126.575C299.727 126.558 299.944 126.625 300.111 126.775C300.277 126.908 300.369 127.142 300.386 127.475C300.402 127.792 300.327 128.05 300.161 128.25C299.994 128.433 299.736 128.542 299.386 128.575L298.936 128.6C297.836 128.717 296.986 129.075 296.386 129.675C295.802 130.275 295.511 131.1 295.511 132.15V138C295.511 138.383 295.411 138.675 295.211 138.875C295.027 139.075 294.752 139.175 294.386 139.175Z" fill="black"/>
</svg>
